<svg width="16" height="8" viewBox="0 0 16 8" fill="none" xmlns="http://www.w3.org/2000/svg">
<path d="M15.3536 4.35355C15.5488 4.15829 15.5488 3.84171 15.3536 3.64645L12.1716 0.464466C11.9763 0.269204 11.6597 0.269204 11.4645 0.464466C11.2692 0.659728 11.2692 0.976311 11.4645 1.17157L14.2929 4L11.4645 6.82843C11.2692 7.02369 11.2692 7.34027 11.4645 7.53553C11.6597 7.7308 11.9763 7.7308 12.1716 7.53553L15.3536 4.35355ZM0 4.5H0.9375V3.5H0V4.5ZM2.8125 4.5H4.6875V3.5H2.8125V4.5ZM6.5625 4.5H8.4375V3.5H6.5625V4.5ZM10.3125 4.5H12.1875V3.5H10.3125V4.5ZM14.0625 4.5H15V3.5H14.0625V4.5Z" fill="url(#paint0_linear_1009_3353)"/>
<defs>
<linearGradient id="paint0_linear_1009_3353" x1="0" y1="4" x2="14.6474" y2="6.82702" gradientUnits="userSpaceOnUse">
<stop offset="0.317708" stop-color="#6C53CE"/>
<stop offset="1" stop-color="#9B57F1"/>
</linearGradient>
</defs>
</svg>
