<svg width="62" height="60" viewBox="0 0 62 60" fill="none" xmlns="http://www.w3.org/2000/svg">
<circle cx="18.5" cy="22.5" r="43.5" fill="#679CF2"/>
<path d="M28.5 14.25C19.53 14.25 12.25 21.53 12.25 30.5C12.25 39.47 19.53 46.75 28.5 46.75C37.47 46.75 44.75 39.47 44.75 30.5C44.75 21.53 37.47 14.25 28.5 14.25ZM28.5 43.5C21.3175 43.5 15.5 37.6825 15.5 30.5C15.5 23.3175 21.3175 17.5 28.5 17.5C35.6825 17.5 41.5 23.3175 41.5 30.5C41.5 37.6825 35.6825 43.5 28.5 43.5Z" fill="white"/>
<path d="M20.5391 27.5427C20.9616 28.4527 21.1728 29.4277 21.1891 30.4677C21.2053 31.4914 20.9778 32.4989 20.5391 33.4902L22.7653 34.4977C23.3666 33.1814 23.6591 31.8164 23.6428 30.4352C23.6266 29.0702 23.3341 27.7539 22.7653 26.5352L20.5391 27.5427Z" fill="white"/>
<path d="M30.6602 22.911C31.9277 25.4623 32.5777 28.0135 32.5777 30.451C32.5777 32.9048 31.9277 35.4723 30.6602 38.0723L32.8539 39.1448C34.2839 36.2035 35.0152 33.2785 35.0152 30.451C35.0152 27.6235 34.2839 24.7148 32.8539 21.8223L30.6602 22.911Z" fill="white"/>
<path d="M25.5742 25.1698C26.4355 26.9086 26.8742 28.7611 26.8742 30.6948C26.8742 32.5961 26.4517 34.3186 25.6067 35.8136L27.7192 37.0161C28.7755 35.1473 29.3117 33.0348 29.3117 30.6948C29.3117 28.3873 28.7917 26.1611 27.7517 24.0811L25.5742 25.1698Z" fill="white"/>
</svg>
