<svg width="14" height="10" viewBox="0 0 14 10" fill="none" xmlns="http://www.w3.org/2000/svg">
<path d="M9.91732 0.916687H1.75065C1.10898 0.916687 0.583984 1.43585 0.583984 2.08335V7.33335H1.75065C1.75065 8.30169 2.53232 9.08335 3.50065 9.08335C4.46898 9.08335 5.25065 8.30169 5.25065 7.33335H8.75065C8.75065 8.30169 9.53232 9.08335 10.5006 9.08335C11.469 9.08335 12.2506 8.30169 12.2506 7.33335H13.4173V4.41669L9.91732 0.916687ZM8.75065 2.08335H9.33398L11.084 3.83335H8.75065V2.08335ZM5.25065 2.08335H7.58398V3.83335H5.25065V2.08335ZM1.75065 2.08335H4.08398V3.83335H1.75065V2.08335ZM3.50065 8.06252C3.09815 8.06252 2.77148 7.73585 2.77148 7.33335C2.77148 6.93085 3.09815 6.60419 3.50065 6.60419C3.90315 6.60419 4.22982 6.93085 4.22982 7.33335C4.22982 7.73585 3.90315 8.06252 3.50065 8.06252ZM10.5006 8.06252C10.0981 8.06252 9.77148 7.73585 9.77148 7.33335C9.77148 6.93085 10.0981 6.60419 10.5006 6.60419C10.9031 6.60419 11.2298 6.93085 11.2298 7.33335C11.2298 7.73585 10.9031 8.06252 10.5006 8.06252ZM12.2506 6.16669H11.7956C11.4748 5.81085 11.014 5.58335 10.5006 5.58335C9.98732 5.58335 9.52648 5.81085 9.20565 6.16669H4.79565C4.47482 5.81085 4.01982 5.58335 3.50065 5.58335C2.98148 5.58335 2.52648 5.81085 2.20565 6.16669H1.75065V5.00002H12.2506V6.16669Z" fill="black" fill-opacity="0.4"/>
</svg>
