<svg width="314" height="291" viewBox="0 0 314 291" fill="none" xmlns="http://www.w3.org/2000/svg">
<path d="M56.9705 235.117C109.591 262.605 194.898 262.605 247.512 235.117C300.126 207.629 300.132 163.06 247.512 135.573C194.892 108.085 109.584 108.085 56.9705 135.573C4.35671 163.06 4.35043 207.629 56.9705 235.117Z" fill="#FAFAFA"/>
<path d="M183.268 197.903C170.89 205.043 170.89 216.629 183.268 223.776C195.646 230.923 215.704 230.923 228.082 223.776C240.46 216.629 240.453 205.043 228.082 197.903C215.71 190.762 195.639 190.756 183.268 197.903Z" fill="#EBEBEB"/>
<path d="M52.9492 95.4758L86.1076 85.1641L60.5983 102.836L52.9492 95.4758Z" fill="#BA68C8"/>
<path d="M86.1056 85.1633L50.3912 91.0539L42.7422 83.6875L86.1056 85.1633Z" fill="#BA68C8"/>
<path d="M50.3906 91.0547V99.8907L52.9466 95.4758L86.105 85.1641L50.3906 91.0547Z" fill="#455A64"/>
<path d="M50.3906 99.8894L55.4963 97.9301L52.9466 95.4746L50.3906 99.8894Z" fill="#BA68C8"/>
<path d="M52.9492 95.4746L55.4989 97.9301L54.6825 98.2378L52.9492 95.4746Z" fill="#455A64"/>
<path d="M44.8978 98.5586C44.7922 98.5605 44.689 98.527 44.6048 98.4632C44.5206 98.3995 44.4602 98.3093 44.4334 98.2072C44.4066 98.105 44.4149 97.9968 44.457 97.9C44.499 97.8031 44.5725 97.7232 44.6654 97.6731C45.2306 97.3591 45.8021 97.0451 46.3673 96.8001C46.4233 96.7698 46.485 96.7512 46.5484 96.7454C46.6119 96.7396 46.6758 96.7467 46.7365 96.7663C46.7971 96.7859 46.8531 96.8177 46.9011 96.8596C46.9491 96.9015 46.9881 96.9527 47.0158 97.0101C47.0434 97.0675 47.0591 97.1299 47.0619 97.1936C47.0648 97.2572 47.0546 97.3208 47.0322 97.3804C47.0097 97.4401 46.9754 97.4945 46.9313 97.5405C46.8871 97.5865 46.8341 97.623 46.7755 97.648C46.2291 97.9117 45.6702 98.1943 45.1238 98.502C45.054 98.5383 44.9765 98.5577 44.8978 98.5586Z" fill="#E0E0E0"/>
<path d="M39.1007 149.276C39.0045 149.277 38.9102 149.248 38.8307 149.194C37.8093 148.474 36.8417 147.681 35.9356 146.82C35.8782 146.783 35.8296 146.734 35.7931 146.676C35.7567 146.618 35.7334 146.553 35.7248 146.485C35.7162 146.417 35.7224 146.348 35.7432 146.283C35.7639 146.217 35.7987 146.157 35.845 146.107C35.8912 146.056 35.948 146.017 36.0112 145.99C36.0744 145.964 36.1426 145.952 36.211 145.955C36.2794 145.957 36.3464 145.975 36.4073 146.006C36.4682 146.038 36.5215 146.082 36.5636 146.136C37.4376 146.966 38.3717 147.73 39.3582 148.422C39.4395 148.48 39.5002 148.562 39.5315 148.657C39.5628 148.752 39.5631 148.855 39.5323 148.95C39.5015 149.045 39.4413 149.128 39.3603 149.186C39.2794 149.245 39.1818 149.276 39.0819 149.276H39.1007ZM34.1772 144.704C34.1077 144.705 34.0388 144.69 33.9758 144.661C33.9128 144.631 33.8571 144.588 33.813 144.534C33.0216 143.569 32.3017 142.547 31.6589 141.476C31.594 141.369 31.5743 141.24 31.6044 141.118C31.6344 140.996 31.7116 140.891 31.8191 140.826C31.9265 140.761 32.0553 140.742 32.1772 140.772C32.2991 140.802 32.4041 140.879 32.469 140.986C33.0882 142.019 33.7808 143.005 34.5414 143.938C34.6199 144.034 34.6573 144.157 34.6455 144.28C34.6338 144.404 34.5738 144.518 34.4786 144.597C34.3945 144.668 34.2873 144.706 34.1772 144.704ZM30.6416 138.989C30.5503 138.99 30.4608 138.964 30.3839 138.915C30.307 138.866 30.2459 138.796 30.2082 138.713C29.6951 137.576 29.2546 136.408 28.8894 135.215C28.8626 135.099 28.8808 134.977 28.9402 134.874C28.9997 134.771 29.096 134.694 29.2098 134.659C29.3237 134.624 29.4465 134.633 29.5537 134.685C29.6609 134.737 29.7444 134.828 29.7875 134.939C30.1346 136.092 30.5541 137.223 31.0435 138.324C31.0698 138.38 31.0847 138.441 31.0872 138.503C31.0898 138.566 31.0799 138.628 31.0583 138.686C31.0367 138.744 31.0037 138.798 30.9613 138.844C30.9189 138.889 30.8678 138.926 30.8111 138.952C30.7577 138.975 30.7 138.988 30.6416 138.989ZM28.6006 132.577C28.4916 132.576 28.3864 132.538 28.3028 132.468C28.2192 132.398 28.1624 132.301 28.1421 132.194C27.9024 130.974 27.7325 129.741 27.6334 128.502C27.6234 128.377 27.6635 128.253 27.7447 128.158C27.826 128.062 27.9418 128.003 28.0668 127.993C28.1917 127.983 28.3154 128.023 28.4108 128.104C28.5062 128.186 28.5654 128.301 28.5754 128.426C28.6678 129.63 28.8314 130.828 29.0653 132.012C29.078 132.073 29.0785 132.135 29.0667 132.196C29.0549 132.257 29.031 132.315 28.9965 132.367C28.962 132.418 28.9175 132.462 28.8657 132.496C28.8138 132.53 28.7557 132.554 28.6948 132.565L28.6006 132.577ZM28.004 125.87C27.9419 125.87 27.8804 125.858 27.8232 125.834C27.7659 125.81 27.7141 125.774 27.6708 125.73C27.6275 125.685 27.5935 125.633 27.5709 125.575C27.5483 125.517 27.5376 125.455 27.5392 125.393C27.5539 124.15 27.6378 122.909 27.7904 121.675C27.7912 121.609 27.8058 121.544 27.8335 121.484C27.8612 121.423 27.9012 121.37 27.951 121.326C28.0008 121.283 28.0593 121.25 28.1226 121.23C28.1858 121.211 28.2525 121.205 28.3183 121.213C28.384 121.221 28.4473 121.243 28.5041 121.277C28.5608 121.311 28.6098 121.357 28.6477 121.411C28.6855 121.465 28.7116 121.527 28.724 121.592C28.7365 121.657 28.735 121.724 28.7199 121.788C28.5747 122.989 28.495 124.196 28.4812 125.406C28.4804 125.467 28.4674 125.529 28.443 125.585C28.4186 125.642 28.3832 125.694 28.3389 125.737C28.2945 125.78 28.2421 125.814 28.1847 125.837C28.1272 125.86 28.0658 125.871 28.004 125.87ZM28.7701 119.182C28.7348 119.188 28.6987 119.188 28.6634 119.182C28.542 119.155 28.4363 119.081 28.3692 118.976C28.3021 118.872 28.2792 118.745 28.3054 118.623C28.5806 117.407 28.933 116.209 29.3604 115.037C29.3812 114.976 29.4144 114.92 29.4579 114.872C29.5013 114.824 29.5541 114.786 29.613 114.76C29.6719 114.733 29.7356 114.719 29.8002 114.718C29.8648 114.717 29.9289 114.73 29.9884 114.755C30.049 114.776 30.1046 114.81 30.1519 114.854C30.1992 114.897 30.2372 114.95 30.2636 115.009C30.29 115.067 30.3042 115.131 30.3055 115.195C30.3068 115.259 30.2951 115.323 30.271 115.383C29.859 116.516 29.5192 117.673 29.2537 118.849C29.2227 118.951 29.1579 119.04 29.0701 119.1C28.9822 119.161 28.8765 119.19 28.7701 119.182ZM31.0058 112.839C30.9334 112.842 30.8616 112.825 30.7986 112.789C30.7424 112.763 30.692 112.726 30.6504 112.68C30.6088 112.634 30.5768 112.58 30.5563 112.521C30.5358 112.463 30.5272 112.401 30.5311 112.339C30.535 112.277 30.5512 112.217 30.5788 112.161C31.1269 111.042 31.7435 109.958 32.4251 108.914C32.4937 108.817 32.5966 108.749 32.7131 108.725C32.8297 108.7 32.9511 108.721 33.0531 108.782C33.1526 108.849 33.2226 108.952 33.2483 109.069C33.274 109.186 33.2536 109.308 33.1912 109.41C32.5288 110.418 31.9309 111.467 31.4014 112.55C31.3689 112.631 31.3147 112.7 31.2448 112.751C31.1749 112.802 31.0921 112.833 31.0058 112.839ZM34.6168 107.187C34.5118 107.188 34.4096 107.153 34.3279 107.087C34.279 107.048 34.2381 107 34.2078 106.946C34.1775 106.892 34.1582 106.832 34.1512 106.77C34.1442 106.708 34.1496 106.645 34.167 106.585C34.1844 106.525 34.2134 106.47 34.2526 106.421C35.0373 105.452 35.876 104.527 36.7646 103.652C36.8529 103.564 36.9726 103.514 37.0974 103.514C37.2222 103.514 37.3419 103.564 37.4302 103.652C37.5184 103.74 37.568 103.86 37.568 103.985C37.568 104.109 37.5184 104.229 37.4302 104.317C36.5744 105.171 35.7652 106.071 35.0062 107.011C34.9575 107.065 34.897 107.107 34.8294 107.133C34.7617 107.159 34.689 107.169 34.6168 107.162V107.187ZM39.3394 102.364C39.2709 102.364 39.2033 102.349 39.1414 102.32C39.0795 102.29 39.0249 102.248 38.9814 102.195C38.9018 102.098 38.8632 101.975 38.8738 101.85C38.8843 101.726 38.9433 101.611 39.0379 101.529C39.9939 100.734 40.9896 99.9879 42.0209 99.2934C42.1221 99.2313 42.2431 99.2097 42.3595 99.233C42.476 99.2563 42.5794 99.3227 42.6489 99.419C42.719 99.5233 42.7451 99.651 42.7216 99.7745C42.6981 99.8979 42.6268 100.007 42.5233 100.078C41.5171 100.754 40.5466 101.481 39.6157 102.258C39.5368 102.321 39.4403 102.358 39.3394 102.364Z" fill="#E0E0E0"/>
<path d="M43.4231 151.731C43.3557 151.731 43.2891 151.716 43.2284 151.687C42.6443 151.423 42.0666 151.14 41.5139 150.839C41.4599 150.811 41.412 150.772 41.373 150.725C41.3339 150.678 41.3045 150.624 41.2865 150.565C41.2684 150.507 41.262 150.446 41.2676 150.385C41.2732 150.324 41.2908 150.265 41.3193 150.211C41.3779 150.103 41.4764 150.022 41.5937 149.986C41.711 149.95 41.8379 149.96 41.9473 150.016C42.4873 150.305 43.0463 150.582 43.6115 150.839C43.7084 150.884 43.7871 150.961 43.8347 151.057C43.8822 151.152 43.8958 151.261 43.8731 151.366C43.8505 151.47 43.793 151.564 43.71 151.631C43.6271 151.699 43.5237 151.736 43.4168 151.737L43.4231 151.731Z" fill="#E0E0E0"/>
<path d="M258.23 128.942L284.795 111.936L296.494 115.691L258.23 128.942Z" fill="#BA68C8"/>
<path d="M258.23 128.942L281.19 109.801L276.085 103.91L258.23 128.942Z" fill="#BA68C8"/>
<path d="M281.19 109.799V114.239L258.23 128.94L281.19 109.799Z" fill="#455A64"/>
<path d="M286.371 107.947C286.257 107.948 286.147 107.905 286.063 107.828C285.97 107.745 285.914 107.628 285.906 107.504C285.897 107.38 285.938 107.257 286.019 107.162C286.837 106.25 287.563 105.259 288.186 104.204C288.249 104.096 288.353 104.017 288.474 103.986C288.596 103.954 288.725 103.971 288.833 104.035C288.941 104.098 289.02 104.202 289.052 104.323C289.083 104.444 289.066 104.573 289.002 104.682C288.345 105.787 287.583 106.828 286.729 107.79C286.684 107.84 286.629 107.881 286.567 107.908C286.505 107.935 286.438 107.948 286.371 107.947ZM289.963 102.094C289.907 102.103 289.85 102.103 289.794 102.094C289.734 102.072 289.68 102.037 289.634 101.993C289.588 101.948 289.552 101.895 289.527 101.837C289.503 101.778 289.49 101.715 289.491 101.651C289.491 101.588 289.504 101.525 289.53 101.466C289.974 100.322 290.306 99.1383 290.522 97.9306C290.545 97.8074 290.615 97.6981 290.718 97.6268C290.821 97.5556 290.948 97.5282 291.072 97.5507C291.195 97.5732 291.304 97.6437 291.375 97.7467C291.447 97.8498 291.474 97.9769 291.452 98.1002C291.22 99.3657 290.869 100.606 290.403 101.805C290.367 101.892 290.306 101.966 290.228 102.018C290.149 102.07 290.057 102.096 289.963 102.094ZM291.307 95.3558C291.246 95.355 291.185 95.342 291.128 95.3175C291.072 95.2929 291.021 95.2575 290.978 95.2131C290.935 95.1686 290.902 95.1162 290.88 95.0588C290.858 95.0013 290.847 94.9401 290.849 94.8785C290.849 94.7152 290.849 94.552 290.849 94.3887C290.846 93.3225 290.762 92.2581 290.597 91.2047C290.579 91.0808 290.611 90.9547 290.685 90.8537C290.759 90.7526 290.869 90.6847 290.993 90.6646C291.117 90.6482 291.242 90.6802 291.343 90.7539C291.443 90.8276 291.512 90.9374 291.533 91.0603C291.703 92.1617 291.789 93.2743 291.791 94.3887C291.791 94.5582 291.791 94.7278 291.791 94.8974C291.786 95.0217 291.732 95.1393 291.642 95.2249C291.552 95.3106 291.432 95.3575 291.307 95.3558ZM290.359 88.5483C290.258 88.5479 290.159 88.5147 290.079 88.4535C289.999 88.3923 289.94 88.3065 289.913 88.2092C289.553 87.0308 289.101 85.8823 288.563 84.774C288.535 84.7185 288.519 84.658 288.515 84.5961C288.511 84.5342 288.52 84.4722 288.54 84.4137C288.561 84.3552 288.593 84.3013 288.634 84.2554C288.676 84.2094 288.726 84.1722 288.783 84.146C288.895 84.092 289.024 84.0848 289.142 84.1261C289.26 84.1673 289.356 84.2535 289.411 84.3658C289.972 85.5175 290.441 86.7125 290.811 87.9391C290.829 87.9981 290.836 88.0601 290.83 88.1215C290.824 88.183 290.806 88.2426 290.776 88.297C290.747 88.3514 290.707 88.3994 290.659 88.4382C290.611 88.477 290.556 88.5059 290.497 88.5232C290.453 88.5406 290.406 88.5491 290.359 88.5483ZM287.445 82.3123C287.366 82.313 287.287 82.2931 287.218 82.2546C287.149 82.216 287.091 82.1602 287.049 82.0924C286.376 81.059 285.635 80.0709 284.832 79.1346C284.792 79.0876 284.761 79.0331 284.742 78.9742C284.722 78.9153 284.715 78.8531 284.719 78.7913C284.724 78.7294 284.741 78.6691 284.769 78.6138C284.797 78.5585 284.836 78.5092 284.883 78.4689C284.929 78.4285 284.983 78.3978 285.041 78.3785C285.1 78.3591 285.162 78.3516 285.223 78.3562C285.284 78.3609 285.344 78.3777 285.399 78.4057C285.454 78.4336 285.502 78.4722 285.542 78.5191C286.376 79.4883 287.144 80.5121 287.841 81.5838C287.898 81.6872 287.916 81.8083 287.891 81.9241C287.865 82.0398 287.798 82.1422 287.702 82.2118C287.627 82.267 287.538 82.2997 287.445 82.306V82.3123ZM283.049 77.0308C282.929 77.0304 282.814 76.983 282.729 76.8989C281.824 76.0525 280.875 75.2559 279.884 74.5125C279.834 74.4754 279.793 74.4289 279.761 74.3757C279.73 74.3224 279.709 74.2635 279.7 74.2023C279.691 74.1411 279.695 74.0787 279.71 74.0188C279.725 73.9589 279.752 73.9026 279.79 73.8531C279.827 73.8036 279.873 73.7619 279.926 73.7304C279.98 73.6989 280.039 73.6782 280.1 73.6694C280.161 73.6607 280.223 73.6641 280.283 73.6794C280.343 73.6948 280.399 73.7218 280.449 73.7589C281.47 74.5218 282.447 75.3416 283.375 76.2144C283.445 76.2791 283.494 76.3635 283.515 76.4564C283.536 76.5493 283.528 76.6463 283.493 76.7347C283.457 76.8232 283.396 76.8988 283.317 76.9516C283.237 77.0045 283.144 77.0321 283.049 77.0308ZM277.541 72.8483C277.452 72.8475 277.365 72.8213 277.29 72.7729C276.863 72.5092 276.417 72.2454 275.965 71.9879C275.337 71.6362 274.709 71.2846 274.043 70.9517C273.983 70.9274 273.928 70.8906 273.882 70.8438C273.836 70.7969 273.801 70.7411 273.778 70.6798C273.755 70.6185 273.745 70.553 273.748 70.4877C273.752 70.4223 273.769 70.3584 273.799 70.3001C273.829 70.2419 273.871 70.1904 273.922 70.1491C273.972 70.1078 274.031 70.0775 274.094 70.0603C274.157 70.043 274.224 70.0391 274.288 70.0487C274.353 70.0584 274.415 70.0815 274.47 70.1165C275.13 70.4556 275.789 70.8073 276.43 71.1715C276.894 71.429 277.347 71.699 277.786 71.9754C277.888 72.0402 277.961 72.1413 277.99 72.2581C278.019 72.3749 278.002 72.4985 277.943 72.6034C277.903 72.675 277.844 72.7352 277.774 72.778C277.704 72.8209 277.624 72.8451 277.541 72.8483ZM221.241 72.528C221.158 72.5271 221.077 72.5046 221.005 72.4628C220.934 72.4209 220.874 72.3612 220.833 72.2894C220.773 72.1833 220.758 72.0582 220.79 71.9408C220.821 71.8233 220.898 71.723 221.002 71.6614C222.095 71.0334 223.219 70.4054 224.356 69.8778C224.468 69.8234 224.596 69.8153 224.714 69.8553C224.832 69.8953 224.929 69.9802 224.984 70.0914C225.036 70.2041 225.043 70.3327 225.002 70.45C224.961 70.5672 224.875 70.6639 224.764 70.7194C223.646 71.2657 222.541 71.8498 221.467 72.4715C221.397 72.5057 221.319 72.5208 221.241 72.5155V72.528ZM271.418 69.658C271.353 69.6585 271.288 69.6434 271.23 69.6141C270.1 69.118 268.931 68.6533 267.763 68.2388C267.645 68.1963 267.549 68.1086 267.495 67.9949C267.441 67.8813 267.435 67.751 267.478 67.6328C267.52 67.5145 267.608 67.418 267.721 67.3644C267.835 67.3108 267.965 67.3045 268.084 67.347C269.271 67.774 270.457 68.2451 271.613 68.7537C271.714 68.7966 271.796 68.8732 271.847 68.9704C271.897 69.0676 271.912 69.1793 271.889 69.2863C271.866 69.3933 271.806 69.489 271.721 69.5568C271.635 69.6247 271.528 69.6605 271.418 69.658ZM227.427 69.4634C227.334 69.464 227.243 69.4368 227.166 69.3853C227.089 69.3338 227.029 69.2604 226.994 69.1745C226.968 69.1169 226.954 69.0547 226.953 68.9916C226.951 68.9286 226.963 68.8659 226.986 68.8073C227.01 68.7487 227.045 68.6955 227.089 68.6507C227.133 68.6059 227.186 68.5704 227.245 68.5465C228.407 68.0567 229.6 67.6045 230.793 67.1963C230.853 67.1714 230.917 67.1593 230.982 67.1605C231.047 67.1618 231.111 67.1764 231.17 67.2035C231.229 67.2307 231.282 67.2697 231.325 67.3181C231.368 67.3666 231.401 67.4235 231.421 67.4852C231.444 67.5457 231.454 67.6102 231.452 67.6749C231.449 67.7395 231.434 67.803 231.406 67.8616C231.379 67.9201 231.34 67.9726 231.292 68.0158C231.243 68.059 231.187 68.0921 231.126 68.1132C229.951 68.5151 228.771 68.961 227.634 69.4383C227.567 69.457 227.496 69.4613 227.427 69.4508V69.4634ZM264.937 67.2905C264.894 67.2966 264.849 67.2966 264.805 67.2905C263.619 66.9451 262.4 66.6625 261.188 66.3673C261.128 66.3541 261.07 66.3291 261.019 66.2937C260.968 66.2584 260.925 66.2133 260.891 66.1611C260.858 66.1089 260.835 66.0506 260.824 65.9896C260.813 65.9285 260.814 65.8659 260.827 65.8053C260.84 65.7447 260.865 65.6872 260.901 65.6363C260.936 65.5853 260.981 65.5418 261.033 65.5083C261.086 65.4748 261.144 65.4519 261.205 65.4409C261.266 65.4298 261.329 65.431 261.389 65.4442C262.645 65.7142 263.863 66.0345 265.069 66.3862C265.178 66.4179 265.272 66.4879 265.333 66.5832C265.395 66.6784 265.42 66.7927 265.404 66.9049C265.388 67.0172 265.332 67.1199 265.246 67.1941C265.16 67.2684 265.051 67.3093 264.937 67.3093V67.2905ZM233.946 67.1963C233.843 67.1959 233.743 67.1619 233.661 67.0996C233.58 67.0372 233.521 66.9499 233.493 66.8509C233.476 66.7919 233.471 66.7301 233.478 66.6691C233.484 66.608 233.503 66.5489 233.533 66.4952C233.563 66.4415 233.603 66.3942 233.651 66.3561C233.699 66.3179 233.755 66.2898 233.814 66.2731C235.026 65.934 236.269 65.6451 237.506 65.3688C237.569 65.3488 237.635 65.3422 237.701 65.3493C237.766 65.3564 237.829 65.3772 237.886 65.4103C237.943 65.4433 237.992 65.4879 238.031 65.5412C238.07 65.5945 238.097 65.6553 238.11 65.7197C238.124 65.7841 238.124 65.8506 238.11 65.915C238.097 65.9793 238.07 66.0402 238.031 66.0935C237.993 66.1468 237.943 66.1915 237.886 66.2246C237.83 66.2577 237.766 66.2785 237.701 66.2857C236.483 66.5432 235.264 66.8446 234.071 67.1775L233.946 67.1963ZM258.205 65.777H258.111C256.886 65.5823 255.637 65.4253 254.406 65.3123C254.341 65.3116 254.277 65.2975 254.218 65.2709C254.159 65.2443 254.106 65.2057 254.062 65.1577C254.018 65.1096 253.985 65.0531 253.965 64.9916C253.944 64.9301 253.936 64.865 253.942 64.8004C253.947 64.7358 253.966 64.673 253.997 64.616C254.028 64.5591 254.071 64.5091 254.122 64.4693C254.173 64.4295 254.232 64.4008 254.295 64.3848C254.358 64.3688 254.423 64.366 254.487 64.3766C255.743 64.4896 256.999 64.6466 258.255 64.8476C258.378 64.8691 258.487 64.9376 258.56 65.0385C258.633 65.1394 258.663 65.2646 258.645 65.3877C258.623 65.4893 258.568 65.5807 258.488 65.6478C258.409 65.7148 258.309 65.7536 258.205 65.7582V65.777ZM240.69 65.7331C240.578 65.733 240.47 65.6932 240.385 65.6207C240.3 65.5482 240.243 65.4478 240.226 65.3374C240.207 65.2135 240.239 65.0874 240.313 64.9864C240.387 64.8853 240.498 64.8174 240.621 64.7973C241.877 64.6089 243.133 64.4519 244.389 64.3452C244.451 64.3398 244.513 64.3467 244.573 64.3654C244.632 64.3841 244.687 64.4143 244.734 64.4543C244.782 64.4942 244.821 64.5431 244.85 64.5982C244.878 64.6533 244.896 64.7135 244.901 64.7753C244.906 64.8372 244.899 64.8995 244.881 64.9587C244.862 65.0179 244.832 65.0728 244.792 65.1204C244.752 65.1679 244.703 65.2071 244.648 65.2357C244.593 65.2643 244.533 65.2818 244.471 65.2872C243.215 65.3939 241.99 65.5384 240.766 65.7331H240.69ZM251.335 65.1051C250.079 65.0611 248.823 65.0548 247.598 65.1051C247.537 65.1084 247.475 65.0993 247.417 65.0782C247.358 65.0571 247.305 65.0244 247.26 64.9822C247.215 64.9399 247.179 64.889 247.154 64.8324C247.129 64.7758 247.115 64.7147 247.115 64.6529C247.112 64.5908 247.122 64.5289 247.144 64.4707C247.166 64.4126 247.199 64.3594 247.242 64.3143C247.285 64.2692 247.336 64.2331 247.393 64.2083C247.45 64.1834 247.511 64.1701 247.573 64.1693C248.829 64.1254 250.085 64.1317 251.341 64.1693C251.403 64.171 251.464 64.1848 251.52 64.2099C251.577 64.2351 251.628 64.2712 251.671 64.3161C251.713 64.361 251.746 64.4139 251.769 64.4717C251.791 64.5295 251.801 64.591 251.8 64.6529C251.79 64.7707 251.738 64.8809 251.652 64.9621C251.566 65.0433 251.453 65.0897 251.335 65.0925V65.1051Z" fill="#E0E0E0"/>
<path d="M248.967 138.123V137.118H248.722C248.349 136.437 247.783 135.882 247.095 135.523C245.692 134.811 244.141 134.439 242.567 134.439C240.994 134.439 239.443 134.811 238.039 135.523C237.352 135.882 236.786 136.437 236.413 137.118H236.168V138.091C236.168 139.052 236.796 140.019 238.052 140.754C239.456 141.463 241.007 141.832 242.58 141.832C244.153 141.832 245.704 141.463 247.108 140.754C248.351 140.044 248.973 139.077 248.967 138.123Z" fill="#37474F"/>
<path d="M242.567 140.816C246.102 140.816 248.967 139.16 248.967 137.117C248.967 135.074 246.102 133.418 242.567 133.418C239.033 133.418 236.168 135.074 236.168 137.117C236.168 139.16 239.033 140.816 242.567 140.816Z" fill="#455A64"/>
<path d="M240.922 106.32V136.684C240.935 136.828 240.986 136.966 241.07 137.084C241.154 137.202 241.268 137.296 241.399 137.356C241.76 137.539 242.159 137.634 242.564 137.634C242.969 137.634 243.368 137.539 243.729 137.356C243.862 137.297 243.977 137.204 244.062 137.086C244.147 136.968 244.199 136.829 244.213 136.684V106.32H240.922Z" fill="#37474F"/>
<path d="M249.945 83.5931C248.344 82.67 246.887 82.5946 245.794 83.2038L225.453 94.9599L235.658 115.426L256.068 103.62V94.6648C256.068 90.5011 253.324 85.5462 249.945 83.5931Z" fill="#455A64"/>
<path d="M235.658 106.465V115.426L223.418 108.355V99.3998C223.418 95.2362 226.156 93.4464 229.535 95.3995C231.701 96.6555 233.604 99.1298 234.691 101.843C235.298 103.31 235.626 104.877 235.658 106.465Z" fill="#37474F"/>
<path d="M235.658 106.465V115.426L223.418 108.355L234.691 101.843C235.298 103.31 235.626 104.877 235.658 106.465Z" fill="#263238"/>
<path d="M233.617 109.536C232.493 106.283 228.838 102.062 225.453 100.116C222.068 98.1689 220.247 99.2176 221.371 102.471L223.412 108.361L235.658 115.433C235.658 115.433 234.748 112.789 233.617 109.536Z" fill="#455A64"/>
<path d="M242.039 106.804L241.355 106.408C241.208 106.341 241.045 106.313 240.884 106.329C240.723 106.344 240.569 106.402 240.438 106.496C240.06 106.744 239.745 107.077 239.519 107.469C239.293 107.86 239.163 108.299 239.138 108.751C239.121 108.913 239.147 109.076 239.215 109.224C239.282 109.372 239.388 109.499 239.521 109.592L240.149 109.957L240.268 109.762C240.399 109.734 240.524 109.685 240.639 109.618C241.017 109.371 241.332 109.039 241.558 108.649C241.783 108.258 241.914 107.82 241.939 107.369C241.938 107.257 241.923 107.145 241.895 107.036L242.039 106.804Z" fill="#263238"/>
<path d="M241.089 106.879C240.711 107.126 240.396 107.457 240.17 107.848C239.944 108.239 239.814 108.677 239.789 109.128C239.789 109.957 240.373 110.289 241.089 109.875C241.468 109.629 241.783 109.297 242.009 108.907C242.234 108.516 242.365 108.077 242.389 107.627C242.408 106.798 241.78 106.465 241.089 106.879Z" fill="#37474F"/>
<path d="M241.092 108.733C241.042 108.733 240.993 108.723 240.947 108.704C240.902 108.685 240.86 108.657 240.825 108.622C240.79 108.587 240.762 108.546 240.744 108.5C240.725 108.454 240.715 108.405 240.715 108.356V95.4002C240.715 95.3003 240.755 95.2045 240.825 95.1338C240.896 95.0631 240.992 95.0234 241.092 95.0234C241.192 95.0234 241.287 95.0631 241.358 95.1338C241.429 95.2045 241.468 95.3003 241.468 95.4002V108.356C241.468 108.456 241.429 108.552 241.358 108.622C241.287 108.693 241.192 108.733 241.092 108.733Z" fill="#263238"/>
<path d="M241.43 95.7385V99.1172L245.053 95.3994L241.43 95.7385Z" fill="#37474F"/>
<path d="M50.9186 207.811C50.6046 207.981 44.8396 209.614 42.7044 206.794C40.5692 203.974 44.1174 199.578 42.114 197.958C40.1107 196.338 34.4964 197.958 33.1462 194.554C31.796 191.151 35.7964 189.681 33.5481 186.246C32.1288 184.079 28.1599 182.886 28.342 180.87C28.6058 177.925 34.0317 177.102 38.7668 180.286C43.5019 183.47 45.7125 180.858 47.2134 180.644C48.7143 180.431 51.9548 180.902 51.8543 186.177C51.7538 191.452 50.9186 207.811 50.9186 207.811Z" fill="#BA68C8"/>
<path d="M51.302 200.332C51.2271 200.332 51.1547 200.305 51.0973 200.257C51.0399 200.209 51.0013 200.142 50.988 200.068C49.3364 190.02 37.6996 181.9 31.6456 180.154C31.6056 180.143 31.5681 180.125 31.5355 180.099C31.5029 180.073 31.4758 180.041 31.4559 180.005C31.4359 179.969 31.4235 179.929 31.4195 179.887C31.4154 179.846 31.4197 179.804 31.4321 179.765C31.4554 179.685 31.5096 179.618 31.5826 179.578C31.6556 179.537 31.7415 179.528 31.8215 179.551C38.0073 181.341 49.9142 189.687 51.6098 199.968C51.6225 200.049 51.6026 200.132 51.5544 200.199C51.5062 200.266 51.4336 200.312 51.3523 200.326L51.302 200.332Z" fill="white"/>
<path d="M37.5749 191.922C37.5058 191.923 37.4385 191.901 37.3832 191.86C37.328 191.818 37.288 191.76 37.2694 191.693C37.2508 191.627 37.2547 191.556 37.2804 191.492C37.3061 191.427 37.3522 191.374 37.4116 191.338C37.6 191.225 42.0839 188.607 46.4925 189.831C46.5758 189.853 46.647 189.907 46.6906 189.981C46.7342 190.055 46.7465 190.144 46.7249 190.227C46.7032 190.31 46.6493 190.381 46.5752 190.425C46.501 190.469 46.4125 190.481 46.3292 190.459C42.1718 189.304 37.7758 191.872 37.7319 191.897C37.683 191.921 37.6285 191.929 37.5749 191.922Z" fill="white"/>
<path d="M215.092 154.752C217.566 155.091 221.78 153.659 222.081 149.539C222.383 145.42 224.085 144.302 227.206 143.63C230.327 142.958 231.244 141.871 231.602 139.912C231.96 137.953 229.586 135.61 230.252 132.659C230.917 129.707 233.14 129.713 235.326 126.379C236.726 124.231 233.856 120.953 229.077 122.359C224.298 123.766 224.681 126.85 219.902 127.245C215.123 127.641 212.128 130.542 212.033 134.153C211.939 137.764 215.092 154.752 215.092 154.752Z" fill="#BA68C8"/>
<path opacity="0.2" d="M215.092 154.752C217.566 155.091 221.78 153.659 222.081 149.539C222.383 145.42 224.085 144.302 227.206 143.63C230.327 142.958 231.244 141.871 231.602 139.912C231.96 137.953 229.586 135.61 230.252 132.659C230.917 129.707 233.14 129.713 235.326 126.379C236.726 124.231 233.856 120.953 229.077 122.359C224.298 123.766 224.681 126.85 219.902 127.245C215.123 127.641 212.128 130.542 212.033 134.153C211.939 137.764 215.092 154.752 215.092 154.752Z" fill="black"/>
<path d="M214.187 146.852H214.15C214.109 146.844 214.071 146.827 214.037 146.804C214.003 146.781 213.973 146.752 213.95 146.717C213.928 146.683 213.912 146.644 213.904 146.604C213.896 146.563 213.897 146.522 213.905 146.481C216.216 135.058 228.82 124.602 231.891 123.534C231.974 123.507 232.065 123.513 232.143 123.553C232.221 123.592 232.281 123.661 232.308 123.745C232.336 123.828 232.329 123.919 232.29 123.997C232.25 124.075 232.181 124.135 232.098 124.162C229.096 125.205 216.781 135.466 214.514 146.638C214.491 146.705 214.446 146.762 214.387 146.801C214.328 146.839 214.258 146.857 214.187 146.852Z" fill="white"/>
<path d="M48.2812 142.801C48.3119 142.235 48.4758 141.684 48.7595 141.192C49.0432 140.701 49.4388 140.284 49.9141 139.975L133.382 91.7821C133.887 91.5281 134.445 91.3958 135.011 91.3958C135.577 91.3958 136.135 91.5281 136.641 91.7821L138.481 92.8497C138.957 93.158 139.354 93.5749 139.637 94.0662C139.921 94.5575 140.085 95.1091 140.114 95.6757V159.656C140.082 160.222 139.917 160.773 139.633 161.264C139.35 161.754 138.955 162.172 138.481 162.482L55.0134 210.669C54.5075 210.926 53.9481 211.06 53.3806 211.06C52.8132 211.06 52.2537 210.926 51.7478 210.669L49.9141 209.607C49.4395 209.297 49.0444 208.88 48.7608 208.389C48.4772 207.898 48.3129 207.348 48.2812 206.781V142.801Z" fill="#BA68C8"/>
<path opacity="0.3" d="M48.2812 142.801C48.3119 142.235 48.4758 141.684 48.7595 141.192C49.0432 140.701 49.4388 140.284 49.9141 139.975L133.382 91.7821C133.887 91.5281 134.445 91.3958 135.011 91.3958C135.577 91.3958 136.135 91.5281 136.641 91.7821L138.481 92.8497C138.957 93.158 139.354 93.5749 139.637 94.0662C139.921 94.5575 140.085 95.1091 140.114 95.6757V159.656C140.082 160.222 139.917 160.773 139.633 161.264C139.35 161.754 138.955 162.172 138.481 162.482L55.0134 210.669C54.5075 210.926 53.9481 211.06 53.3806 211.06C52.8132 211.06 52.2537 210.926 51.7478 210.669L49.9141 209.607C49.4395 209.297 49.0444 208.88 48.7608 208.389C48.4772 207.898 48.3129 207.348 48.2812 206.781V142.801Z" fill="black"/>
<path d="M55.9303 145.338L48.7585 141.193C48.4653 141.68 48.3011 142.233 48.2812 142.801V206.782C48.3129 207.348 48.4772 207.898 48.7608 208.389C49.0444 208.88 49.4395 209.298 49.9141 209.608L51.7478 210.669C52.2537 210.926 52.8132 211.06 53.3806 211.06C53.9481 211.06 54.5075 210.926 55.0134 210.669L55.9303 210.141V145.338Z" fill="#BA68C8"/>
<path opacity="0.5" d="M55.9303 145.338L48.7585 141.193C48.4653 141.68 48.3011 142.233 48.2812 142.801V206.782C48.3129 207.348 48.4772 207.898 48.7608 208.389C49.0444 208.88 49.4395 209.298 49.9141 209.608L51.7478 210.669C52.2537 210.926 52.8132 211.06 53.3806 211.06C53.9481 211.06 54.5075 210.926 55.0134 210.669L55.9303 210.141V145.338Z" fill="black"/>
<path d="M140.112 95.6767V159.657C140.091 160.243 139.915 160.813 139.603 161.309C139.362 161.727 139.037 162.09 138.649 162.377L138.586 162.414L138.479 162.483L55.0115 210.67C54.8518 210.783 54.6662 210.853 54.4718 210.875C54.2775 210.897 54.0808 210.87 53.9 210.795C53.7261 210.686 53.5856 210.531 53.4937 210.347C53.4018 210.163 53.362 209.958 53.3787 209.753V145.747C53.3645 145.518 53.4061 145.289 53.4998 145.08C53.5936 144.87 53.7368 144.686 53.9171 144.544C54.0974 144.402 54.3094 144.306 54.535 144.264C54.7606 144.222 54.9931 144.235 55.2125 144.303L90.3114 152.649L94.9084 153.742C95.4509 153.843 96.011 153.795 96.5279 153.601C97.0448 153.407 97.499 153.076 97.8411 152.643L103.167 145.226L139.013 95.3188C139.616 94.4772 140.112 94.6342 140.112 95.6767Z" fill="#BA68C8"/>
<path opacity="0.2" d="M140.112 95.6767V159.657C140.091 160.243 139.915 160.813 139.603 161.309C139.362 161.727 139.037 162.09 138.649 162.377L138.586 162.414L138.479 162.483L55.0115 210.67C54.8518 210.783 54.6662 210.853 54.4718 210.875C54.2775 210.897 54.0808 210.87 53.9 210.795C53.7261 210.686 53.5856 210.531 53.4937 210.347C53.4018 210.163 53.362 209.958 53.3787 209.753V145.747C53.3645 145.518 53.4061 145.289 53.4998 145.08C53.5936 144.87 53.7368 144.686 53.9171 144.544C54.0974 144.402 54.3094 144.306 54.535 144.264C54.7606 144.222 54.9931 144.235 55.2125 144.303L90.3114 152.649L94.9084 153.742C95.4509 153.843 96.011 153.795 96.5279 153.601C97.0448 153.407 97.499 153.076 97.8411 152.643L103.167 145.226L139.013 95.3188C139.616 94.4772 140.112 94.6342 140.112 95.6767Z" fill="black"/>
<path d="M138.48 162.483L138.587 162.414L138.65 162.376C139.038 162.09 139.363 161.726 139.605 161.308C139.913 160.82 140.089 160.259 140.113 159.682L103.168 145.238L127.911 168.599L138.48 162.483Z" fill="#BA68C8"/>
<path opacity="0.6" d="M138.48 162.483L138.587 162.414L138.65 162.376C139.038 162.09 139.363 161.726 139.605 161.308C139.913 160.82 140.089 160.259 140.113 159.682L103.168 145.238L127.911 168.599L138.48 162.483Z" fill="black"/>
<path d="M53.3824 209.752C53.3584 209.961 53.3933 210.172 53.4832 210.362C53.5731 210.552 53.7144 210.712 53.891 210.826C54.0719 210.9 54.2686 210.928 54.4629 210.906C54.6572 210.884 54.8429 210.813 55.0026 210.701L83.7524 194.052L90.315 152.604L53.3824 208.666V209.752Z" fill="#BA68C8"/>
<path opacity="0.6" d="M53.3824 209.752C53.3584 209.961 53.3933 210.172 53.4832 210.362C53.5731 210.552 53.7144 210.712 53.891 210.826C54.0719 210.9 54.2686 210.928 54.4629 210.906C54.6572 210.884 54.8429 210.813 55.0026 210.701L83.7524 194.052L90.315 152.604L53.3824 208.666V209.752Z" fill="black"/>
<path d="M139.605 161.308C139.364 161.726 139.039 162.09 138.651 162.376L138.588 162.413L55.0139 210.669C54.8542 210.782 54.6685 210.852 54.4742 210.874C54.2799 210.896 54.0832 210.869 53.9023 210.795L93.8745 146.983C94.6779 145.705 95.9148 144.759 97.3588 144.319C98.8027 143.878 100.357 143.973 101.737 144.584L139.605 161.308Z" fill="#BA68C8"/>
<path opacity="0.2" d="M139.605 161.308C139.364 161.726 139.039 162.09 138.651 162.376L138.588 162.413L55.0139 210.669C54.8542 210.782 54.6685 210.852 54.4742 210.874C54.2799 210.896 54.0832 210.869 53.9023 210.795L93.8745 146.983C94.6779 145.705 95.9148 144.759 97.3588 144.319C98.8027 143.878 100.357 143.973 101.737 144.584L139.605 161.308Z" fill="black"/>
<path d="M53.3789 143.862L91.7685 160.818C93.1507 161.428 94.7066 161.519 96.1508 161.075C97.595 160.631 98.8306 159.681 99.6311 158.4L139.942 93.8855L53.3789 143.862Z" fill="#BA68C8"/>
<path opacity="0.6" d="M53.3789 143.862L91.7685 160.818C93.1507 161.428 94.7066 161.519 96.1508 161.075C97.595 160.631 98.8306 159.681 99.6311 158.4L139.942 93.8855L53.3789 143.862Z" fill="black"/>
<path d="M53.3789 143.862L92.0386 158.306C93.3746 158.805 94.8405 158.834 96.1953 158.389C97.5501 157.943 98.7131 157.05 99.4929 155.857L139.942 93.8855L53.3789 143.862Z" fill="#BA68C8"/>
<path opacity="0.2" d="M53.3789 143.862L92.0386 158.306C93.3746 158.805 94.8405 158.834 96.1953 158.389C97.5501 157.943 98.7131 157.05 99.4929 155.857L139.942 93.8855L53.3789 143.862Z" fill="black"/>
<path d="M62.5352 150.682C62.5643 150.115 62.7276 149.564 63.0114 149.072C63.2953 148.581 63.6916 148.164 64.168 147.856L147.635 99.6632C148.141 99.4062 148.701 99.2722 149.268 99.2722C149.836 99.2722 150.395 99.4062 150.901 99.6632L152.741 100.725C153.215 101.035 153.61 101.452 153.892 101.943C154.175 102.434 154.338 102.985 154.368 103.551V167.531C154.337 168.097 154.173 168.647 153.891 169.138C153.608 169.629 153.214 170.046 152.741 170.357L69.2673 218.544C68.7616 218.798 68.2036 218.93 67.6377 218.93C67.0717 218.93 66.5137 218.798 66.008 218.544L64.168 217.482C63.6937 217.172 63.2989 216.754 63.0154 216.263C62.7318 215.773 62.5673 215.222 62.5352 214.656V150.682Z" fill="#455A64"/>
<path d="M62.5352 150.682C62.5643 150.115 62.7276 149.564 63.0114 149.072C63.2953 148.581 63.6916 148.164 64.168 147.856L147.635 99.6632C148.141 99.4062 148.701 99.2722 149.268 99.2722C149.836 99.2722 150.395 99.4062 150.901 99.6632L152.741 100.725C153.215 101.035 153.61 101.452 153.892 101.943C154.175 102.434 154.338 102.985 154.368 103.551V167.531C154.337 168.097 154.173 168.647 153.891 169.138C153.608 169.629 153.214 170.046 152.741 170.357L69.2673 218.544C68.7616 218.798 68.2036 218.93 67.6377 218.93C67.0717 218.93 66.5137 218.798 66.008 218.544L64.168 217.482C63.6937 217.172 63.2989 216.754 63.0154 216.263C62.7318 215.773 62.5673 215.222 62.5352 214.656V150.682Z" fill="#455A64"/>
<path d="M70.1905 153.233L63.0124 149.094C62.7185 149.581 62.5541 150.134 62.5352 150.702V214.664C62.5673 215.23 62.7318 215.78 63.0154 216.271C63.2989 216.762 63.6937 217.179 64.168 217.49L66.008 218.551C66.5137 218.805 67.0717 218.938 67.6377 218.938C68.2036 218.938 68.7616 218.805 69.2673 218.551L70.1905 218.017V153.233Z" fill="#263238"/>
<path d="M154.376 103.551V167.531C154.355 168.117 154.18 168.687 153.868 169.183C153.626 169.601 153.301 169.965 152.913 170.251L152.85 170.288L152.744 170.357L69.276 218.544C69.1163 218.657 68.9307 218.727 68.7364 218.749C68.5421 218.771 68.3454 218.744 68.1645 218.67C67.9878 218.556 67.8466 218.395 67.7566 218.205C67.6667 218.015 67.6318 217.804 67.6558 217.596V153.621C67.6416 153.392 67.6832 153.163 67.7769 152.954C67.8707 152.744 68.0138 152.561 68.1941 152.419C68.3744 152.277 68.5865 152.18 68.8121 152.138C69.0377 152.096 69.2702 152.109 69.4896 152.177L104.588 160.523L109.185 161.616C109.728 161.717 110.288 161.669 110.805 161.475C111.322 161.281 111.776 160.95 112.118 160.517L117.437 153.1L153.284 103.193C153.861 102.364 154.376 102.508 154.376 103.551Z" fill="#37474F"/>
<path d="M152.742 170.357L152.849 170.288L152.912 170.251C153.3 169.965 153.625 169.601 153.866 169.183C154.171 168.696 154.344 168.137 154.369 167.563L117.43 153.119L142.167 176.468L152.742 170.357Z" fill="#263238"/>
<path d="M67.6415 217.602C67.6175 217.811 67.6524 218.022 67.7423 218.212C67.8322 218.401 67.9735 218.562 68.1501 218.676C68.331 218.75 68.5277 218.778 68.722 218.756C68.9163 218.734 69.102 218.663 69.2617 218.55L97.999 201.958L104.562 160.51L67.6289 216.528L67.6415 217.602Z" fill="#263238"/>
<path d="M153.861 169.183C153.62 169.601 153.295 169.965 152.906 170.251L152.844 170.289L69.2756 218.544C69.1159 218.657 68.9303 218.728 68.736 218.749C68.5416 218.771 68.3449 218.744 68.1641 218.67L108.13 154.865C108.931 153.585 110.168 152.636 111.612 152.193C113.056 151.75 114.611 151.843 115.993 152.453L153.861 169.183Z" fill="#37474F"/>
<path d="M67.6406 151.743L106.03 168.699C107.412 169.307 108.966 169.398 110.409 168.954C111.852 168.51 113.086 167.561 113.887 166.281L154.198 101.735L67.6406 151.743Z" fill="#263238"/>
<path d="M67.6406 151.743L106.294 166.187C107.631 166.687 109.098 166.717 110.454 166.272C111.811 165.827 112.975 164.933 113.755 163.738L154.198 101.735L67.6406 151.743Z" fill="#37474F"/>
<path d="M123.762 201.468V137.487C123.82 136.274 124.199 135.097 124.861 134.077L164.67 78.6439C165.396 77.6311 166.407 76.8574 167.575 76.4213C168.743 75.9851 170.013 75.9062 171.226 76.1947L208.661 85.0934C209.867 85.4145 211.031 85.8783 212.128 86.475L213.968 87.5363C214.441 87.8475 214.834 88.2653 215.117 88.756C215.399 89.2468 215.563 89.797 215.594 90.3623V154.343C215.562 154.908 215.398 155.458 215.115 155.949C214.833 156.439 214.44 156.857 213.968 157.169L130.494 205.355C129.989 205.611 129.43 205.744 128.864 205.744C128.298 205.744 127.74 205.611 127.235 205.355L125.395 204.294C124.92 203.984 124.525 203.567 124.241 203.076C123.958 202.585 123.793 202.034 123.762 201.468Z" fill="#BA68C8"/>
<path opacity="0.3" d="M123.762 201.468V137.487C123.82 136.274 124.199 135.097 124.861 134.077L164.67 78.6439C165.396 77.6311 166.407 76.8574 167.575 76.4213C168.743 75.9851 170.013 75.9062 171.226 76.1947L208.661 85.0934C209.867 85.4145 211.031 85.8783 212.128 86.475L213.968 87.5363C214.441 87.8475 214.834 88.2653 215.117 88.756C215.399 89.2468 215.563 89.797 215.594 90.3623V154.343C215.562 154.908 215.398 155.458 215.115 155.949C214.833 156.439 214.44 156.857 213.968 157.169L130.494 205.355C129.989 205.611 129.43 205.744 128.864 205.744C128.298 205.744 127.74 205.611 127.235 205.355L125.395 204.294C124.92 203.984 124.525 203.567 124.241 203.076C123.958 202.585 123.793 202.034 123.762 201.468Z" fill="white"/>
<path d="M131.41 106.565V188.205C131.41 189.242 132.145 189.669 133.043 189.147L211.411 143.931C211.887 143.622 212.283 143.205 212.566 142.714C212.85 142.223 213.014 141.672 213.044 141.105V59.4654C213.044 58.423 212.315 58.0022 211.411 58.5234L133.043 103.739C132.568 104.049 132.172 104.466 131.888 104.957C131.605 105.448 131.441 105.999 131.41 106.565Z" fill="#FAFAFA"/>
<path d="M132.314 189.694C132.112 189.695 131.912 189.643 131.736 189.543C131.521 189.4 131.35 189.201 131.239 188.967C131.128 188.734 131.083 188.475 131.108 188.218V106.578C131.138 105.956 131.316 105.35 131.627 104.81C131.939 104.27 132.374 103.813 132.898 103.476L211.266 58.2596C211.471 58.093 211.721 57.9925 211.984 57.9716C212.247 57.9507 212.51 58.0103 212.739 58.1425C212.967 58.2748 213.15 58.4733 213.262 58.7118C213.375 58.9504 213.413 59.2175 213.37 59.4779V141.118C213.341 141.739 213.163 142.345 212.852 142.884C212.54 143.422 212.104 143.878 211.58 144.214L133.212 189.43C132.941 189.596 132.632 189.687 132.314 189.694ZM212.139 58.5799C211.936 58.5915 211.74 58.6541 211.568 58.762L133.2 104.009C132.773 104.293 132.418 104.671 132.162 105.114C131.906 105.558 131.756 106.054 131.724 106.565V188.205C131.686 188.353 131.698 188.508 131.757 188.648C131.815 188.788 131.919 188.905 132.05 188.981C132.182 189.058 132.335 189.089 132.485 189.07C132.636 189.051 132.777 188.983 132.886 188.877L211.254 143.661C211.681 143.379 212.036 143 212.292 142.557C212.548 142.113 212.698 141.617 212.729 141.105V59.4653C212.747 59.3181 212.727 59.1687 212.671 59.0313C212.615 58.894 212.525 58.7732 212.409 58.6803C212.33 58.623 212.237 58.5883 212.139 58.5799Z" fill="#E0E0E0"/>
<path d="M129.719 139.046L124.067 135.78C123.884 136.332 123.783 136.907 123.766 137.488V201.469C123.797 202.035 123.962 202.586 124.245 203.076C124.529 203.567 124.924 203.985 125.398 204.295L127.232 205.356C127.737 205.613 128.295 205.747 128.862 205.747C129.428 205.747 129.987 205.613 130.491 205.356L131.276 204.91L129.719 139.046Z" fill="#BA68C8"/>
<g opacity="0.1">
<path opacity="0.1" d="M129.719 139.046L124.067 135.78C123.884 136.332 123.783 136.907 123.766 137.488V201.469C123.797 202.035 123.962 202.586 124.245 203.076C124.529 203.567 124.924 203.985 125.398 204.295L127.232 205.356C127.737 205.613 128.295 205.747 128.862 205.747C129.428 205.747 129.987 205.613 130.491 205.356L131.276 204.91L129.719 139.046Z" fill="black"/>
</g>
<path d="M215.599 90.3629V154.344C215.578 154.929 215.402 155.499 215.09 155.995C214.849 156.413 214.524 156.777 214.136 157.063L214.073 157.1L213.966 157.17L130.499 205.356C130.339 205.469 130.153 205.539 129.959 205.561C129.765 205.583 129.568 205.556 129.387 205.482C129.21 205.368 129.069 205.207 128.979 205.017C128.889 204.828 128.854 204.616 128.878 204.408V140.433C128.864 140.204 128.906 139.975 129 139.766C129.093 139.556 129.237 139.373 129.417 139.231C129.597 139.089 129.809 138.992 130.035 138.95C130.26 138.908 130.493 138.921 130.712 138.989L165.792 147.335L170.389 148.428C170.933 148.531 171.494 148.483 172.012 148.289C172.53 148.095 172.986 147.763 173.328 147.329L178.654 139.912L214.5 90.0049C215.103 89.176 215.599 89.3204 215.599 90.3629Z" fill="#BA68C8"/>
<path opacity="0.3" d="M215.599 90.3629V154.344C215.578 154.929 215.402 155.499 215.09 155.995C214.849 156.413 214.524 156.777 214.136 157.063L214.073 157.1L213.966 157.17L130.499 205.356C130.339 205.469 130.153 205.539 129.959 205.561C129.765 205.583 129.568 205.556 129.387 205.482C129.21 205.368 129.069 205.207 128.979 205.017C128.889 204.828 128.854 204.616 128.878 204.408V140.433C128.864 140.204 128.906 139.975 129 139.766C129.093 139.556 129.237 139.373 129.417 139.231C129.597 139.089 129.809 138.992 130.035 138.95C130.26 138.908 130.493 138.921 130.712 138.989L165.792 147.335L170.389 148.428C170.933 148.531 171.494 148.483 172.012 148.289C172.53 148.095 172.986 147.763 173.328 147.329L178.654 139.912L214.5 90.0049C215.103 89.176 215.599 89.3204 215.599 90.3629Z" fill="white"/>
<path d="M213.965 157.169L214.072 157.1L214.134 157.063C214.523 156.776 214.848 156.413 215.089 155.995C215.394 155.505 215.567 154.945 215.591 154.369L178.652 139.925L203.389 163.28L213.965 157.169Z" fill="#BA68C8"/>
<path d="M128.868 204.414C128.844 204.623 128.879 204.834 128.969 205.024C129.059 205.214 129.2 205.375 129.377 205.488C129.558 205.563 129.754 205.59 129.949 205.568C130.143 205.546 130.329 205.476 130.488 205.363L159.226 188.771L165.788 147.323L128.855 203.341L128.868 204.414Z" fill="#BA68C8"/>
<path d="M215.09 155.995C214.849 156.413 214.524 156.777 214.135 157.063L214.073 157.101L130.498 205.356C130.339 205.469 130.153 205.54 129.959 205.561C129.764 205.583 129.568 205.556 129.387 205.482L169.353 141.677C170.154 140.398 171.389 139.451 172.832 139.008C174.274 138.565 175.828 138.656 177.209 139.265L215.09 155.995Z" fill="#BA68C8"/>
<path opacity="0.3" d="M215.09 155.995C214.849 156.413 214.524 156.777 214.135 157.063L214.073 157.101L130.498 205.356C130.339 205.469 130.153 205.54 129.959 205.561C129.764 205.583 129.568 205.556 129.387 205.482L169.353 141.677C170.154 140.398 171.389 139.451 172.832 139.008C174.274 138.565 175.828 138.656 177.209 139.265L215.09 155.995Z" fill="white"/>
<path d="M165.918 125.368C165.186 125.481 164.436 125.415 163.735 125.174C163.034 124.933 162.401 124.525 161.893 123.986C160.938 122.925 160.461 121.286 160.461 119.081C160.463 116.594 160.996 114.136 162.025 111.872C163.081 109.542 164.539 107.416 166.333 105.592C168.261 103.592 170.46 101.872 172.864 100.48C175.221 99.1235 177.233 98.372 178.899 98.2255C180.576 98.0748 181.838 98.5081 182.705 99.5129C183.571 100.518 183.998 102.056 183.998 104.116C184.035 106.159 183.551 108.178 182.592 109.982C181.747 111.616 180.458 112.978 178.874 113.913C178.327 114.301 177.657 114.476 176.99 114.403C176.753 114.356 176.534 114.241 176.36 114.073C176.186 113.905 176.065 113.69 176.01 113.454C175.487 114.444 174.823 115.351 174.038 116.149C173.244 116.968 172.34 117.672 171.35 118.24C169.642 119.207 168.28 119.496 167.275 119.163C166.27 118.83 165.793 117.813 165.793 116.117C165.807 113.986 166.464 111.909 167.677 110.157C168.997 108.215 170.752 106.607 172.801 105.46C173.657 104.95 174.587 104.577 175.558 104.355C176.28 104.159 177.041 104.159 177.762 104.355V110.968C177.762 111.501 177.857 111.828 178.039 111.954C178.221 112.079 178.522 112.016 178.949 111.771C179.745 111.254 180.334 110.474 180.613 109.567C181.038 108.342 181.24 107.051 181.21 105.755C181.21 104.106 180.85 102.906 180.13 102.157C179.745 101.781 179.276 101.502 178.761 101.345C178.246 101.187 177.701 101.156 177.172 101.252C175.639 101.487 174.17 102.034 172.858 102.86C170.081 104.4 167.688 106.547 165.855 109.14C164.162 111.574 163.263 114.471 163.281 117.436C163.281 119.24 163.651 120.557 164.392 121.386C164.776 121.801 165.257 122.115 165.792 122.299C166.327 122.483 166.899 122.532 167.457 122.441C169.02 122.22 170.518 121.67 171.853 120.827C172.774 120.294 173.646 119.681 174.459 118.993C175.216 118.369 175.904 117.666 176.513 116.896C176.576 116.815 176.65 116.743 176.732 116.682C176.789 116.651 176.845 116.682 176.896 116.758L177.586 118.014C177.612 118.064 177.631 118.116 177.643 118.171C177.621 118.311 177.552 118.439 177.448 118.535C176.69 119.447 175.849 120.288 174.936 121.047C173.976 121.853 172.948 122.576 171.865 123.207C170.061 124.347 168.033 125.083 165.918 125.368ZM174.082 113.561C174.68 112.856 175.029 111.973 175.074 111.049V107.218C174.178 107.294 173.315 107.592 172.562 108.085C171.365 108.759 170.344 109.708 169.586 110.855C168.874 111.906 168.492 113.146 168.487 114.415C168.487 115.477 168.751 116.111 169.284 116.299C169.818 116.488 170.641 116.299 171.765 115.627C172.675 115.101 173.471 114.399 174.107 113.561H174.082Z" fill="#E0E0E0"/>
<path d="M85.9364 131.66L79.8134 128.112H79.7694C77.6782 126.931 74.7957 127.107 71.6054 128.947C65.1936 132.646 60 141.645 60 149.043C60 152.742 61.2937 155.323 63.3849 156.579L69.0809 159.839L70.1108 158.124C71.2789 157.862 72.4009 157.426 73.4392 156.83C79.8448 153.125 85.0446 144.126 85.0446 136.734C85.0412 135.735 84.9189 134.74 84.6804 133.77L85.9364 131.66Z" fill="#F28F8F"/>
<path d="M85.9364 131.66L79.8134 128.112H79.7694C77.6782 126.931 74.7957 127.107 71.6054 128.947C65.1936 132.646 60 141.645 60 149.043C60 152.742 61.2937 155.323 63.3849 156.579L69.0809 159.839L70.1108 158.124C71.2789 157.862 72.4009 157.426 73.4392 156.83C79.8448 153.125 85.0446 144.126 85.0446 136.734C85.0412 135.735 84.9189 134.74 84.6804 133.77L85.9364 131.66Z" fill="#BA68C8"/>
<path opacity="0.4" d="M85.9364 131.66L79.8134 128.112H79.7694C77.6782 126.931 74.7957 127.107 71.6054 128.947C65.1936 132.646 60 141.645 60 149.043C60 152.742 61.2937 155.323 63.3849 156.579L69.0809 159.839L70.1108 158.124C71.2789 157.862 72.4009 157.426 73.4392 156.83C79.8448 153.125 85.0446 144.126 85.0446 136.734C85.0412 135.735 84.9189 134.74 84.6804 133.77L85.9364 131.66Z" fill="black"/>
<path d="M77.4882 132.32C71.0764 136.025 65.8828 145.024 65.8828 152.416C65.8828 159.807 71.0764 162.815 77.4882 159.117C83.9001 155.418 89.0937 146.418 89.0937 139.021C89.0937 131.623 83.9001 128.621 77.4882 132.32Z" fill="#BA68C8"/>
<path d="M72.9556 154.187C72.8362 154.187 72.7734 154.118 72.7734 154.011C72.7858 153.893 72.8199 153.778 72.8739 153.672L73.458 152.359C73.4966 152.231 73.5732 152.117 73.6778 152.033C73.7647 151.993 73.8587 151.972 73.9541 151.97C74.4766 151.939 74.9923 151.835 75.4864 151.662C76.1433 151.441 76.7749 151.15 77.3704 150.795C78.297 150.293 79.1095 149.605 79.7568 148.773C80.2422 148.144 80.513 147.376 80.5292 146.582C80.5292 145.194 79.6814 144.993 77.9858 145.954L76.3342 146.952C76.0642 147.103 75.8758 147.159 75.7627 147.109C75.6497 147.059 75.5932 146.908 75.5932 146.657V146.136C75.5842 145.914 75.6434 145.695 75.7627 145.508C75.9139 145.303 76.1093 145.136 76.3342 145.018L77.9733 144.07C78.63 143.712 79.187 143.196 79.5935 142.569C79.9341 142.042 80.1211 141.431 80.1336 140.804C80.1336 139.46 79.1874 139.334 77.295 140.427C76.1313 141.09 75.0834 141.939 74.1927 142.939C74.109 143.034 74.0165 143.12 73.9164 143.197C73.8794 143.214 73.8377 143.219 73.7978 143.21C73.7579 143.2 73.7223 143.178 73.6966 143.146L73.1377 142.518C73.1065 142.489 73.0815 142.454 73.0642 142.416C73.047 142.377 73.0378 142.335 73.0372 142.292C73.0499 142.148 73.112 142.013 73.213 141.909C73.7694 141.213 74.4012 140.582 75.097 140.025C75.9073 139.365 76.7705 138.773 77.6781 138.254C78.4975 137.744 79.4013 137.385 80.3471 137.193C80.6447 137.12 80.9546 137.114 81.2551 137.173C81.5555 137.233 81.8393 137.358 82.0867 137.538C82.3097 137.753 82.4818 138.015 82.5905 138.306C82.6991 138.596 82.7416 138.906 82.7147 139.215C82.7005 139.906 82.5467 140.588 82.2625 141.218C81.959 141.946 81.5343 142.617 81.0065 143.203C81.2776 143.112 81.5672 143.091 81.8484 143.143C82.1296 143.195 82.3931 143.317 82.6142 143.498C82.8077 143.723 82.9545 143.985 83.0462 144.267C83.1378 144.55 83.1724 144.847 83.148 145.143C83.1 146.536 82.6119 147.877 81.7538 148.974C80.7005 150.387 79.3554 151.556 77.81 152.403C75.5994 153.697 73.9813 154.291 72.9556 154.187Z" fill="white"/>
<path d="M182.75 221.602C181.042 219.617 182.562 216.32 184.22 212.044C186.041 207.34 188.854 199.346 188.854 199.346L208.831 195.22C208.831 195.22 230.114 194.811 232.067 198.881C233.649 202.14 219.632 207.045 217.623 207.221L205.32 207.868L204.027 208.496L195.385 219.429L182.75 221.602Z" fill="#BA68C8"/>
<path d="M219.555 202.215C218.004 203.793 216.558 205.471 215.228 207.239C211.63 212.263 205.934 221.388 205.934 221.388C205.934 221.388 206.819 224.277 209.538 224.151C209.538 224.151 228.253 206.674 229.785 205.06C232.102 202.611 233.961 198.573 229.955 198.24C225.948 197.907 221.112 200.532 219.555 202.215Z" fill="#BA68C8"/>
<path d="M215.13 207.34C215.13 207.34 218.471 202.454 221.931 200.432C221.931 200.432 218.49 201.11 213.277 207.453L215.13 207.34Z" fill="#BA68C8"/>
<path opacity="0.1" d="M215.13 207.34C215.13 207.34 218.471 202.454 221.931 200.432C221.931 200.432 218.49 201.11 213.277 207.453L215.13 207.34Z" fill="black"/>
<path d="M217.402 213.52L216.09 213.771L217.308 218.273C217.308 218.273 218.489 218.16 218.897 218.186C219.492 218.044 220.064 217.823 220.599 217.526L220.285 214.776L218.84 213.268L217.402 213.52Z" fill="#FFA8A7"/>
<path d="M227.764 214.581C228.391 214.833 228.958 215.212 229.432 215.694C229.905 216.176 230.274 216.751 230.515 217.382C230.795 218.041 231.023 218.722 231.199 219.416C231.407 220.145 231.306 221.382 230.383 221.583C230.083 221.618 229.779 221.564 229.51 221.426C227.658 220.71 225.849 219.881 223.952 219.278C222.327 218.676 220.625 218.306 218.897 218.179C219.29 217.574 219.486 216.863 219.459 216.143C219.432 215.422 219.183 214.727 218.746 214.154C218.374 213.81 217.905 213.59 217.402 213.526C217.88 213.312 218.326 213.036 218.784 212.778C219.638 212.181 220.683 211.924 221.717 212.056C222.508 212.226 223.111 212.854 223.783 213.312C225.064 214.147 226.301 214.091 227.764 214.581Z" fill="#263238"/>
<path d="M185.442 217.287C187.094 216.778 189.731 216.326 197.556 215.924C205.381 215.522 216.088 213.764 216.088 213.764C217.91 215.516 217.307 218.266 217.307 218.266C217.307 218.266 203.409 222.662 198.881 223.246C191.672 224.176 189.185 224.107 185.932 223.41C182.277 222.625 179.972 218.964 185.442 217.287Z" fill="#BA68C8"/>
<path d="M214.043 180.016L219.921 194.064L215.714 196.651L207.625 182.955L214.043 180.016Z" fill="#F28F8F"/>
<path d="M201.883 166.777C205.098 166.815 208.634 167.983 209.852 170.501L214.876 180.863C214.876 180.863 212.038 185.021 207.529 184.726L201.883 166.777Z" fill="#E0E0E0"/>
<path d="M180.507 188.613C180.545 188.067 181.33 185.398 182.172 182.521L188.276 184.632L186.637 189.8L181.493 194.68C180.379 192.866 180.025 190.686 180.507 188.613Z" fill="#FFA8A7"/>
<path d="M195.309 166.972C191.479 167.895 186.26 169.095 184.746 173.252C183.233 177.409 181.066 184.751 181.066 184.751C181.908 186.208 186.524 187.413 188.125 186.572L188.879 184.06V199.333C191.874 202.592 206.651 201.757 208.855 195.207V174.401C208.855 171.073 207.009 167.073 201.903 166.777L195.309 166.972Z" fill="#FAFAFA"/>
<path d="M188.859 184.073L190.781 178.025L188.859 186.779V184.073Z" fill="#E0E0E0"/>
<path d="M193.851 149.947C193.51 149.902 193.164 149.936 192.837 150.045C192.511 150.153 192.214 150.335 191.967 150.575C191.157 151.404 191.339 152.936 191.967 156.453L194.479 156.735L193.851 149.947Z" fill="#263238"/>
<path d="M208.429 148.93C208.967 148.932 209.499 148.823 209.993 148.609C210.759 148.17 210.96 149.043 210.539 149.796C210.261 150.34 209.848 150.803 209.34 151.141C208.833 151.48 208.246 151.683 207.638 151.731C207.638 151.624 206.922 149.778 206.922 149.778L208.429 148.93Z" fill="#263238"/>
<path d="M195.026 156.773C194.655 156.993 194.121 156.284 193.663 155.8C193.483 155.594 193.254 155.438 192.997 155.345C192.74 155.253 192.464 155.228 192.194 155.272C191.924 155.316 191.67 155.428 191.456 155.597C191.242 155.766 191.074 155.987 190.969 156.24C190.209 157.841 191.936 159.97 192.947 160.673C193.231 160.918 193.585 161.067 193.958 161.098C194.331 161.13 194.705 161.043 195.026 160.849L195.29 166.972C195.737 167.953 196.422 168.808 197.281 169.46C198.14 170.112 199.148 170.541 200.213 170.709C203.805 171.192 203.064 168.228 201.884 166.777V164.535C202.783 164.727 203.707 164.774 204.622 164.674C205.086 164.548 206.204 163.198 206.926 161.684C207.737 159.989 209.087 156.974 207.887 151.869C206.594 146.393 200.709 146.217 197.211 148.434C193.713 150.65 195.026 156.773 195.026 156.773Z" fill="#FFA8A7"/>
<path d="M195.026 157.395C194.838 157.395 194.128 156.221 193.663 155.8C193.035 155.216 193.852 149.947 193.852 149.947C193.852 149.947 193.224 147.944 194.48 146.619C195.736 145.294 198.197 145.513 199.993 145.451C202.194 145.463 204.374 145.025 206.399 144.163C208.949 143.058 209.137 142.907 209.451 144.044C209.765 145.181 209.891 147.724 208.371 149.438L207.542 150.789C207.542 150.789 206.77 151.417 204.402 151.731C202.034 152.045 197.978 150.745 197.494 150.676C196.803 150.581 196.659 151.247 196.288 153.068C195.937 154.67 195.654 157.383 195.026 157.395Z" fill="#263238"/>
<path d="M193.858 150.355L191.609 149.15C191.683 149 191.786 148.867 191.912 148.758C192.038 148.648 192.185 148.565 192.343 148.513C192.502 148.461 192.669 148.441 192.835 148.455C193.001 148.468 193.163 148.514 193.311 148.591C193.611 148.759 193.834 149.036 193.936 149.364C194.037 149.692 194.009 150.047 193.858 150.355Z" fill="#263238"/>
<path d="M201.879 164.536C201.879 164.536 198.551 163.864 197.389 163.28C196.705 162.921 196.145 162.365 195.781 161.685C195.958 162.368 196.27 163.008 196.698 163.569C197.546 164.655 201.879 165.453 201.879 165.453V164.536Z" fill="#F28F8F"/>
<path d="M201.983 156.648C201.978 156.778 201.935 156.904 201.859 157.011C201.783 157.117 201.677 157.198 201.555 157.245C201.433 157.291 201.3 157.301 201.173 157.272C201.046 157.244 200.929 157.179 200.839 157.085C200.748 156.991 200.687 156.872 200.663 156.744C200.64 156.615 200.654 156.483 200.705 156.363C200.756 156.242 200.842 156.14 200.95 156.068C201.059 155.996 201.187 155.957 201.318 155.957C201.407 155.959 201.495 155.978 201.576 156.013C201.658 156.049 201.732 156.1 201.794 156.165C201.855 156.229 201.904 156.304 201.936 156.387C201.969 156.47 201.985 156.559 201.983 156.648Z" fill="#263238"/>
<path d="M201.283 154.136L199.851 154.921C199.752 154.725 199.731 154.498 199.793 154.287C199.855 154.076 199.994 153.897 200.184 153.785C200.278 153.733 200.383 153.701 200.49 153.691C200.597 153.681 200.706 153.693 200.808 153.725C200.911 153.758 201.006 153.812 201.088 153.882C201.169 153.953 201.235 154.039 201.283 154.136Z" fill="#263238"/>
<path d="M201.588 161.107L203.115 161.684C203.081 161.786 203.027 161.88 202.956 161.961C202.885 162.042 202.799 162.107 202.702 162.154C202.606 162.201 202.501 162.228 202.394 162.234C202.286 162.239 202.179 162.223 202.078 162.187C201.873 162.105 201.707 161.947 201.615 161.746C201.524 161.544 201.514 161.315 201.588 161.107Z" fill="#F28F8F"/>
<path d="M207.933 154.689L206.633 153.684C206.694 153.596 206.773 153.523 206.864 153.467C206.955 153.411 207.056 153.373 207.162 153.358C207.267 153.342 207.375 153.347 207.479 153.374C207.582 153.401 207.679 153.449 207.763 153.514C207.937 153.651 208.051 153.849 208.083 154.067C208.114 154.286 208.061 154.508 207.933 154.689Z" fill="#263238"/>
<path d="M207.53 156.459C207.525 156.59 207.482 156.716 207.406 156.822C207.33 156.928 207.224 157.01 207.102 157.056C206.98 157.103 206.847 157.112 206.72 157.084C206.592 157.055 206.476 156.99 206.386 156.896C206.295 156.802 206.234 156.684 206.21 156.555C206.187 156.427 206.201 156.294 206.252 156.174C206.303 156.054 206.388 155.951 206.497 155.879C206.606 155.807 206.734 155.769 206.864 155.769C206.953 155.77 207.041 155.789 207.123 155.825C207.205 155.861 207.279 155.912 207.34 155.976C207.402 156.04 207.451 156.116 207.483 156.199C207.516 156.282 207.532 156.37 207.53 156.459Z" fill="#263238"/>
<path d="M204.39 156.378L203.762 160.347L205.96 160.089L204.39 156.378Z" fill="#F28F8F"/>
<path d="M227.298 201.449L213.765 193.637C213.646 193.569 213.512 193.533 213.375 193.533C213.239 193.533 213.105 193.569 212.986 193.637L189.254 207.34L203.17 215.403L227.298 201.449Z" fill="#37474F"/>
<path d="M203.047 214.23L195.75 210.023L217.089 197.701L224.424 201.89L203.047 214.23Z" fill="#263238"/>
<path d="M199.461 202.523L199.599 202.599L203.172 204.665L209.534 200.991L209.666 200.916L205.954 198.774L199.461 202.523Z" fill="#263238"/>
<path d="M199.598 202.599L203.171 204.665L209.533 200.991L205.953 198.925L199.598 202.599Z" fill="#263238"/>
<path d="M189.254 207.339V207.659C189.252 207.886 189.309 208.109 189.419 208.307C189.529 208.505 189.689 208.672 189.882 208.79L202.492 216.068C202.691 216.184 202.916 216.244 203.145 216.244C203.375 216.244 203.6 216.184 203.798 216.068L226.62 202.88C226.813 202.762 226.972 202.595 227.082 202.397C227.192 202.199 227.249 201.976 227.248 201.75V201.43L203.17 215.403L189.254 207.339Z" fill="#263238"/>
<path d="M203.172 215.404V216.27C203.393 216.268 203.61 216.207 203.8 216.094L226.621 202.906C226.814 202.788 226.973 202.622 227.083 202.424C227.193 202.226 227.251 202.003 227.249 201.776V201.456L203.172 215.404Z" fill="#263238"/>
<path d="M203.543 215.573C203.759 215.656 203.99 215.689 204.221 215.67C204.451 215.652 204.674 215.582 204.874 215.466L227.595 202.347C227.792 202.234 227.962 202.079 228.091 201.892C228.22 201.705 228.306 201.492 228.343 201.267L230.855 186.44C230.861 186.355 230.861 186.268 230.855 186.183C230.853 185.77 230.689 185.375 230.396 185.084L206.783 198.718C206.638 198.802 206.513 198.917 206.418 199.054C206.322 199.192 206.258 199.35 206.231 199.515L203.543 215.573Z" fill="#263238"/>
<path d="M203.172 215.403L203.329 215.491C203.398 215.531 203.469 215.566 203.542 215.598L206.23 199.54C206.258 199.375 206.322 199.217 206.417 199.079C206.513 198.942 206.638 198.827 206.783 198.743L230.396 185.109C230.299 185.019 230.194 184.939 230.082 184.87L206.425 198.504C206.279 198.588 206.153 198.703 206.057 198.841C205.96 198.978 205.895 199.136 205.866 199.302L203.172 215.403Z" fill="#455A64"/>
<path d="M216.335 201.876C216.692 200.637 217.513 199.582 218.627 198.931C219.726 198.303 220.48 198.586 220.316 199.559C219.959 200.799 219.138 201.853 218.024 202.504C216.925 203.164 216.171 202.844 216.335 201.876Z" fill="#37474F"/>
<path d="M186.636 189.788C186.636 189.788 190.711 205.488 192.432 206.612C194.153 207.736 197.355 208.559 198.888 209.124C200.42 209.689 201.117 210.461 200.853 210.675C200.59 210.889 198.379 211.121 197.613 211.391C196.847 211.661 197.839 212.898 199.535 214.211C201.23 215.523 202.675 215.404 202.486 216.277C202.298 217.15 198.517 218.023 195.327 216.151C192.137 214.28 191.17 211.755 189.267 209.614C187.364 207.472 183.018 198.573 181.492 194.68C181.492 194.68 181.637 187.445 184.004 187.904C186.372 188.362 186.636 189.788 186.636 189.788Z" fill="#FFA8A7"/>
<path d="M206.027 221.602C206.316 222.299 207.315 224.221 209.538 224.114L215.001 219.002L206.027 221.602Z" fill="#BA68C8"/>
<path opacity="0.1" d="M206.027 221.602C206.316 222.299 207.315 224.221 209.538 224.114L215.001 219.002L206.027 221.602Z" fill="black"/>
<path d="M209.328 224.723C209.331 224.746 209.331 224.769 209.328 224.792C209.331 224.769 209.331 224.746 209.328 224.723Z" fill="#263238"/>
<path d="M207.679 230.594C207.627 228.95 207.898 227.311 208.477 225.771C208.214 225.955 207.911 226.073 207.592 226.114C207.274 226.156 206.951 226.12 206.649 226.01C204.822 225.464 204.364 222.914 204.652 222.361C204.389 222.594 204.112 222.813 203.842 223.04C202.976 223.621 202.36 224.506 202.115 225.52C201.99 226.318 202.36 227.103 202.542 227.894C202.894 229.401 202.542 230.971 202.486 232.516C202.499 233.19 202.649 233.855 202.929 234.468C203.209 235.082 203.612 235.631 204.112 236.083C204.627 236.585 205.182 237.045 205.77 237.458C205.985 237.699 206.268 237.868 206.582 237.941C206.896 238.013 207.225 237.987 207.523 237.865C207.822 237.743 208.075 237.532 208.248 237.26C208.421 236.988 208.505 236.669 208.49 236.347C208.251 234.388 207.792 232.635 207.679 230.594Z" fill="#263238"/>
<path d="M209.753 223.787C209.583 224.108 209.433 224.415 209.301 224.723C209.458 224.422 209.608 224.108 209.753 223.787Z" fill="#37474F"/>
<path d="M204.641 222.362L204.76 222.255L204.641 222.362Z" fill="#37474F"/>
</svg>
