<svg width="13" height="13" viewBox="0 0 13 13" fill="none" xmlns="http://www.w3.org/2000/svg">
<path d="M6.41667 4.66667C7.37917 4.66667 8.16667 5.45417 8.16667 6.41667C8.16667 7.37917 7.37917 8.16667 6.41667 8.16667C5.45417 8.16667 4.66667 7.37917 4.66667 6.41667C4.66667 5.45417 5.45417 4.66667 6.41667 4.66667ZM6.41667 3.5C4.80667 3.5 3.5 4.80667 3.5 6.41667C3.5 8.02667 4.80667 9.33333 6.41667 9.33333C8.02667 9.33333 9.33333 8.02667 9.33333 6.41667C9.33333 4.80667 8.02667 3.5 6.41667 3.5ZM0.583333 7H1.75C2.07083 7 2.33333 6.7375 2.33333 6.41667C2.33333 6.09583 2.07083 5.83333 1.75 5.83333H0.583333C0.2625 5.83333 0 6.09583 0 6.41667C0 6.7375 0.2625 7 0.583333 7ZM11.0833 7H12.25C12.5708 7 12.8333 6.7375 12.8333 6.41667C12.8333 6.09583 12.5708 5.83333 12.25 5.83333H11.0833C10.7625 5.83333 10.5 6.09583 10.5 6.41667C10.5 6.7375 10.7625 7 11.0833 7ZM5.83333 0.583333V1.75C5.83333 2.07083 6.09583 2.33333 6.41667 2.33333C6.7375 2.33333 7 2.07083 7 1.75V0.583333C7 0.2625 6.7375 0 6.41667 0C6.09583 0 5.83333 0.2625 5.83333 0.583333ZM5.83333 11.0833V12.25C5.83333 12.5708 6.09583 12.8333 6.41667 12.8333C6.7375 12.8333 7 12.5708 7 12.25V11.0833C7 10.7625 6.7375 10.5 6.41667 10.5C6.09583 10.5 5.83333 10.7625 5.83333 11.0833ZM2.91083 2.08833C2.68333 1.86083 2.31 1.86083 2.08833 2.08833C1.86083 2.31583 1.86083 2.68917 2.08833 2.91083L2.70667 3.52917C2.93417 3.75667 3.3075 3.75667 3.52917 3.52917C3.75083 3.30167 3.75667 2.92833 3.52917 2.70667L2.91083 2.08833ZM10.1267 9.30417C9.89917 9.07667 9.52583 9.07667 9.30417 9.30417C9.07667 9.53167 9.07667 9.905 9.30417 10.1267L9.9225 10.745C10.15 10.9725 10.5233 10.9725 10.745 10.745C10.9725 10.5175 10.9725 10.1442 10.745 9.9225L10.1267 9.30417ZM10.745 2.91083C10.9725 2.68333 10.9725 2.31 10.745 2.08833C10.5175 1.86083 10.1442 1.86083 9.9225 2.08833L9.30417 2.70667C9.07667 2.93417 9.07667 3.3075 9.30417 3.52917C9.53167 3.75083 9.905 3.75667 10.1267 3.52917L10.745 2.91083ZM3.52917 10.1267C3.75667 9.89917 3.75667 9.52583 3.52917 9.30417C3.30167 9.07667 2.92833 9.07667 2.70667 9.30417L2.08833 9.9225C1.86083 10.15 1.86083 10.5233 2.08833 10.745C2.31583 10.9667 2.68917 10.9725 2.91083 10.745L3.52917 10.1267Z" fill="black" fill-opacity="0.4"/>
</svg>
