<svg width="18" height="18" viewBox="0 0 18 18" fill="none" xmlns="http://www.w3.org/2000/svg">
<path d="M15.6667 13.1666C16.1087 13.1666 16.5326 12.991 16.8452 12.6785C17.1577 12.3659 17.3333 11.942 17.3333 11.5V2.33329C17.3333 1.89127 17.1577 1.46734 16.8452 1.15478C16.5326 0.842221 16.1087 0.666626 15.6667 0.666626H6.88333C7.175 1.17496 7.33333 1.74996 7.33333 2.33329H15.6667V11.5H8.16667V13.1666H15.6667ZM11.5 4.83329V6.49996H6.5V17.3333H4.83333V12.3333H3.16667V17.3333H1.5V10.6666H0.25V6.49996C0.25 6.05793 0.425595 5.63401 0.738155 5.32145C1.05072 5.00889 1.47464 4.83329 1.91667 4.83329H11.5ZM5.66667 2.33329C5.66667 2.77532 5.49107 3.19924 5.17851 3.5118C4.86595 3.82436 4.44203 3.99996 4 3.99996C3.55797 3.99996 3.13405 3.82436 2.82149 3.5118C2.50893 3.19924 2.33333 2.77532 2.33333 2.33329C2.33333 1.89127 2.50893 1.46734 2.82149 1.15478C3.13405 0.842221 3.55797 0.666626 4 0.666626C4.44203 0.666626 4.86595 0.842221 5.17851 1.15478C5.49107 1.46734 5.66667 1.89127 5.66667 2.33329Z" fill="white"/>
</svg>
