<svg width="18" height="17" viewBox="0 0 18 17" fill="none" xmlns="http://www.w3.org/2000/svg">
<path d="M10.666 3.99996V2.33329H7.33268V3.99996H10.666ZM2.33268 5.66663V14.8333H15.666V5.66663H2.33268ZM15.666 3.99996C16.591 3.99996 17.3327 4.74163 17.3327 5.66663V14.8333C17.3327 15.7583 16.591 16.5 15.666 16.5H2.33268C1.40768 16.5 0.666016 15.7583 0.666016 14.8333L0.674349 5.66663C0.674349 4.74163 1.40768 3.99996 2.33268 3.99996H5.66602V2.33329C5.66602 1.40829 6.40768 0.666626 7.33268 0.666626H10.666C11.591 0.666626 12.3327 1.40829 12.3327 2.33329V3.99996H15.666Z" fill="white"/>
</svg>
