<svg width="14" height="14" viewBox="0 0 14 14" fill="none" xmlns="http://www.w3.org/2000/svg">
<path d="M6.89409 3.97642C7.52812 3.97642 8.0421 3.46244 8.0421 2.82842C8.0421 2.1944 7.52812 1.68042 6.89409 1.68042C6.26007 1.68042 5.74609 2.1944 5.74609 2.82842C5.74609 3.46244 6.26007 3.97642 6.89409 3.97642Z" fill="black" fill-opacity="0.4"/>
<path d="M10.1006 7.57415L9.33478 4.71619C9.33436 4.71395 9.33352 4.71185 9.33296 4.70961L9.31952 4.65935L9.31756 4.65991C9.2477 4.44207 9.04596 4.28331 8.80488 4.28331C8.80306 4.28331 8.80124 4.28387 8.79942 4.28387V4.27393H5.19512V4.28331C4.95404 4.28331 4.7523 4.44207 4.68244 4.65991L4.68048 4.65935L4.66704 4.70947C4.66648 4.71185 4.66564 4.71395 4.66522 4.71633L3.89942 7.57415L3.9067 7.57611C3.9032 7.59977 3.89942 7.62329 3.89942 7.64793C3.89906 7.76164 3.9385 7.87189 4.0109 7.95958C4.08331 8.04726 4.18411 8.10685 4.29583 8.12801C4.40756 8.14917 4.52317 8.13058 4.62262 8.07544C4.72208 8.02031 4.79911 7.93211 4.84036 7.82615L4.84372 7.82699L5.40554 5.73063V5.73861H5.40988C5.42528 5.66959 5.48394 5.61695 5.55744 5.61695C5.63108 5.61695 5.68974 5.66973 5.70514 5.73861H5.70976V5.76115C5.71004 5.76465 5.71172 5.76759 5.71172 5.77109C5.71172 5.77459 5.7099 5.77753 5.70976 5.78103V5.80245L4.8104 9.15937C4.7956 9.18948 4.78684 9.2222 4.78464 9.25569L4.78268 9.26283L4.7838 9.26311C4.78366 9.26689 4.78268 9.27053 4.78268 9.27445C4.78268 9.30884 4.78945 9.34289 4.80262 9.37467C4.81578 9.40644 4.83508 9.4353 4.85941 9.45962C4.88373 9.48393 4.91261 9.50321 4.94439 9.51636C4.97617 9.52951 5.01022 9.53626 5.04462 9.53625H5.70976V11.7551C5.70976 11.9048 5.76923 12.0484 5.87509 12.1543C5.98095 12.2601 6.12453 12.3196 6.27424 12.3196C6.42395 12.3196 6.56752 12.2601 6.67338 12.1543C6.77924 12.0484 6.83872 11.9048 6.83872 11.7551V9.53625H7.15974V11.7551C7.16207 11.9033 7.22258 12.0446 7.3282 12.1486C7.43382 12.2526 7.57608 12.3108 7.72429 12.3108C7.87249 12.3108 8.01476 12.2526 8.12038 12.1486C8.226 12.0446 8.2865 11.9033 8.28884 11.7551V9.53625H8.95594C8.99033 9.53626 9.02439 9.52951 9.05617 9.51636C9.08795 9.50321 9.11682 9.48393 9.14115 9.45962C9.16547 9.4353 9.18477 9.40644 9.19794 9.37467C9.2111 9.34289 9.21788 9.30884 9.21788 9.27445C9.21788 9.27053 9.2169 9.26689 9.21676 9.26311L9.21788 9.26283L9.21592 9.25569C9.21358 9.22223 9.20483 9.18953 9.19016 9.15937L8.2936 5.81281L8.29654 5.81197C8.29276 5.79867 8.28828 5.78565 8.28828 5.77123C8.28828 5.68611 8.3573 5.61695 8.44256 5.61695C8.51508 5.61695 8.57304 5.66805 8.58956 5.73553L8.59544 5.73399L9.15628 7.82713L9.15964 7.82629C9.20089 7.93225 9.27792 8.02045 9.37737 8.07558C9.47682 8.13072 9.59243 8.14931 9.70416 8.12815C9.81589 8.10699 9.91669 8.0474 9.98909 7.95972C10.0615 7.87203 10.1009 7.76178 10.1006 7.64807C10.1006 7.62343 10.0968 7.59991 10.0933 7.57625L10.1006 7.57415Z" fill="black" fill-opacity="0.4"/>
</svg>
