<svg width="70" height="70" viewBox="0 0 70 70" fill="none" xmlns="http://www.w3.org/2000/svg">
<path d="M61.0818 38.0237C60.2082 37.3489 59.3164 36.6951 58.7914 35.7193C56.1314 30.7815 61.6684 25.0051 58.5954 19.6543C57.0358 16.9397 53.96 14.9531 50.9584 16.0815C47.7594 17.2855 44.7396 18.5427 41.2984 17.5473C35.2784 15.8029 32.1522 7.64088 25.5946 7.77808C20.2116 7.89008 14.221 13.5601 17.3346 19.4443C19.6936 23.8963 18.2194 27.5811 12.7636 28.3483C7.30781 29.1155 4.96141 35.5597 6.57841 38.3275C8.19541 41.0953 11.295 44.0073 8.34661 45.2351C5.39821 46.4629 4.36641 50.4543 4.66181 53.2151C4.95721 55.9759 5.54521 57.0525 5.54521 57.0525H62.136C62.136 57.0525 64.523 53.9823 64.817 46.9221C64.9458 43.8617 64.3116 40.8643 61.9988 38.7713C61.7062 38.5109 61.3954 38.2659 61.0818 38.0237Z" fill="url(#paint0_linear_2572_8682)"/>
<path opacity="0.7" d="M61.0818 38.0237C60.2082 37.3489 59.3164 36.6951 58.7914 35.7193C56.1314 30.7815 61.6684 25.0051 58.5954 19.6543C57.0358 16.9397 53.96 14.9531 50.9584 16.0815C47.7594 17.2855 44.7396 18.5427 41.2984 17.5473C35.2784 15.8029 32.1522 7.64088 25.5946 7.77808C20.2116 7.89008 14.221 13.5601 17.3346 19.4443C19.6936 23.8963 18.2194 27.5811 12.7636 28.3483C7.30781 29.1155 4.96141 35.5597 6.57841 38.3275C8.19541 41.0953 11.295 44.0073 8.34661 45.2351C5.39821 46.4629 4.36641 50.4543 4.66181 53.2151C4.95721 55.9759 5.54521 57.0525 5.54521 57.0525H62.136C62.136 57.0525 64.523 53.9823 64.817 46.9221C64.9458 43.8617 64.3116 40.8643 61.9988 38.7713C61.7062 38.5109 61.3954 38.2659 61.0818 38.0237Z" fill="white"/>
<path d="M34.378 61.6003C40.2929 61.6003 45.088 61.0989 45.088 60.4803C45.088 59.8618 40.2929 59.3604 34.378 59.3604C28.463 59.3604 23.668 59.8618 23.668 60.4803C23.668 61.0989 28.463 61.6003 34.378 61.6003Z" fill="url(#paint1_linear_2572_8682)"/>
<path opacity="0.5" d="M34.378 61.6003C40.2929 61.6003 45.088 61.0989 45.088 60.4803C45.088 59.8618 40.2929 59.3604 34.378 59.3604C28.463 59.3604 23.668 59.8618 23.668 60.4803C23.668 61.0989 28.463 61.6003 34.378 61.6003Z" fill="white"/>
<path d="M58.5806 51.2263V49.5169H56.6738V46.2003H53.934V32.7295H51.3132V40.8719H48.9304V37.9571H45.7146V45.4961H44.4042V47.9083H41.3074V47.0039H42.2594V46.5013H38.3282V47.1047H38.8056V49.7185H36.7798V44.7919H29.6328V48.3101H24.5088V45.6963H22.6034V48.6125H18.5532V43.2841H16.8858V41.4753H13.9066V49.7185H10.9288V51.5273H9.02344V57.0559H62.2738V51.2263H58.5806Z" stroke="#2E353A" stroke-miterlimit="10"/>
<path d="M15.0776 43.2607H14.4336V43.9048H15.0776V43.2607Z" fill="#2E353A"/>
<path d="M16.4213 43.2607H15.7773V43.9048H16.4213V43.2607Z" fill="#2E353A"/>
<path d="M15.0776 44.6025H14.4336V45.2465H15.0776V44.6025Z" fill="#2E353A"/>
<path d="M16.4213 44.6025H15.7773V45.2465H16.4213V44.6025Z" fill="#2E353A"/>
<path d="M17.8706 44.6025H17.2266V45.2465H17.8706V44.6025Z" fill="#2E353A"/>
<path d="M17.8706 45.9443H17.2266V46.5883H17.8706V45.9443Z" fill="#2E353A"/>
<path d="M17.8706 47.2871H17.2266V47.9311H17.8706V47.2871Z" fill="#2E353A"/>
<path d="M17.8706 48.6279H17.2266V49.2719H17.8706V48.6279Z" fill="#2E353A"/>
<path d="M17.8706 49.9707H17.2266V50.6147H17.8706V49.9707Z" fill="#2E353A"/>
<path d="M17.8706 51.3135H17.2266V51.9575H17.8706V51.3135Z" fill="#2E353A"/>
<path d="M15.0776 45.9443H14.4336V46.5883H15.0776V45.9443Z" fill="#2E353A"/>
<path d="M16.4213 45.9443H15.7773V46.5883H16.4213V45.9443Z" fill="#2E353A"/>
<path d="M15.0776 47.2871H14.4336V47.9311H15.0776V47.2871Z" fill="#2E353A"/>
<path d="M16.4213 47.2871H15.7773V47.9311H16.4213V47.2871Z" fill="#2E353A"/>
<path d="M15.0776 48.6279H14.4336V49.2719H15.0776V48.6279Z" fill="#2E353A"/>
<path d="M16.4213 48.6279H15.7773V49.2719H16.4213V48.6279Z" fill="#2E353A"/>
<path d="M15.0776 49.9707H14.4336V50.6147H15.0776V49.9707Z" fill="#2E353A"/>
<path d="M12.1245 50.7227H11.4805V51.3666H12.1245V50.7227Z" fill="#2E353A"/>
<path d="M21.4135 49.2715H20.7695V49.9155H21.4135V49.2715Z" fill="#2E353A"/>
<path d="M22.6987 49.2715H22.0547V49.9155H22.6987V49.2715Z" fill="#2E353A"/>
<path d="M52.3862 33.4893H51.7422V34.1333H52.3862V33.4893Z" fill="#2E353A"/>
<path d="M53.1909 33.4893H52.5469V34.1333H53.1909V33.4893Z" fill="#2E353A"/>
<path d="M52.3862 34.832H51.7422V35.476H52.3862V34.832Z" fill="#2E353A"/>
<path d="M53.1909 34.832H52.5469V35.476H53.1909V34.832Z" fill="#2E353A"/>
<path d="M52.3862 36.1748H51.7422V36.8188H52.3862V36.1748Z" fill="#2E353A"/>
<path d="M53.1909 36.1748H52.5469V36.8188H53.1909V36.1748Z" fill="#2E353A"/>
<path d="M52.3862 37.5156H51.7422V38.1596H52.3862V37.5156Z" fill="#2E353A"/>
<path d="M53.1909 37.5156H52.5469V38.1596H53.1909V37.5156Z" fill="#2E353A"/>
<path d="M52.3862 38.8584H51.7422V39.5024H52.3862V38.8584Z" fill="#2E353A"/>
<path d="M53.1909 38.8584H52.5469V39.5024H53.1909V38.8584Z" fill="#2E353A"/>
<path d="M52.3862 40.2002H51.7422V40.8442H52.3862V40.2002Z" fill="#2E353A"/>
<path d="M53.1909 40.2002H52.5469V40.8442H53.1909V40.2002Z" fill="#2E353A"/>
<path d="M52.3862 41.543H51.7422V42.187H52.3862V41.543Z" fill="#2E353A"/>
<path d="M53.1909 41.543H52.5469V42.187H53.1909V41.543Z" fill="#2E353A"/>
<path d="M52.3862 42.8848H51.7422V43.5288H52.3862V42.8848Z" fill="#2E353A"/>
<path d="M53.1909 42.8848H52.5469V43.5288H53.1909V42.8848Z" fill="#2E353A"/>
<path d="M52.3862 44.2266H51.7422V44.8706H52.3862V44.2266Z" fill="#2E353A"/>
<path d="M53.1909 44.2266H52.5469V44.8706H53.1909V44.2266Z" fill="#2E353A"/>
<path d="M46.9096 44.2266H46.2656V44.8706H46.9096V44.2266Z" fill="#2E353A"/>
<path d="M48.3042 44.2266H47.6602V44.8706H48.3042V44.2266Z" fill="#2E353A"/>
<path d="M49.7026 44.2266H49.0586V44.8706H49.7026V44.2266Z" fill="#2E353A"/>
<path d="M46.9096 47.126H46.2656V47.77H46.9096V47.126Z" fill="#2E353A"/>
<path d="M48.3042 47.126H47.6602V47.77H48.3042V47.126Z" fill="#2E353A"/>
<path d="M49.7026 47.126H49.0586V47.77H49.7026V47.126Z" fill="#2E353A"/>
<path d="M46.9096 50.0234H46.2656V50.6674H46.9096V50.0234Z" fill="#2E353A"/>
<path d="M48.3042 50.0234H47.6602V50.6674H48.3042V50.0234Z" fill="#2E353A"/>
<path d="M49.7026 50.0234H49.0586V50.6674H49.7026V50.0234Z" fill="#2E353A"/>
<path d="M52.3862 45.5693H51.7422V46.2133H52.3862V45.5693Z" fill="#2E353A"/>
<path d="M53.1909 45.5693H52.5469V46.2133H53.1909V45.5693Z" fill="#2E353A"/>
<path d="M52.3862 46.9102H51.7422V47.5542H52.3862V46.9102Z" fill="#2E353A"/>
<path d="M53.1909 46.9102H52.5469V47.5542H53.1909V46.9102Z" fill="#2E353A"/>
<path d="M52.3862 48.2529H51.7422V48.8969H52.3862V48.2529Z" fill="#2E353A"/>
<path d="M53.1909 48.2529H52.5469V48.8969H53.1909V48.2529Z" fill="#2E353A"/>
<path d="M54.5346 46.9102H53.8906V47.5542H54.5346V46.9102Z" fill="#2E353A"/>
<path d="M56.0385 46.9102H55.3945V47.5542H56.0385V46.9102Z" fill="#2E353A"/>
<path d="M54.5346 48.1992H53.8906V48.8432H54.5346V48.1992Z" fill="#2E353A"/>
<path d="M56.0385 48.1992H55.3945V48.8432H56.0385V48.1992Z" fill="#2E353A"/>
<path d="M54.5346 49.4873H53.8906V50.1313H54.5346V49.4873Z" fill="#2E353A"/>
<path d="M56.0385 49.4873H55.3945V50.1313H56.0385V49.4873Z" fill="#2E353A"/>
<path d="M54.5346 50.7754H53.8906V51.4194H54.5346V50.7754Z" fill="#2E353A"/>
<path d="M56.0385 50.7754H55.3945V51.4194H56.0385V50.7754Z" fill="#2E353A"/>
<path d="M52.3862 49.5957H51.7422V50.2397H52.3862V49.5957Z" fill="#2E353A"/>
<path d="M53.1909 49.5957H52.5469V50.2397H53.1909V49.5957Z" fill="#2E353A"/>
<path d="M52.3862 50.9365H51.7422V51.5805H52.3862V50.9365Z" fill="#2E353A"/>
<path d="M53.1909 50.9365H52.5469V51.5805H53.1909V50.9365Z" fill="#2E353A"/>
<path d="M16.4213 49.9707H15.7773V50.6147H16.4213V49.9707Z" fill="#2E353A"/>
<path d="M15.0776 51.3135H14.4336V51.9575H15.0776V51.3135Z" fill="#2E353A"/>
<path d="M16.4213 51.3135H15.7773V51.9575H16.4213V51.3135Z" fill="#2E353A"/>
<path d="M15.0776 52.6543H14.4336V53.2983H15.0776V52.6543Z" fill="#2E353A"/>
<path d="M16.4213 52.6543H15.7773V53.2983H16.4213V52.6543Z" fill="#2E353A"/>
<path d="M15.0776 53.9971H14.4336V54.6411H15.0776V53.9971Z" fill="#2E353A"/>
<path d="M16.4213 53.9971H15.7773V54.6411H16.4213V53.9971Z" fill="#2E353A"/>
<path d="M50.3442 54.4004V57.0562H44.9766V51.7754H50.3442V53.9272" stroke="#2E353A" stroke-miterlimit="10"/>
<path d="M60.2245 56.254V57.0562H54.8555V54.2646H55.9643" stroke="#2E353A" stroke-miterlimit="10"/>
<path d="M56.6172 54.2646H60.2236V55.8187" stroke="#2E353A" stroke-miterlimit="10"/>
<path d="M20.657 54.2646H24.4706V57.0562H19.1016V54.2646H20.1474" stroke="#2E353A" stroke-miterlimit="10"/>
<path d="M12.2622 54.2646H12.7718V57.0562H10.7852V54.2646H11.8618" stroke="#2E353A" stroke-miterlimit="10"/>
<path d="M48.0887 51.7754H47.2305V57.0562H48.0887V51.7754Z" stroke="#2E353A" stroke-miterlimit="10"/>
<path d="M41.4209 52.4935H40.5781V51.0977H43.4229V52.4935H42.1853" stroke="#2E353A" stroke-miterlimit="10"/>
<path d="M26.3527 50.1318H23.0781V51.3134H26.3527V50.1318Z" stroke="#2E353A" stroke-miterlimit="10"/>
<path d="M24.9548 50.1318H24.6328V57.0562H24.9548V50.1318Z" stroke="#2E353A" stroke-miterlimit="10"/>
<path d="M34.9975 8.06836C30.2077 8.06836 25.6141 9.9711 22.2271 13.358C18.8402 16.7449 16.9375 21.3386 16.9375 26.1284C16.9375 35.1374 33.5975 56.3684 33.5975 56.3684H34.9975C34.9975 56.3684 53.0575 36.102 53.0575 26.1284C53.0575 21.3386 51.1547 16.7449 47.7678 13.358C44.3809 9.9711 39.7873 8.06836 34.9975 8.06836ZM34.9975 34.9484C33.2531 34.9484 31.5478 34.4311 30.0974 33.4619C28.6469 32.4928 27.5164 31.1153 26.8489 29.5036C26.1813 27.892 26.0066 26.1186 26.347 24.4077C26.6873 22.6968 27.5273 21.1252 28.7608 19.8917C29.9943 18.6582 31.5659 17.8182 33.2768 17.4778C34.9877 17.1375 36.7611 17.3122 38.3728 17.9797C39.9844 18.6473 41.3619 19.7778 42.3311 21.2282C43.3002 22.6787 43.8175 24.3839 43.8175 26.1284C43.8175 27.2866 43.5894 28.4335 43.1461 29.5036C42.7029 30.5737 42.0532 31.546 41.2342 32.365C40.4152 33.1841 39.4429 33.8337 38.3728 34.277C37.3027 34.7202 36.1558 34.9484 34.9975 34.9484Z" fill="#2E353A" stroke="#2E353A" stroke-linecap="round" stroke-linejoin="round"/>
<path d="M33.5991 8.06836C28.8092 8.06836 24.2156 9.9711 20.8287 13.358C17.4418 16.7449 15.5391 21.3386 15.5391 26.1284C15.5391 36.102 33.5991 56.3684 33.5991 56.3684C33.5991 56.3684 51.659 36.102 51.659 26.1284C51.659 21.3386 49.7563 16.7449 46.3694 13.358C42.9825 9.9711 38.3889 8.06836 33.5991 8.06836ZM33.5991 34.9484C31.8546 34.9484 30.1494 34.4311 28.6989 33.4619C27.2485 32.4928 26.118 31.1153 25.4504 29.5036C24.7829 27.892 24.6082 26.1186 24.9485 24.4077C25.2889 22.6968 26.1289 21.1252 27.3624 19.8917C28.5959 18.6582 30.1674 17.8182 31.8784 17.4778C33.5893 17.1375 35.3627 17.3122 36.9743 17.9797C38.586 18.6473 39.9635 19.7778 40.9326 21.2282C41.9018 22.6787 42.4191 24.3839 42.4191 26.1284C42.4191 28.4676 41.4898 30.711 39.8357 32.365C38.1817 34.0191 35.9383 34.9484 33.5991 34.9484Z" fill="url(#paint2_linear_2572_8682)" stroke="#2E353A" stroke-linecap="round" stroke-linejoin="round"/>
<path d="M27.918 37.1352L29.913 33.7402L29.948 34.9652L28.758 37.3452L27.918 37.1352Z" fill="white" stroke="#2E353A" stroke-linecap="round" stroke-linejoin="round"/>
<path d="M29.9502 48.6045C29.8379 49.1956 29.58 49.7495 29.1998 50.2159C28.5628 51.0041 27.7004 52.5413 27.6598 54.0029C27.6192 55.4645 25.9336 59.5091 26.1198 59.8087C26.306 60.1083 27.9566 60.5213 28.5936 60.5213C28.9282 60.5213 29.4826 60.6501 29.7038 60.3239C29.7164 60.3057 28.3948 59.6239 28.3038 59.5581C28.2128 59.4923 27.4764 58.9743 27.5002 58.9085C27.5002 58.9085 29.2278 54.2269 30.0902 53.0285C30.9526 51.8301 31.5896 50.9285 31.8514 50.1795C32.1132 49.4305 32.3484 48.7207 32.3484 48.7207L29.9502 48.6045Z" fill="white"/>
<g style="mix-blend-mode:multiply">
<path d="M29.4805 49.8151C30.206 50.1258 30.9681 50.3426 31.7485 50.4605C31.7905 50.3639 31.8283 50.2701 31.8605 50.1805C32.1237 49.4301 32.3477 48.7175 32.3477 48.7175L29.9495 48.6055C29.8694 49.0342 29.7103 49.4444 29.4805 49.8151Z" fill="url(#paint3_linear_2572_8682)"/>
</g>
<path d="M29.9502 48.6045C29.8379 49.1956 29.58 49.7495 29.1998 50.2159C28.5628 51.0041 27.7004 52.5413 27.6598 54.0029C27.6192 55.4645 25.9336 59.5091 26.1198 59.8087C26.306 60.1083 27.9566 60.5213 28.5936 60.5213C28.9282 60.5213 29.4826 60.6501 29.7038 60.3239C29.7164 60.3057 28.3948 59.6239 28.3038 59.5581C28.2128 59.4923 27.4764 58.9743 27.5002 58.9085C27.5002 58.9085 29.2278 54.2269 30.0902 53.0285C30.9526 51.8301 31.5896 50.9285 31.8514 50.1795C32.1132 49.4305 32.3484 48.7207 32.3484 48.7207L29.9502 48.6045Z" stroke="#2E353A" stroke-linecap="round" stroke-linejoin="round"/>
<path d="M35.375 48.9104C35.7406 49.3888 35.9812 49.9509 36.075 50.5456C36.2332 51.5466 36.7988 53.2154 37.8614 54.222C38.924 55.2286 40.8014 59.4622 41.1486 59.5224C41.556 59.5952 42.1776 59.0744 42.48 58.863C42.865 58.5942 43.7484 58.0454 43.88 57.5708C44.0382 57.0248 43.4768 57.2992 43.2402 57.4756C42.9336 57.7038 41.4034 57.8956 41.4034 57.8956C41.4034 57.8956 39.078 53.2 38.7644 51.758C38.4508 50.316 38.2044 49.238 37.825 48.538C37.4456 47.838 37.0648 47.1982 37.0648 47.1982L35.375 48.9104Z" fill="white"/>
<g style="mix-blend-mode:multiply">
<path d="M37.825 48.5429C37.4428 47.8429 37.0634 47.2031 37.0634 47.2031L35.375 48.9111C35.6616 49.2861 35.8706 49.7144 35.9896 50.1711C36.7515 50.0354 37.5008 49.8364 38.2296 49.5761C38.1302 49.2188 37.9947 48.8727 37.825 48.5429Z" fill="url(#paint4_linear_2572_8682)"/>
</g>
<path d="M35.375 48.9104C35.7406 49.3888 35.9812 49.9509 36.075 50.5456C36.2332 51.5466 36.7988 53.2154 37.8614 54.222C38.924 55.2286 40.8014 59.4622 41.1486 59.5224C41.556 59.5952 42.1776 59.0744 42.48 58.863C42.865 58.5942 43.7484 58.0454 43.88 57.5708C44.0382 57.0248 43.4768 57.2992 43.2402 57.4756C42.9336 57.7038 41.4034 57.8956 41.4034 57.8956C41.4034 57.8956 39.078 53.2 38.7644 51.758C38.4508 50.316 38.2044 49.238 37.825 48.538C37.4456 47.838 37.0648 47.1982 37.0648 47.1982L35.375 48.9104Z" stroke="#2E353A" stroke-linecap="round" stroke-linejoin="round"/>
<path d="M43.8821 57.5714C44.0403 57.0254 43.4789 57.2998 43.2423 57.4762C42.9357 57.7044 41.4055 57.8962 41.4055 57.8962C41.4055 57.8962 41.2403 57.5322 40.9995 56.9834C40.7013 57.2192 40.3714 57.412 40.0195 57.556C40.5445 58.5906 40.9799 59.4992 41.1507 59.5286C41.5581 59.6014 42.1797 59.0806 42.4821 58.8692C42.8629 58.5948 43.7463 58.046 43.8821 57.5714Z" fill="white" stroke="#2E353A" stroke-linecap="round" stroke-linejoin="round"/>
<path d="M29.9998 41.1224L28.6992 48.3002C29.2858 48.6756 29.9104 48.9882 30.5626 49.2326C31.5874 49.605 33.3626 49.5126 33.3626 49.5126L34.0626 46.0196L34.3426 49.2802C34.3426 49.2802 35.6936 49.4202 36.6722 49.234C37.6508 49.0478 39.2342 48.0216 39.2342 48.0216L36.1542 42.2928L35.4542 40.9418L30.004 40.8018L29.9998 41.1224Z" fill="white"/>
<g style="mix-blend-mode:multiply">
<path d="M34.1075 45.2424C34.5807 44.6502 34.7515 41.1684 34.7515 41.1684L29.9999 40.8086V41.1222L29.4062 44.38C30.7363 44.8084 33.7393 45.7016 34.1075 45.2424Z" fill="url(#paint5_linear_2572_8682)"/>
</g>
<path d="M29.9998 41.1224L28.6992 48.3002C29.2858 48.6756 29.9104 48.9882 30.5626 49.2326C31.5874 49.605 33.3626 49.5126 33.3626 49.5126L34.0626 46.0196L34.3426 49.2802C34.3426 49.2802 35.6936 49.4202 36.6722 49.234C37.6508 49.0478 39.2342 48.0216 39.2342 48.0216L36.1542 42.2928L35.4542 40.9418L30.004 40.8018L29.9998 41.1224Z" stroke="#2E353A" stroke-miterlimit="10"/>
<path d="M38.0336 35.455L40.6936 36.155L41.7786 32.935L37.7186 32.165L36.8086 35.14L38.0336 35.455Z" fill="#2E353A" stroke="#2E353A" stroke-linecap="round" stroke-linejoin="round"/>
<path d="M38.5547 33.9658L40.2459 34.3788" stroke="white" stroke-linecap="round" stroke-linejoin="round"/>
<path d="M38.3906 34.3789L40.0818 34.7919" stroke="white" stroke-linecap="round" stroke-linejoin="round"/>
<path d="M35.2689 35.6298C35.2689 35.6298 36.1089 35.1748 36.3889 34.7898C36.6689 34.4048 36.9839 33.7398 37.1239 33.6348C37.2639 33.5298 37.9639 33.1798 38.1039 33.0748C38.2439 32.9698 38.4539 33.1798 38.2089 33.3898C37.9639 33.5998 37.4389 34.0548 37.4389 34.0548C37.4389 34.0548 37.5789 34.6848 37.4039 34.8948C37.3103 35.0106 37.2047 35.1162 37.0889 35.2098L38.0339 35.4548C38.0339 35.4548 37.4039 35.9098 37.1239 35.9798C36.8465 36.0332 36.5659 36.0683 36.2839 36.0848L35.1289 36.9948L35.2689 35.6298Z" fill="white" stroke="#2E353A" stroke-linecap="round" stroke-linejoin="round"/>
<path d="M31.4875 27.9846C31.4875 27.9846 30.3675 29.6156 30.0875 31.5252C29.8075 33.4348 29.9951 41.1222 29.9951 41.1222C29.9951 41.1222 31.4847 41.727 32.6551 41.727C33.8255 41.727 35.5433 41.8208 35.5951 41.167C35.6469 40.5132 35.2689 33.0148 34.7551 31.1976C34.3993 30.0119 33.881 28.8812 33.2151 27.8376C33.2151 27.8376 32.0475 27.0522 31.4875 27.9846Z" fill="#2E353A" stroke="#2E353A" stroke-linecap="round" stroke-linejoin="round"/>
<path d="M34.0441 29.4004L32.5391 38.9904L33.8691 39.4804L34.4641 30.2754L34.0441 29.4004Z" fill="white" stroke="#2E353A" stroke-linecap="round" stroke-linejoin="round"/>
<path d="M30.7109 24.2692C30.7109 24.2692 30.8971 25.154 31.2709 25.6202C31.6447 26.0864 32.3419 26.3202 32.3419 26.3202L32.1417 27.38L33.4466 28.1724L33.9254 25.9002L34.0654 23.1982C34.0654 23.1982 30.7977 23.7568 30.7109 24.2692Z" fill="white" stroke="#2E353A" stroke-linecap="round" stroke-linejoin="round"/>
<path d="M30.7109 24.2693C30.7109 24.2693 30.8971 25.1541 31.2709 25.6203C31.6447 26.0865 32.3419 26.3203 32.3419 26.3203C32.3419 26.3203 33.4619 25.9941 33.5529 25.2493C33.6201 24.7117 33.5193 23.7891 33.4563 23.3145C32.5057 23.5021 30.7781 23.8983 30.7109 24.2693Z" fill="#2E353A" stroke="#2E353A" stroke-linecap="round" stroke-linejoin="round"/>
<path d="M32.6212 24.5002C32.6212 24.5002 32.155 23.9402 31.8764 24.174C31.5978 24.4078 31.6888 25.0602 32.0164 25.3864C32.344 25.7126 32.7626 25.4326 32.7626 25.4326C32.7626 25.4326 32.9488 26.0374 33.275 26.3174C33.6012 26.5974 34.7184 26.7836 35.095 26.5036C35.4716 26.2236 35.3274 25.1988 35.3274 25.1988C35.3274 25.1988 35.9798 24.8726 35.9336 24.6388C35.8874 24.405 35.4198 24.2188 35.4198 24.034C35.4159 23.893 35.4004 23.7525 35.3736 23.614V23.2402L33.2316 23.7064C33.2316 23.7064 32.9502 24.7802 32.6212 24.5002Z" fill="white"/>
<g style="mix-blend-mode:multiply" opacity="0.5">
<g style="mix-blend-mode:multiply" opacity="0.5">
<path d="M33.2292 23.7106C33.169 23.9356 33.0816 24.1523 32.9688 24.356C33.8088 24.3182 34.7062 24.265 35.5098 24.195C35.4603 24.1557 35.4274 24.0992 35.4174 24.0368C35.4134 23.8958 35.398 23.7553 35.3712 23.6168V23.2402L33.2292 23.7106Z" fill="url(#paint6_linear_2572_8682)"/>
</g>
</g>
<path d="M32.6212 24.5002C32.6212 24.5002 32.155 23.9402 31.8764 24.174C31.5978 24.4078 31.6888 25.0602 32.0164 25.3864C32.344 25.7126 32.7626 25.4326 32.7626 25.4326C32.7626 25.4326 32.9488 26.0374 33.275 26.3174C33.6012 26.5974 34.7184 26.7836 35.095 26.5036C35.4716 26.2236 35.3274 25.1988 35.3274 25.1988C35.3274 25.1988 35.9798 24.8726 35.9336 24.6388C35.8874 24.405 35.4198 24.2188 35.4198 24.034C35.4159 23.893 35.4004 23.7525 35.3736 23.614V23.2402L33.2316 23.7064C33.2316 23.7064 32.9502 24.7802 32.6212 24.5002Z" stroke="#2E353A" stroke-linecap="round" stroke-linejoin="round"/>
<path d="M30.7139 24.2693L35.3717 23.2403C35.3717 23.2403 34.7193 20.9569 33.9283 20.7707C33.1373 20.5845 31.5987 20.4907 30.7601 21.3307C29.9215 22.1707 30.7139 24.2693 30.7139 24.2693Z" fill="white" stroke="#2E353A" stroke-linecap="round" stroke-linejoin="round"/>
<path d="M33.832 23.6172C34.4459 23.7535 35.0686 23.847 35.6954 23.8971C36.5354 23.9433 38.4436 23.1972 37.9788 23.151C37.514 23.1048 35.3692 23.2448 35.3692 23.2448L33.832 23.6172Z" fill="#2E353A" stroke="#2E353A" stroke-linecap="round" stroke-linejoin="round"/>
<path d="M31.6778 27.0059L31.2578 27.9383L33.355 29.2417L33.7736 27.9383L31.6778 27.0059Z" fill="white" stroke="#2E353A" stroke-linecap="round" stroke-linejoin="round"/>
<path d="M27.3594 36.75L34.8144 38.675L34.0402 44.1266C34.0276 44.2157 33.9962 44.3012 33.9482 44.3773C33.9002 44.4535 33.8366 44.5186 33.7616 44.5684C33.6867 44.6183 33.602 44.6517 33.5132 44.6665C33.4244 44.6813 33.3335 44.6772 33.2464 44.6544L26.469 42.8932C26.3418 42.8604 26.2324 42.7793 26.1639 42.6672C26.0955 42.5551 26.0733 42.4207 26.1022 42.2926L27.3594 36.75Z" fill="white" stroke="#2E353A" stroke-linecap="round" stroke-linejoin="round"/>
<path d="M27.3594 36.75C27.3594 36.75 29.1192 41.02 30.1972 41.58C31.2752 42.14 34.8172 38.6792 34.8172 38.6792" stroke="#2E353A" stroke-linecap="round" stroke-linejoin="round"/>
<path d="M28.8407 34.8799C28.8407 34.8799 28.3745 35.9047 28.5145 36.2799C28.6545 36.6551 34.4309 38.7495 34.4309 38.7495C34.4309 38.7495 34.4771 39.5405 34.6171 39.7295C34.737 39.9346 34.831 40.1537 34.8971 40.3819C34.8971 40.3819 34.6171 41.0343 34.7571 41.1743C34.8971 41.3143 35.3171 40.5219 35.3171 40.2895C35.3171 40.0571 35.3633 38.7985 35.2247 38.4695C35.0861 38.1405 31.1241 35.7213 31.1241 35.7213L28.8407 34.8799Z" fill="white" stroke="#2E353A" stroke-linecap="round" stroke-linejoin="round"/>
<path d="M31.3973 29.29L28.6953 35.0188L31.1173 35.7188L33.0745 31.1534" fill="#2E353A"/>
<path d="M31.3973 29.29L28.6953 35.0188L31.1173 35.7188L33.0745 31.1534" stroke="#2E353A" stroke-linecap="round" stroke-linejoin="round"/>
<path d="M31.1172 35.7186L32.9008 31.7188" stroke="white" stroke-linecap="round" stroke-linejoin="round"/>
<path d="M32.2891 33.1875L33.1865 32.29" stroke="white" stroke-linecap="round" stroke-linejoin="round"/>
<path d="M29.6289 48.1504C30.7473 48.7302 32.0039 48.9904 33.2605 48.9022" stroke="#2E353A" stroke-linecap="round" stroke-linejoin="round"/>
<path d="M29.0195 47.7832C29.0195 47.7832 29.1273 47.8644 29.3275 47.9848" stroke="#2E353A" stroke-linecap="round" stroke-linejoin="round"/>
<path d="M38.1016 47.8217C38.2794 47.7252 38.4519 47.6191 38.6182 47.5039" stroke="#2E353A" stroke-linecap="round" stroke-linejoin="round"/>
<path d="M34.5195 48.72C35.6125 48.7055 36.6914 48.4713 37.6919 48.0312" stroke="#2E353A" stroke-linecap="round" stroke-linejoin="round"/>
<path d="M34.0547 46.0136L35.0599 44.2734" stroke="#2E353A" stroke-linecap="round" stroke-linejoin="round"/>
<path d="M34.1094 45.9232L35.7852 44.0234" stroke="#2E353A" stroke-linecap="round" stroke-linejoin="round"/>
<path d="M29.8314 45.1689L29.6914 46.2022C30.0352 46.4428 30.4126 46.6314 30.8114 46.7622C31.482 46.9862 32.9114 46.9582 32.9114 46.9582L33.1074 45.9782C33.1074 45.9782 30.621 45.6981 30.1184 45.2781" stroke="#2E353A" stroke-linecap="round" stroke-linejoin="round"/>
<path d="M29.6659 46.5918C29.6659 46.5918 29.2739 47.5424 29.5259 47.7664C29.7779 47.9904 31.5643 48.6596 32.0459 48.6064C32.5275 48.5532 32.7991 47.3772 32.7991 47.3772" stroke="#2E353A" stroke-linecap="round" stroke-linejoin="round"/>
<path d="M43.8815 57.5715C44.0397 57.0255 43.4783 57.2999 43.2417 57.4763C42.9351 57.7045 41.4049 57.8963 41.4049 57.8963L41.2187 57.4763C40.9382 57.7228 40.617 57.9189 40.2695 58.0559C40.6769 58.8651 41.0031 59.5006 41.1459 59.5244C41.5533 59.5972 42.1749 59.0765 42.4773 58.8651C42.8623 58.5949 43.7457 58.0461 43.8815 57.5715Z" fill="#2E353A" stroke="#2E353A" stroke-linecap="round" stroke-linejoin="round"/>
<path d="M42.7189 58.335C42.0889 58.6626 41.3539 59.0602 40.9297 59.2828C41.0221 59.4228 41.0963 59.5138 41.1467 59.5222C41.5541 59.595 42.1757 59.0742 42.4781 58.8628C42.8631 58.594 43.7465 58.0452 43.8781 57.5706C43.9453 57.341 43.8781 57.257 43.7731 57.25C43.5407 57.6392 43.1795 58.0998 42.7189 58.335Z" fill="white" stroke="#2E353A" stroke-linecap="round" stroke-linejoin="round"/>
<path d="M28.3148 59.5581C28.2476 59.5077 27.4874 58.9743 27.5112 58.9085C27.5112 58.9085 27.6638 58.4983 27.8976 57.8907C27.4967 57.8406 27.1047 57.735 26.7328 57.5771C26.3604 58.7083 26.0328 59.6687 26.1252 59.8087C26.3114 60.1083 27.962 60.5213 28.599 60.5213C28.9336 60.5213 29.488 60.6501 29.7092 60.3239C29.7218 60.3057 28.4002 59.6211 28.3148 59.5581Z" fill="white" stroke="#2E353A" stroke-linecap="round" stroke-linejoin="round"/>
<path d="M29.7059 60.3231C29.7185 60.3049 28.3969 59.6231 28.3059 59.5573C28.2149 59.4915 27.4785 58.9735 27.5023 58.9077L27.6507 58.5115C27.2649 58.4415 26.8869 58.3336 26.5223 58.1895C26.2423 59.0379 26.0449 59.6931 26.1163 59.8079C26.3025 60.1075 27.9531 60.5205 28.5901 60.5205C28.9303 60.5205 29.4847 60.6493 29.7059 60.3231Z" fill="#2E353A" stroke="#2E353A" stroke-linecap="round" stroke-linejoin="round"/>
<path d="M28.3973 60.2111C27.5391 60.1593 26.5857 59.8065 26.1195 59.6133C26.1008 59.6768 26.1008 59.7444 26.1195 59.8079C26.3057 60.1075 27.9563 60.5205 28.5933 60.5205C28.9279 60.5205 29.4823 60.6492 29.7035 60.3231C29.641 60.2789 29.575 60.24 29.5061 60.2069C29.137 60.2339 28.7665 60.2353 28.3973 60.2111Z" fill="white" stroke="#2E353A" stroke-linecap="round" stroke-linejoin="round"/>
<path d="M33.5914 23.6213L32.8438 21.8447" stroke="black" stroke-linecap="round" stroke-linejoin="round"/>
<path d="M32.748 21.5185C32.748 21.5185 32.5142 21.0033 32.7018 20.7695" stroke="black" stroke-linecap="round" stroke-linejoin="round"/>
<defs>
<linearGradient id="paint0_linear_2572_8682" x1="4.61328" y1="11.7717" x2="79.996" y2="26.7014" gradientUnits="userSpaceOnUse">
<stop stop-color="#0061FF"/>
<stop offset="1" stop-color="#60EFFF"/>
</linearGradient>
<linearGradient id="paint1_linear_2572_8682" x1="23.668" y1="59.542" x2="31.8598" y2="72.2369" gradientUnits="userSpaceOnUse">
<stop stop-color="#0061FF"/>
<stop offset="1" stop-color="#60EFFF"/>
</linearGradient>
<linearGradient id="paint2_linear_2572_8682" x1="15.5391" y1="11.9846" x2="61.8474" y2="17.5968" gradientUnits="userSpaceOnUse">
<stop stop-color="#0061FF"/>
<stop offset="1" stop-color="#60EFFF"/>
</linearGradient>
<linearGradient id="paint3_linear_2572_8682" x1="29.4805" y1="48.7559" x2="32.9902" y2="49.635" gradientUnits="userSpaceOnUse">
<stop stop-color="#0061FF"/>
<stop offset="1" stop-color="#60EFFF"/>
</linearGradient>
<linearGradient id="paint4_linear_2572_8682" x1="35.375" y1="47.4438" x2="39.0005" y2="48.0089" gradientUnits="userSpaceOnUse">
<stop stop-color="#0061FF"/>
<stop offset="1" stop-color="#60EFFF"/>
</linearGradient>
<linearGradient id="paint5_linear_2572_8682" x1="29.4062" y1="41.1785" x2="36.1178" y2="42.453" gradientUnits="userSpaceOnUse">
<stop stop-color="#0061FF"/>
<stop offset="1" stop-color="#60EFFF"/>
</linearGradient>
<linearGradient id="paint6_linear_2572_8682" x1="32.9687" y1="23.3307" x2="35.8781" y2="24.4044" gradientUnits="userSpaceOnUse">
<stop stop-color="#0061FF"/>
<stop offset="1" stop-color="#60EFFF"/>
</linearGradient>
</defs>
</svg>
