<svg width="375" height="268" viewBox="0 0 375 268" fill="none" xmlns="http://www.w3.org/2000/svg">
<path d="M224.235 99.4405L174.285 108.362L110.141 92.4496C109.288 92.2801 108.405 92.3561 107.594 92.6687C106.783 92.9814 106.078 93.5179 105.56 94.2158L28.0537 210.106C27.8379 210.378 27.6969 210.702 27.6446 211.046C27.5923 211.39 27.6305 211.741 27.7554 212.066C27.8804 212.39 28.0878 212.677 28.3571 212.896C28.6265 213.116 28.9485 213.262 29.2914 213.32L93.445 229.227L143.394 220.306L210.415 236.964L266.735 229.096C268.586 228.725 270.237 227.69 271.377 226.185L274.923 220.871L348.883 110.295C349.803 108.928 349.218 107.99 347.58 108.217L291.264 116.094L224.235 99.4405Z" fill="#455A64" fill-opacity="0.3"/>
<path d="M174.287 108.363L93.4468 229.228L143.396 220.307L224.237 99.4413L174.287 108.363Z" fill="#455A64" fill-opacity="0.2"/>
<path d="M210.416 236.964L266.736 229.096C268.588 228.726 270.239 227.686 271.373 226.176L348.884 110.295C349.804 108.928 349.219 107.99 347.581 108.217L291.265 116.094L210.416 236.964Z" fill="#455A64" fill-opacity="0.1"/>
<path d="M169.063 116.161L110.394 101.61L39.9854 206.88L98.664 221.427L169.063 116.161Z" fill="#E0E0E0"/>
<path d="M219.014 107.24L148.614 212.506L98.6651 221.427L169.064 116.162L219.014 107.24Z" fill="#E0E0E0"/>
<g style="mix-blend-mode:multiply" opacity="0.5">
<g style="mix-blend-mode:multiply" opacity="0.5">
<path d="M219.014 107.24L148.614 212.506L98.6651 221.427L169.064 116.162L219.014 107.24Z" fill="#E0E0E0"/>
</g>
</g>
<path d="M286.07 123.881L215.67 229.147L148.614 212.506L219.014 107.24L286.07 123.881Z" fill="#E0E0E0"/>
<path d="M334.605 117.084L264.196 222.354L215.673 229.146L286.072 123.88L334.605 117.084Z" fill="#E0E0E0"/>
<g style="mix-blend-mode:multiply" opacity="0.5">
<g style="mix-blend-mode:multiply" opacity="0.5">
<path d="M334.605 117.084L264.196 222.354L215.673 229.146L286.072 123.88L334.605 117.084Z" fill="#E0E0E0"/>
</g>
</g>
<path d="M73.9578 215.306L83.6275 200.086L51.399 189.811L39.9876 206.88L73.9578 215.306Z" fill="#F0F0F0"/>
<path d="M86.2287 196.184L54.0046 185.917L77.4372 150.752L109.697 161.091L86.2287 196.184Z" fill="#F0F0F0"/>
<path d="M80.0836 146.932L112.308 157.198L120.132 145.496L100.944 115.732L80.0836 146.932Z" fill="#F0F0F0"/>
<path d="M122.738 141.602L103.55 111.838L110.395 101.61L160.682 114.082L122.738 141.602Z" fill="#F0F0F0"/>
<path d="M107.797 207.788L91.6779 202.653L81.9 217.268L98.664 221.428L107.797 207.788Z" fill="#F0F0F0"/>
<path d="M94.2812 198.75L110.4 203.886L133.845 168.838L117.745 163.671L94.2812 198.75Z" fill="#F0F0F0"/>
<path d="M136.476 164.899L120.357 159.763L127.523 149.054L146.671 135.04L150.816 143.454L136.476 164.899Z" fill="#F0F0F0"/>
<path d="M153.423 139.552L149.998 132.6L165.822 121.025L153.423 139.552Z" fill="#F0F0F0"/>
<path d="M174.762 136.889C170.16 137.707 164.68 140.997 162.523 144.222C160.366 147.447 162.335 149.409 166.906 148.595C171.477 147.782 176.984 144.5 179.146 141.262C181.307 138.023 179.351 136.066 174.762 136.889Z" fill="#E6E6E6"/>
<path d="M161.758 140.452C161.098 141.093 160.505 141.8 159.988 142.561C157.696 145.92 158.808 148.382 159.389 149.266C159.73 149.786 160.168 150.237 160.678 150.593L154.388 159.979L136.439 164.908L150.779 143.464L161.758 140.452Z" fill="#E6E6E6"/>
<path d="M153.421 139.553L165.62 135.962L171.772 133.923L185.714 113.188L169.065 116.162L153.421 139.553Z" fill="#E6E6E6"/>
<path d="M218.977 107.257L199.398 136.533L181.998 142.328C183.761 139.231 182.754 137.074 182.227 136.23C181.886 135.715 181.453 135.267 180.951 134.907L196.784 111.222L218.977 107.257Z" fill="#E6E6E6"/>
<path d="M197.08 140.039L187.726 154.022L163.747 160.651L170.245 150.895L170.295 150.815C171.386 150.449 172.45 150.01 173.482 149.501C175.599 148.48 177.558 147.159 179.297 145.578L197.08 140.039Z" fill="#E6E6E6"/>
<path d="M133.847 168.837L110.401 203.885L128.355 198.965L151.801 163.894L133.847 168.837Z" fill="#E6E6E6"/>
<path d="M187.733 154.031L163.754 160.615L140.309 195.686L164.26 189.115L187.733 154.031Z" fill="#E6E6E6"/>
<path d="M107.799 207.788L98.6666 221.428L115.316 218.454L125.749 202.859L107.799 207.788Z" fill="#E6E6E6"/>
<path d="M161.657 193.017L137.705 199.588L126.416 216.475L148.617 212.506L161.657 193.017Z" fill="#E6E6E6"/>
<path d="M209.591 143.261L232.807 159.682L255.386 125.93L220.019 127.657L209.591 143.261Z" fill="#F0F0F0"/>
<path d="M161.657 193.017L168.406 197.529L177.956 219.79L148.617 212.506L161.657 193.017Z" fill="#F0F0F0"/>
<path d="M164.26 189.116L171.013 193.637L203.713 144.744L197.082 140.04L164.26 189.116Z" fill="#F0F0F0"/>
<path d="M199.439 136.525L206.214 141.002L227.395 109.321L219.013 107.241L199.439 136.525Z" fill="#F0F0F0"/>
<path d="M206.986 147.155L174.39 195.897L185.641 221.701L190.526 222.906L230.225 163.554L206.986 147.155Z" fill="#F0F0F0"/>
<path d="M222.628 123.764L231.589 110.365L260.924 117.641L258 122.024L222.628 123.764Z" fill="#F0F0F0"/>
<path d="M198.905 224.987L209.987 208.425L223.498 217.454L215.669 229.148L198.905 224.987Z" fill="#F0F0F0"/>
<path d="M223.023 188.93L212.594 204.523L226.101 213.557L236.53 197.963L223.023 188.93Z" fill="#F0F0F0"/>
<path d="M225.643 185.028L236.865 168.23L250.151 177.593L239.145 194.062L225.643 185.028Z" fill="#F0F0F0"/>
<path d="M252.719 173.764L239.448 164.383L262.144 130.439L277.696 121.797L286.069 123.881L252.719 173.764Z" fill="#F0F0F0"/>
<path d="M265.117 118.685L260.073 126.231L271.222 120.193L265.117 118.685Z" fill="#F0F0F0"/>
<path d="M273.794 171.921C269.205 172.743 263.721 176.024 261.564 179.25C259.407 182.475 261.376 184.436 265.952 183.631C270.527 182.827 276.025 179.528 278.191 176.298C280.357 173.069 278.379 171.067 273.794 171.921Z" fill="#E6E6E6"/>
<path d="M223.502 217.453L240.151 214.479L231.849 226.885L215.673 229.146L223.502 217.453Z" fill="#E6E6E6"/>
<path d="M226.102 213.551L242.752 210.577L253.184 194.982L236.534 197.956L226.102 213.551Z" fill="#E6E6E6"/>
<path d="M239.143 194.063L255.82 191.098L259.29 185.899C259.29 185.899 254.448 181.886 260.178 176.388L250.144 177.63L239.143 194.063Z" fill="#E6E6E6"/>
<path d="M252.723 173.764L263.284 172.574C265.559 171.089 268.005 169.885 270.568 168.986L289.695 140.401L273.046 143.375L252.723 173.764Z" fill="#E6E6E6"/>
<path d="M275.649 139.471L292.299 136.497L302.257 121.615L286.072 123.88L275.649 139.471Z" fill="#E6E6E6"/>
<path d="M313.037 120.106L296.441 144.913L317.771 142.254L334.602 117.085L313.037 120.106Z" fill="#E6E6E6"/>
<path d="M293.84 148.814L280.127 169.314C280.127 169.314 284.276 171.808 282.694 176.177L296.945 173.426L315.206 146.137L294.439 148.831" fill="#E6E6E6"/>
<path d="M294.304 177.346L279.738 180.43C279.738 180.43 274.705 185.942 268.521 186.625L254.704 207.276L258.022 223.199L264.181 222.328L294.304 177.346Z" fill="#E6E6E6"/>
<path d="M252.109 211.196L254.486 223.715L242.629 225.375L252.109 211.196Z" fill="#E6E6E6"/>
<path d="M219.465 185.484C219.31 185.561 219.137 185.596 218.964 185.585C218.79 185.575 218.623 185.52 218.477 185.425C218.255 185.28 218.1 185.053 218.045 184.793C217.991 184.534 218.041 184.263 218.186 184.041L231.802 163.277L197.976 139.53L179.92 145.148C179.724 145.209 179.515 145.209 179.32 145.147C179.125 145.086 178.953 144.966 178.829 144.804C178.704 144.641 178.632 144.445 178.622 144.241C178.612 144.036 178.666 143.834 178.775 143.661C180.513 140.921 181.053 138.871 180.312 137.731C179.572 136.59 177.603 136.123 174.847 136.366C170.748 136.735 163.837 140.674 161.94 144.585C161.433 145.45 161.287 146.48 161.534 147.452C161.781 148.423 162.401 149.259 163.26 149.776C163.377 149.844 163.479 149.935 163.559 150.044C163.64 150.152 163.697 150.276 163.729 150.407C163.76 150.539 163.765 150.675 163.742 150.809C163.719 150.942 163.669 151.069 163.596 151.182L157.109 161.323C156.976 161.524 156.778 161.672 156.548 161.744L135.412 167.831C135.215 167.881 135.007 167.876 134.813 167.814L105.499 157.73C105.249 157.644 105.043 157.463 104.927 157.226C104.81 156.989 104.792 156.715 104.876 156.465C104.918 156.34 104.984 156.224 105.071 156.125C105.158 156.025 105.264 155.944 105.382 155.886C105.501 155.828 105.629 155.793 105.761 155.785C105.893 155.777 106.025 155.794 106.15 155.837L135.218 165.786L155.718 159.879L161.501 150.844C160.488 149.985 159.804 148.801 159.567 147.495C159.33 146.188 159.554 144.84 160.201 143.68C162.429 139.15 170.035 134.767 174.711 134.303C176.841 134.101 180.571 134.159 182.059 136.614C182.954 138.068 182.835 140.022 181.707 142.439L197.85 137.419C197.997 137.372 198.153 137.359 198.306 137.383C198.459 137.406 198.604 137.465 198.73 137.554L233.772 162.184C233.984 162.333 234.129 162.559 234.178 162.814C234.226 163.069 234.174 163.333 234.032 163.55L219.888 185.12C219.785 185.279 219.638 185.406 219.465 185.484Z" fill="#BA68C8"/>
<path d="M98.2795 126.507L94.3278 126.224C92.3749 125.971 90.3873 127.05 88.7543 129.415C85.5373 134.2 85.175 142.516 87.8794 148.006L88.4981 149.262C91.2026 154.752 101.528 157.089 101.528 157.089L105.396 157.313C105.396 157.313 102.581 156.125 102.561 155.611C102.533 150.575 102.272 136.445 100.063 131.96L99.4487 130.713C99.0106 129.799 98.4466 128.951 97.7731 128.194L98.2202 128.219L98.2795 126.507ZM95.6702 143.454C94.0684 145.838 91.7437 145.69 90.4755 143.115C91.5847 142.335 92.0492 135.651 91.0699 134.116C92.6717 131.733 94.9874 131.885 96.2557 134.46C96.869 135.9 97.1355 137.465 97.0338 139.027C96.9321 140.589 96.465 142.106 95.6702 143.454Z" fill="#BA68C8"/>
<path d="M98.2795 126.507L94.3278 126.224C92.3749 125.971 90.3873 127.05 88.7543 129.415C85.5373 134.2 85.175 142.516 87.8794 148.006L88.4981 149.262C91.2026 154.752 101.528 157.089 101.528 157.089L105.396 157.313C105.396 157.313 102.581 156.125 102.561 155.611C102.533 150.575 102.272 136.445 100.063 131.96L99.4487 130.713C99.0106 129.799 98.4466 128.951 97.7731 128.194L98.2202 128.219L98.2795 126.507ZM95.6702 143.454C94.0684 145.838 91.7437 145.69 90.4755 143.115C91.5847 142.335 92.0492 135.651 91.0699 134.116C92.6717 131.733 94.9874 131.885 96.2557 134.46C96.869 135.9 97.1355 137.465 97.0338 139.027C96.9321 140.589 96.465 142.106 95.6702 143.454Z" fill="#BA68C8"/>
<g opacity="0.2">
<path opacity="0.2" d="M98.2795 126.507L94.3278 126.224C92.3749 125.971 90.3873 127.05 88.7543 129.415C85.5373 134.2 85.175 142.516 87.8794 148.006L88.4981 149.262C91.2026 154.752 101.528 157.089 101.528 157.089L105.396 157.313C105.396 157.313 102.581 156.125 102.561 155.611C102.533 150.575 102.272 136.445 100.063 131.96L99.4487 130.713C99.0106 129.799 98.4466 128.951 97.7731 128.194L98.2202 128.219L98.2795 126.507ZM95.6702 143.454C94.0684 145.838 91.7437 145.69 90.4755 143.115C91.5847 142.335 92.0492 135.651 91.0699 134.116C92.6717 131.733 94.9874 131.885 96.2557 134.46C96.869 135.9 97.1355 137.465 97.0338 139.027C96.9321 140.589 96.465 142.106 95.6702 143.454Z" fill="black"/>
</g>
<path d="M103.606 131.028C100.902 125.538 96.1469 124.938 92.9299 129.722C89.7128 134.506 89.3505 142.822 92.0594 148.321L92.6736 149.568C94.7594 153.802 101.967 156.349 105.177 157.299C105.359 157.352 105.551 157.362 105.737 157.328C105.924 157.295 106.1 157.218 106.252 157.104C106.403 156.991 106.527 156.843 106.611 156.673C106.696 156.504 106.74 156.317 106.74 156.127C106.724 151.297 106.483 136.824 104.243 132.275L103.606 131.028ZM99.828 143.725C98.2307 146.117 95.9105 145.956 94.6423 143.381C94.029 141.941 93.7624 140.377 93.8641 138.814C93.9658 137.252 94.4329 135.735 95.2278 134.387C96.8295 132.003 99.1542 132.151 100.427 134.735C101.037 136.176 101.301 137.74 101.197 139.301C101.093 140.863 100.624 142.378 99.828 143.725Z" fill="#BA68C8"/>
<path d="M211.705 155.354L207.753 155.071C205.8 154.818 203.791 155.852 202.18 158.262C198.963 163.046 198.6 171.363 201.305 176.853L201.924 178.109C204.628 183.599 214.954 185.936 214.954 185.936L218.821 186.16C218.821 186.16 216.006 184.972 215.987 184.457C215.958 179.422 215.698 165.292 213.488 160.807L212.874 159.56C212.436 158.646 211.872 157.798 211.198 157.041L211.646 157.066L211.705 155.354ZM209.096 172.301C207.494 174.685 205.169 174.537 203.901 171.962C205.01 171.181 205.475 164.498 204.495 162.963C206.097 160.58 208.413 160.732 209.681 163.307C210.294 164.747 210.561 166.312 210.459 167.874C210.358 169.436 209.89 170.953 209.096 172.301Z" fill="#BA68C8"/>
<path d="M211.705 155.354L207.753 155.071C205.8 154.818 203.791 155.852 202.18 158.262C198.963 163.046 198.6 171.363 201.305 176.853L201.924 178.109C204.628 183.599 214.954 185.936 214.954 185.936L218.821 186.16C218.821 186.16 216.006 184.972 215.987 184.457C215.958 179.422 215.698 165.292 213.488 160.807L212.874 159.56C212.436 158.646 211.872 157.798 211.198 157.041L211.646 157.066L211.705 155.354ZM209.096 172.301C207.494 174.685 205.169 174.537 203.901 171.962C205.01 171.181 205.475 164.498 204.495 162.963C206.097 160.58 208.413 160.732 209.681 163.307C210.294 164.747 210.561 166.312 210.459 167.874C210.358 169.436 209.89 170.953 209.096 172.301Z" fill="#BA68C8"/>
<g opacity="0.2">
<path opacity="0.2" d="M211.705 155.354L207.753 155.071C205.8 154.818 203.791 155.852 202.18 158.262C198.963 163.046 198.6 171.363 201.305 176.853L201.924 178.109C204.628 183.599 214.954 185.936 214.954 185.936L218.821 186.16C218.821 186.16 216.006 184.972 215.987 184.457C215.958 179.422 215.698 165.292 213.488 160.807L212.874 159.56C212.436 158.646 211.872 157.798 211.198 157.041L211.646 157.066L211.705 155.354ZM209.096 172.301C207.494 174.685 205.169 174.537 203.901 171.962C205.01 171.181 205.475 164.498 204.495 162.963C206.097 160.58 208.413 160.732 209.681 163.307C210.294 164.747 210.561 166.312 210.459 167.874C210.358 169.436 209.89 170.953 209.096 172.301Z" fill="black"/>
</g>
<path d="M217.028 159.876C214.324 154.386 209.569 153.785 206.352 158.569C203.135 163.353 202.772 171.669 205.481 177.168L206.095 178.415C208.181 182.65 215.389 185.197 218.599 186.146C218.781 186.199 218.973 186.209 219.159 186.176C219.346 186.142 219.522 186.065 219.674 185.952C219.825 185.838 219.948 185.69 220.033 185.521C220.118 185.351 220.162 185.164 220.162 184.975C220.146 180.144 219.905 165.671 217.665 161.123L217.028 159.876ZM213.25 172.572C211.653 174.964 209.332 174.803 208.064 172.229C207.451 170.788 207.184 169.224 207.286 167.662C207.388 166.099 207.855 164.583 208.65 163.234C210.251 160.851 212.576 160.999 213.849 163.582C214.459 165.023 214.723 166.587 214.619 168.149C214.515 169.71 214.046 171.225 213.25 172.572Z" fill="#BA68C8"/>
<path d="M149.202 67.6763V66.1955C149.226 64.2975 149.542 62.4146 150.139 60.613C151.665 55.8992 154.878 51.3877 158.595 49.2603C160.959 47.8931 163.116 47.7253 164.769 48.5446L161.517 46.6739C160.715 46.1449 159.773 45.8682 158.812 45.8792C158.66 45.8777 158.508 45.886 158.358 45.9039C158.2 45.9039 158.042 45.9335 157.864 45.9582C157.698 45.9774 157.533 46.0071 157.371 46.047C157.204 46.0829 157.039 46.1273 156.877 46.1803C156.529 46.2829 156.187 46.4082 155.855 46.5554C155.682 46.6295 155.51 46.7183 155.332 46.8022C155.154 46.8862 154.977 46.9898 154.804 47.0885C149.646 50.0698 145.445 57.6514 145.445 64.0681V65.5489C145.445 71.9311 154.029 78.8759 154.029 78.8759L157.484 80.8503C157.423 80.8102 157.366 80.7656 157.311 80.717C154.769 78.2935 149.202 72.5875 149.202 67.6763ZM159.449 54.2555C159.479 54.4186 159.499 54.5835 159.508 54.7491C159.508 54.8083 159.508 54.8626 159.508 54.9219C159.513 55.0189 159.513 55.1161 159.508 55.2131C159.508 58.2042 157.41 61.847 154.814 63.3426L154.532 63.4956C154.439 63.5449 154.345 63.5844 154.256 63.6239L153.984 63.7374H153.955C154.36 66.0277 156.265 66.8273 158.575 65.5045C161.166 64.0237 163.264 60.3612 163.264 57.3701C163.284 54.7195 161.63 53.4608 159.449 54.2555Z" fill="#BA68C8"/>
<path opacity="0.3" d="M149.202 67.6763V66.1955C149.226 64.2975 149.542 62.4146 150.139 60.613C151.665 55.8992 154.878 51.3877 158.595 49.2603C160.959 47.8931 163.116 47.7253 164.769 48.5446L161.517 46.6739C160.715 46.1449 159.773 45.8682 158.812 45.8792C158.66 45.8777 158.508 45.886 158.358 45.9039C158.2 45.9039 158.042 45.9335 157.864 45.9582C157.698 45.9774 157.533 46.0071 157.371 46.047C157.204 46.0829 157.039 46.1273 156.877 46.1803C156.529 46.2829 156.187 46.4082 155.855 46.5554C155.682 46.6295 155.51 46.7183 155.332 46.8022C155.154 46.8862 154.977 46.9898 154.804 47.0885C149.646 50.0698 145.445 57.6514 145.445 64.0681V65.5489C145.445 71.9311 154.029 78.8759 154.029 78.8759L157.484 80.8503C157.423 80.8102 157.366 80.7656 157.311 80.717C154.769 78.2935 149.202 72.5875 149.202 67.6763Z" fill="black"/>
<path opacity="0.5" d="M159.447 54.2552C159.477 54.4183 159.497 54.5832 159.506 54.7488C159.506 54.8081 159.506 54.8624 159.506 54.9216C159.511 55.0186 159.511 55.1158 159.506 55.2128C159.506 58.204 157.408 61.8467 154.812 63.3423L154.531 63.4953C154.437 63.5447 154.343 63.5841 154.254 63.6236L153.983 63.7372H153.953C154.358 66.0274 156.263 66.8271 158.573 65.5042C161.165 64.0234 163.262 60.361 163.262 57.3698C163.282 54.7192 161.629 53.4605 159.447 54.2552Z" fill="black"/>
<path d="M167.979 55.3808C167.979 48.9986 163.779 46.2493 158.601 49.2454C153.423 52.2415 149.223 59.8379 149.223 66.2201V67.7009C149.223 72.6368 154.79 78.3181 157.352 80.6824C157.497 80.8123 157.67 80.9071 157.857 80.9593C158.044 81.0116 158.241 81.0198 158.432 80.9835C158.623 80.9472 158.803 80.8673 158.958 80.75C159.114 80.6327 159.24 80.4812 159.327 80.3073C161.538 75.781 167.979 62.143 167.979 56.8566V55.3808ZM158.601 65.5044C156.01 66.9852 153.907 65.7907 153.907 62.7946C153.907 59.7985 156 56.1705 158.591 54.6898C161.182 53.209 163.285 54.4035 163.285 57.3996C163.285 60.3957 161.182 64.0088 158.591 65.5044H158.601Z" fill="#BA68C8"/>
<path d="M167.979 55.3808C167.979 48.9986 163.779 46.2493 158.601 49.2454C153.423 52.2415 149.223 59.8379 149.223 66.2201V67.7009C149.223 72.6368 154.79 78.3181 157.352 80.6824C157.497 80.8123 157.67 80.9071 157.857 80.9593C158.044 81.0116 158.241 81.0198 158.432 80.9835C158.623 80.9472 158.803 80.8673 158.958 80.75C159.114 80.6327 159.24 80.4812 159.327 80.3073C161.538 75.781 167.979 62.143 167.979 56.8566V55.3808ZM158.601 65.5044C156.01 66.9852 153.907 65.7907 153.907 62.7946C153.907 59.7985 156 56.1705 158.591 54.6898C161.182 53.209 163.285 54.4035 163.285 57.3996C163.285 60.3957 161.182 64.0088 158.591 65.5044H158.601Z" fill="#BA68C8"/>
<path d="M246.879 146.999V146.04C246.894 144.811 247.099 143.591 247.486 142.424C248.474 139.37 250.556 136.448 252.964 135.069C254.495 134.184 255.892 134.075 256.964 134.606L254.856 133.394C254.337 133.051 253.727 132.872 253.104 132.879C253.006 132.878 252.908 132.883 252.81 132.895C252.708 132.895 252.605 132.914 252.49 132.93C252.383 132.943 252.276 132.962 252.171 132.988C252.063 133.011 251.956 133.04 251.851 133.074C251.625 133.141 251.404 133.222 251.189 133.317C251.077 133.365 250.965 133.423 250.85 133.477C250.735 133.531 250.62 133.599 250.508 133.663C247.166 135.594 244.445 140.505 244.445 144.662V145.621C244.445 149.756 250.006 154.255 250.006 154.255L252.244 155.534C252.205 155.508 252.167 155.479 252.132 155.447C250.485 153.877 246.879 150.181 246.879 146.999ZM253.517 138.305C253.536 138.411 253.549 138.518 253.555 138.625C253.555 138.663 253.555 138.699 253.555 138.737C253.558 138.8 253.558 138.863 253.555 138.926C253.555 140.863 252.196 143.223 250.514 144.192L250.332 144.291C250.271 144.323 250.21 144.349 250.153 144.374L249.977 144.448H249.958C250.22 145.931 251.454 146.449 252.951 145.592C254.629 144.633 255.988 142.261 255.988 140.323C256.001 138.606 254.93 137.791 253.517 138.305Z" fill="#BA68C8"/>
<path opacity="0.3" d="M246.879 146.999V146.04C246.894 144.811 247.099 143.591 247.486 142.424C248.474 139.37 250.556 136.448 252.964 135.069C254.495 134.184 255.892 134.075 256.964 134.606L254.856 133.394C254.337 133.051 253.727 132.872 253.104 132.879C253.006 132.878 252.908 132.883 252.81 132.895C252.708 132.895 252.605 132.914 252.49 132.93C252.383 132.943 252.276 132.962 252.171 132.988C252.063 133.011 251.956 133.04 251.851 133.074C251.625 133.141 251.404 133.222 251.189 133.317C251.077 133.365 250.965 133.423 250.85 133.477C250.735 133.531 250.62 133.599 250.508 133.663C247.166 135.594 244.445 140.505 244.445 144.662V145.621C244.445 149.756 250.006 154.255 250.006 154.255L252.244 155.534C252.205 155.508 252.167 155.479 252.132 155.447C250.485 153.877 246.879 150.181 246.879 146.999Z" fill="black"/>
<path opacity="0.5" d="M253.516 138.305C253.535 138.411 253.548 138.518 253.554 138.625C253.554 138.663 253.554 138.698 253.554 138.737C253.557 138.8 253.557 138.863 253.554 138.925C253.554 140.863 252.195 143.223 250.513 144.192L250.331 144.291C250.27 144.323 250.21 144.348 250.152 144.374L249.976 144.448H249.957C250.219 145.931 251.453 146.449 252.95 145.592C254.629 144.633 255.988 142.26 255.988 140.323C256 138.606 254.929 137.79 253.516 138.305Z" fill="black"/>
<path d="M259.041 139.034C259.041 134.9 256.32 133.119 252.966 135.06C249.612 137.001 246.891 141.922 246.891 146.056V147.015C246.891 150.213 250.497 153.893 252.157 155.425C252.251 155.509 252.363 155.57 252.484 155.604C252.605 155.638 252.733 155.643 252.857 155.62C252.98 155.596 253.097 155.545 253.198 155.469C253.298 155.393 253.38 155.294 253.436 155.182C254.868 152.25 259.041 143.415 259.041 139.99V139.034ZM252.966 145.592C251.287 146.552 249.925 145.778 249.925 143.837C249.925 141.896 251.281 139.546 252.96 138.587C254.638 137.627 256 138.401 256 140.342C256 142.283 254.638 144.623 252.96 145.592H252.966Z" fill="#BA68C8"/>
<path d="M259.041 139.034C259.041 134.9 256.32 133.119 252.966 135.06C249.612 137.001 246.891 141.922 246.891 146.056V147.015C246.891 150.213 250.497 153.893 252.157 155.425C252.251 155.509 252.363 155.57 252.484 155.604C252.605 155.638 252.733 155.643 252.857 155.62C252.98 155.596 253.097 155.545 253.198 155.469C253.298 155.393 253.38 155.294 253.436 155.182C254.868 152.25 259.041 143.415 259.041 139.99V139.034ZM252.966 145.592C251.287 146.552 249.925 145.778 249.925 143.837C249.925 141.896 251.281 139.546 252.96 138.587C254.638 137.627 256 138.401 256 140.342C256 142.283 254.638 144.623 252.96 145.592H252.966Z" fill="#BA68C8"/>
<path d="M106.498 180.989V180.573C106.505 180.042 106.594 179.514 106.761 179.009C107.189 177.688 108.089 176.423 109.131 175.827C109.794 175.443 110.398 175.396 110.862 175.626L109.95 175.102C109.725 174.953 109.461 174.876 109.192 174.879C109.149 174.879 109.107 174.881 109.065 174.886C109.02 174.886 108.976 174.894 108.926 174.901C108.88 174.907 108.833 174.915 108.788 174.926C108.741 174.936 108.695 174.949 108.65 174.963C108.552 174.992 108.456 175.027 108.363 175.069C108.315 175.089 108.266 175.114 108.216 175.138C108.167 175.161 108.117 175.19 108.068 175.218C106.623 176.054 105.445 178.179 105.445 179.977V180.392C105.445 182.181 107.851 184.128 107.851 184.128L108.82 184.681C108.803 184.67 108.786 184.657 108.771 184.644C108.059 183.964 106.498 182.365 106.498 180.989ZM109.37 177.227C109.379 177.273 109.384 177.319 109.387 177.365C109.387 177.382 109.387 177.397 109.387 177.414C109.388 177.441 109.388 177.468 109.387 177.495C109.387 178.334 108.799 179.355 108.071 179.774L107.992 179.817C107.966 179.831 107.94 179.842 107.915 179.853L107.839 179.885H107.83C107.944 180.526 108.478 180.751 109.125 180.38C109.852 179.965 110.44 178.938 110.44 178.1C110.445 177.357 109.982 177.004 109.37 177.227Z" fill="#BA68C8"/>
<path opacity="0.3" d="M106.498 180.989V180.573C106.505 180.042 106.594 179.514 106.761 179.009C107.189 177.688 108.089 176.423 109.131 175.827C109.794 175.443 110.398 175.396 110.862 175.626L109.95 175.102C109.725 174.953 109.461 174.876 109.192 174.879C109.149 174.879 109.107 174.881 109.065 174.886C109.02 174.886 108.976 174.894 108.926 174.901C108.88 174.907 108.833 174.915 108.788 174.926C108.741 174.936 108.695 174.949 108.65 174.963C108.552 174.992 108.456 175.027 108.363 175.069C108.315 175.089 108.266 175.114 108.216 175.138C108.167 175.161 108.117 175.19 108.068 175.218C106.623 176.054 105.445 178.179 105.445 179.977V180.392C105.445 182.181 107.851 184.128 107.851 184.128L108.82 184.681C108.803 184.67 108.786 184.657 108.771 184.644C108.059 183.964 106.498 182.365 106.498 180.989Z" fill="black"/>
<path opacity="0.5" d="M109.372 177.226C109.38 177.272 109.386 177.318 109.388 177.365C109.388 177.381 109.388 177.396 109.388 177.413C109.39 177.44 109.39 177.467 109.388 177.495C109.388 178.333 108.8 179.354 108.073 179.773L107.994 179.816C107.968 179.83 107.941 179.841 107.916 179.852L107.84 179.884H107.832C107.945 180.526 108.48 180.75 109.127 180.379C109.853 179.964 110.441 178.938 110.441 178.099C110.447 177.356 109.983 177.003 109.372 177.226Z" fill="black"/>
<path d="M111.761 177.542C111.761 175.753 110.584 174.983 109.133 175.822C107.681 176.662 106.504 178.791 106.504 180.58V180.995C106.504 182.379 108.064 183.971 108.783 184.634C108.823 184.67 108.872 184.697 108.924 184.712C108.977 184.726 109.032 184.729 109.085 184.718C109.139 184.708 109.189 184.686 109.233 184.653C109.276 184.62 109.312 184.578 109.336 184.529C109.956 183.26 111.761 179.438 111.761 177.956V177.542ZM109.133 180.38C108.406 180.795 107.817 180.46 107.817 179.62C107.817 178.78 108.403 177.764 109.13 177.348C109.856 176.933 110.446 177.268 110.446 178.108C110.446 178.948 109.856 179.961 109.13 180.38H109.133Z" fill="#BA68C8"/>
<path d="M111.761 177.542C111.761 175.753 110.584 174.983 109.133 175.822C107.681 176.662 106.504 178.791 106.504 180.58V180.995C106.504 182.379 108.064 183.971 108.783 184.634C108.823 184.67 108.872 184.697 108.924 184.712C108.977 184.726 109.032 184.729 109.085 184.718C109.139 184.708 109.189 184.686 109.233 184.653C109.276 184.62 109.312 184.578 109.336 184.529C109.956 183.26 111.761 179.438 111.761 177.956V177.542ZM109.133 180.38C108.406 180.795 107.817 180.46 107.817 179.62C107.817 178.78 108.403 177.764 109.13 177.348C109.856 176.933 110.446 177.268 110.446 178.108C110.446 178.948 109.856 179.961 109.13 180.38H109.133Z" fill="#BA68C8"/>
<path d="M145.941 165.766L157.975 172.711V176.487L145.941 169.542V165.766Z" fill="#BA68C8"/>
<path opacity="0.35" d="M145.941 165.766L157.975 172.711V176.487L145.941 169.542V165.766Z" fill="black"/>
<path d="M170.005 169.542V165.766L157.977 172.71V176.486" fill="#BA68C8"/>
<path opacity="0.15" d="M170.005 165.766L157.977 172.71V176.486L170.005 169.542V165.766Z" fill="black"/>
<path d="M170.004 165.766L157.975 158.822L145.941 165.766L157.975 172.711L170.004 165.766Z" fill="#BA68C8"/>
<path opacity="0.5" d="M170.004 165.766L157.975 158.822L145.941 165.766L157.975 172.711L170.004 165.766Z" fill="black"/>
<path d="M145.941 165.184L157.975 172.129V170.974L145.941 164.029V165.184Z" fill="#BA68C8"/>
<path opacity="0.35" d="M145.941 165.184L157.975 172.129V170.974L145.941 164.029V165.184Z" fill="black"/>
<path d="M157.977 172.129L170.005 165.184V164.029L157.977 170.974V172.129Z" fill="#BA68C8"/>
<path opacity="0.15" d="M157.977 172.129L170.005 165.184V164.029L157.977 170.974V172.129Z" fill="black"/>
<path d="M170.004 164.029L157.975 157.084L145.941 164.029L157.975 170.974L170.004 164.029Z" fill="#BA68C8"/>
<path opacity="0.5" d="M170.004 164.029L157.975 157.084L145.941 164.029L157.975 170.974L170.004 164.029Z" fill="black"/>
<path d="M145.941 163.318L157.975 170.263V169.108L145.941 162.163V163.318Z" fill="#BA68C8"/>
<path opacity="0.35" d="M145.941 163.318L157.975 170.263V169.108L145.941 162.163V163.318Z" fill="black"/>
<path d="M157.977 170.262L170.005 163.317V162.162L157.977 169.107V170.262Z" fill="#BA68C8"/>
<path opacity="0.15" d="M157.977 170.262L170.005 163.317V162.162L157.977 169.107V170.262Z" fill="black"/>
<path d="M170.004 162.163L157.975 155.218L145.941 162.163L157.975 169.108L170.004 162.163Z" fill="#BA68C8"/>
<path opacity="0.5" d="M170.004 162.163L157.975 155.218L145.941 162.163L157.975 169.108L170.004 162.163Z" fill="black"/>
<path d="M157.974 167.804V138.642L147.949 132.857V162.014L157.974 167.804Z" fill="#BA68C8"/>
<path d="M157.977 138.642L168.001 132.857V162.014L157.977 167.804V138.642Z" fill="#BA68C8"/>
<path d="M167.999 132.858L157.974 127.068L147.949 132.858L157.974 138.643L167.999 132.858Z" fill="#BA68C8"/>
<path opacity="0.4" d="M167.999 132.858L157.974 127.068L147.949 132.858L157.974 138.643L167.999 132.858Z" fill="black"/>
<path opacity="0.2" d="M157.974 167.804V138.642L147.949 132.857V162.014L157.974 167.804Z" fill="black"/>
<path d="M157.974 137.489V112.928L149.953 108.189V132.859L157.974 137.489Z" fill="#BA68C8"/>
<path d="M157.977 137.489V112.928L165.993 108.189V132.859L157.977 137.489Z" fill="#BA68C8"/>
<path d="M165.99 108.189L157.974 103.613L149.953 108.189L157.974 112.927L165.99 108.189Z" fill="#BA68C8"/>
<path opacity="0.4" d="M165.99 108.189L157.974 103.613L149.953 108.189L157.974 112.927L165.99 108.189Z" fill="black"/>
<path opacity="0.2" d="M157.974 137.489V112.928L149.953 108.189V132.859L157.974 137.489Z" fill="black"/>
<path d="M157.977 111.135V107.665L162.987 104.768V108.242L157.977 111.135Z" fill="#BA68C8"/>
<path d="M152.961 108.243V104.768L157.976 107.665V111.135L152.961 108.243Z" fill="#BA68C8"/>
<path opacity="0.2" d="M152.961 108.243V104.768L157.976 107.665V111.135L152.961 108.243Z" fill="black"/>
<path d="M162.986 104.768L157.976 101.876L152.961 104.768L157.976 107.665L162.986 104.768Z" fill="#BA68C8"/>
<path opacity="0.4" d="M162.986 104.768L157.976 101.876L152.961 104.768L157.976 107.665L162.986 104.768Z" fill="black"/>
<path d="M157.977 106.505V90.3008L160.983 104.768L157.977 106.505Z" fill="#BA68C8"/>
<path opacity="0.1" d="M157.977 106.505V90.3008L160.983 104.768L157.977 106.505Z" fill="black"/>
<path d="M154.93 104.768L157.975 90.3008V106.505L154.93 104.768Z" fill="#BA68C8"/>
<path opacity="0.25" d="M154.93 104.768L157.975 90.3008V106.505L154.93 104.768Z" fill="black"/>
<path d="M244.766 210.543L252.561 215.042V217.488L244.766 212.989V210.543Z" fill="#BA68C8"/>
<path opacity="0.35" d="M244.766 210.543L252.561 215.042V217.488L244.766 212.989V210.543Z" fill="black"/>
<path d="M260.355 212.989V210.543L252.562 215.042V217.488" fill="#BA68C8"/>
<path opacity="0.15" d="M260.355 210.543L252.562 215.042V217.488L260.355 212.989V210.543Z" fill="black"/>
<path d="M260.354 210.543L252.561 206.044L244.766 210.543L252.561 215.042L260.354 210.543Z" fill="#BA68C8"/>
<path opacity="0.5" d="M260.354 210.543L252.561 206.044L244.766 210.543L252.561 215.042L260.354 210.543Z" fill="black"/>
<path d="M244.766 210.166L252.561 214.665V213.917L244.766 209.418V210.166Z" fill="#BA68C8"/>
<path opacity="0.35" d="M244.766 210.166L252.561 214.665V213.917L244.766 209.418V210.166Z" fill="black"/>
<path d="M252.562 214.665L260.355 210.166V209.418L252.562 213.917V214.665Z" fill="#BA68C8"/>
<path opacity="0.15" d="M252.562 214.665L260.355 210.166V209.418L252.562 213.917V214.665Z" fill="black"/>
<path d="M260.354 209.418L252.561 204.919L244.766 209.418L252.561 213.917L260.354 209.418Z" fill="#BA68C8"/>
<path opacity="0.5" d="M260.354 209.418L252.561 204.919L244.766 209.418L252.561 213.917L260.354 209.418Z" fill="black"/>
<path d="M244.766 208.957L252.561 213.456V212.708L244.766 208.209V208.957Z" fill="#BA68C8"/>
<path opacity="0.35" d="M244.766 208.957L252.561 213.456V212.708L244.766 208.209V208.957Z" fill="black"/>
<path d="M252.562 213.456L260.355 208.957V208.209L252.562 212.708V213.456Z" fill="#BA68C8"/>
<path opacity="0.15" d="M252.562 213.456L260.355 208.957V208.209L252.562 212.708V213.456Z" fill="black"/>
<path d="M260.354 208.209L252.561 203.71L244.766 208.209L252.561 212.708L260.354 208.209Z" fill="#BA68C8"/>
<path opacity="0.5" d="M260.354 208.209L252.561 203.71L244.766 208.209L252.561 212.708L260.354 208.209Z" fill="black"/>
<path d="M252.561 211.864V192.973L246.066 189.225V208.113L252.561 211.864Z" fill="#BA68C8"/>
<path d="M252.562 192.972L259.057 189.225V208.112L252.562 211.863V192.972Z" fill="#BA68C8"/>
<path d="M259.055 189.225L252.561 185.474L246.066 189.225L252.561 192.973L259.055 189.225Z" fill="#BA68C8"/>
<path opacity="0.4" d="M259.055 189.225L252.561 185.474L246.066 189.225L252.561 192.973L259.055 189.225Z" fill="black"/>
<path opacity="0.2" d="M252.561 211.864V192.973L246.066 189.225V208.113L252.561 211.864Z" fill="black"/>
<path d="M252.559 192.225V176.314L247.363 173.244V189.225L252.559 192.225Z" fill="#BA68C8"/>
<path d="M252.562 192.225V176.314L257.755 173.244V189.225L252.562 192.225Z" fill="#BA68C8"/>
<path d="M257.752 173.243L252.559 170.279L247.363 173.243L252.559 176.313L257.752 173.243Z" fill="#BA68C8"/>
<path opacity="0.4" d="M257.752 173.243L252.559 170.279L247.363 173.243L252.559 176.313L257.752 173.243Z" fill="black"/>
<path opacity="0.2" d="M252.559 192.225V176.314L247.363 173.244V189.225L252.559 192.225Z" fill="black"/>
<path d="M252.562 175.152V172.904L255.808 171.027V173.278L252.562 175.152Z" fill="#BA68C8"/>
<path d="M249.312 173.279V171.028L252.561 172.905V175.153L249.312 173.279Z" fill="#BA68C8"/>
<path opacity="0.2" d="M249.312 173.279V171.028L252.561 172.905V175.153L249.312 173.279Z" fill="black"/>
<path d="M255.807 171.028L252.561 169.155L249.312 171.028L252.561 172.905L255.807 171.028Z" fill="#BA68C8"/>
<path opacity="0.4" d="M255.807 171.028L252.561 169.155L249.312 171.028L252.561 172.905L255.807 171.028Z" fill="black"/>
<path d="M252.562 172.154V161.656L254.51 171.028L252.562 172.154Z" fill="#BA68C8"/>
<path opacity="0.1" d="M252.562 172.154V161.656L254.51 171.028L252.562 172.154Z" fill="black"/>
<path d="M250.59 171.028L252.563 161.656V172.154L250.59 171.028Z" fill="#BA68C8"/>
<path opacity="0.25" d="M250.59 171.028L252.563 161.656V172.154L250.59 171.028Z" fill="black"/>
<path d="M105.586 208.481L108.959 210.428V211.486L105.586 209.54V208.481Z" fill="#BA68C8"/>
<path opacity="0.35" d="M105.586 208.481L108.959 210.428V211.486L105.586 209.54V208.481Z" fill="black"/>
<path d="M112.329 209.54V208.481L108.957 210.428V211.486" fill="#BA68C8"/>
<path opacity="0.15" d="M112.329 208.481L108.957 210.428V211.486L112.329 209.54V208.481Z" fill="black"/>
<path d="M112.331 208.481L108.959 206.535L105.586 208.481L108.959 210.428L112.331 208.481Z" fill="#BA68C8"/>
<path opacity="0.5" d="M112.331 208.481L108.959 206.535L105.586 208.481L108.959 210.428L112.331 208.481Z" fill="black"/>
<path d="M105.586 208.318L108.959 210.265V209.941L105.586 207.995V208.318Z" fill="#BA68C8"/>
<path opacity="0.35" d="M105.586 208.318L108.959 210.265V209.941L105.586 207.995V208.318Z" fill="black"/>
<path d="M108.957 210.265L112.329 208.319V207.995L108.957 209.942V210.265Z" fill="#BA68C8"/>
<path opacity="0.15" d="M108.957 210.265L112.329 208.319V207.995L108.957 209.942V210.265Z" fill="black"/>
<path d="M112.331 207.995L108.959 206.048L105.586 207.995L108.959 209.941L112.331 207.995Z" fill="#BA68C8"/>
<path opacity="0.5" d="M112.331 207.995L108.959 206.048L105.586 207.995L108.959 209.941L112.331 207.995Z" fill="black"/>
<path d="M105.586 207.795L108.959 209.742V209.418L105.586 207.472V207.795Z" fill="#BA68C8"/>
<path opacity="0.35" d="M105.586 207.795L108.959 209.742V209.418L105.586 207.472V207.795Z" fill="black"/>
<path d="M108.957 209.742L112.329 207.795V207.472L108.957 209.418V209.742Z" fill="#BA68C8"/>
<path opacity="0.15" d="M108.957 209.742L112.329 207.795V207.472L108.957 209.418V209.742Z" fill="black"/>
<path d="M112.331 207.471L108.959 205.525L105.586 207.471L108.959 209.418L112.331 207.471Z" fill="#BA68C8"/>
<path opacity="0.5" d="M112.331 207.471L108.959 205.525L105.586 207.471L108.959 209.418L112.331 207.471Z" fill="black"/>
<path d="M108.958 209.053V200.879L106.148 199.258V207.43L108.958 209.053Z" fill="#BA68C8"/>
<path d="M108.957 200.88L111.767 199.259V207.431L108.957 209.054V200.88Z" fill="#BA68C8"/>
<path d="M111.768 199.258L108.958 197.635L106.148 199.258L108.958 200.879L111.768 199.258Z" fill="#BA68C8"/>
<path opacity="0.4" d="M111.768 199.258L108.958 197.635L106.148 199.258L108.958 200.879L111.768 199.258Z" fill="black"/>
<path opacity="0.2" d="M108.958 209.053V200.879L106.148 199.258V207.43L108.958 209.053Z" fill="black"/>
<path d="M108.959 200.555V193.671L106.711 192.343V199.258L108.959 200.555Z" fill="#BA68C8"/>
<path d="M108.957 200.555V193.671L111.204 192.343V199.258L108.957 200.555Z" fill="#BA68C8"/>
<path d="M111.206 192.343L108.959 191.061L106.711 192.343L108.959 193.671L111.206 192.343Z" fill="#BA68C8"/>
<path opacity="0.4" d="M111.206 192.343L108.959 191.061L106.711 192.343L108.959 193.671L111.206 192.343Z" fill="black"/>
<path opacity="0.2" d="M108.959 200.555V193.671L106.711 192.343V199.258L108.959 200.555Z" fill="black"/>
<path d="M108.957 193.169V192.196L110.361 191.384V192.358L108.957 193.169Z" fill="#BA68C8"/>
<path d="M107.555 192.358V191.384L108.96 192.196V193.169L107.555 192.358Z" fill="#BA68C8"/>
<path opacity="0.2" d="M107.555 192.358V191.384L108.96 192.196V193.169L107.555 192.358Z" fill="black"/>
<path d="M110.365 191.384L108.96 190.573L107.555 191.384L108.96 192.196L110.365 191.384Z" fill="#BA68C8"/>
<path opacity="0.4" d="M110.365 191.384L108.96 190.573L107.555 191.384L108.96 192.196L110.365 191.384Z" fill="black"/>
<path d="M108.957 191.871V187.329L109.8 191.384L108.957 191.871Z" fill="#BA68C8"/>
<path opacity="0.1" d="M108.957 191.871V187.329L109.8 191.384L108.957 191.871Z" fill="black"/>
<path d="M108.105 191.384L108.959 187.329V191.871L108.105 191.384Z" fill="#BA68C8"/>
<path opacity="0.25" d="M108.105 191.384L108.959 187.329V191.871L108.105 191.384Z" fill="black"/>
</svg>
