<svg width="14" height="14" viewBox="0 0 14 14" fill="none" xmlns="http://www.w3.org/2000/svg">
<path d="M7.00065 3.50002C7.64498 3.50002 8.16732 2.97769 8.16732 2.33335C8.16732 1.68902 7.64498 1.16669 7.00065 1.16669C6.35632 1.16669 5.83398 1.68902 5.83398 2.33335C5.83398 2.97769 6.35632 3.50002 7.00065 3.50002Z" fill="black" fill-opacity="0.4"/>
<path d="M8.74935 4.08331H5.24935C5.09464 4.08331 4.94627 4.14477 4.83687 4.25417C4.72747 4.36356 4.66602 4.51194 4.66602 4.66665V8.74998H5.83268V12.8333H8.16602V8.74998H9.33268V4.66665C9.33268 4.51194 9.27122 4.36356 9.16183 4.25417C9.05243 4.14477 8.90406 4.08331 8.74935 4.08331Z" fill="black" fill-opacity="0.4"/>
</svg>
