<svg width="62" height="60" viewBox="0 0 62 60" fill="none" xmlns="http://www.w3.org/2000/svg">
<circle cx="18.5" cy="22.5" r="43.5"  fill="#6A45FB"/>
<path d="M41.5 17.5H15.5C13.7125 17.5 12.25 18.9625 12.25 20.75V40.25C12.25 42.0375 13.7125 43.5 15.5 43.5H41.5C43.2875 43.5 44.75 42.0375 44.75 40.25V20.75C44.75 18.9625 43.2875 17.5 41.5 17.5ZM41.5 40.25H15.5V20.75H41.5V40.25Z" fill="white"/>
<path d="M19.5456 28.0625V35.375H21.4144V25.625H20.0006L17.1406 27.6888L18.0831 29.135L19.5456 28.0625Z" fill="white"/>
<path d="M27.6389 27.3309C28.4514 27.3309 28.9552 27.8509 28.9552 28.5009C28.9552 29.1021 28.7277 29.5409 28.0777 30.2234C27.4927 30.8409 26.3552 31.9784 24.6164 33.7171V35.3746H30.9377V33.7659H27.0864L27.0377 33.6846C28.1427 32.5796 28.9064 31.8321 29.3127 31.4259C30.3039 30.4509 30.8077 29.4434 30.8077 28.4034C30.8077 28.0134 30.7264 26.7134 29.3289 25.9984C28.5652 25.6246 27.2814 25.4134 26.1602 25.9496C24.8277 26.5834 24.5514 27.7859 24.5352 27.8184L26.1764 28.5009C26.3389 27.9646 26.7939 27.3309 27.6389 27.3309Z" fill="white"/>
<path d="M36.6086 33.6525C35.2598 33.6525 34.9998 32.4175 34.9511 32.255L33.2773 32.9213C34.0086 35.505 36.5436 35.375 36.6086 35.375C38.5586 35.375 39.3386 34.205 39.4686 33.9937C39.9886 33.1975 40.0536 31.9788 39.4523 31.1338C39.1761 30.7438 38.8023 30.4675 38.3473 30.2888V30.175C38.6723 30.0125 38.9486 29.7525 39.1923 29.395C39.6148 28.7287 39.6961 27.6563 39.1598 26.8438C39.0298 26.665 38.2986 25.625 36.5273 25.625C34.4798 25.625 33.6998 27.0875 33.5211 27.64L35.1298 28.3062C35.3086 27.7862 35.6986 27.2663 36.5111 27.2663C37.2261 27.2663 37.7298 27.6887 37.7298 28.3225C37.7298 29.265 36.8361 29.4925 36.2998 29.4925H35.5523V31.1175H36.3648C37.2748 31.1175 38.0548 31.5075 38.0548 32.4013C38.0548 33.1975 37.2748 33.6525 36.6086 33.6525Z" fill="white"/>
</svg>
