<svg width="311" height="311" viewBox="0 0 311 311" fill="none" xmlns="http://www.w3.org/2000/svg">
<path opacity="0.31" d="M258.879 214.564C258.444 214.57 255.769 210.993 255.256 210.498C251.066 206.444 248.552 201.989 246.663 197.142C245.223 193.448 244.149 189.523 242.977 185.382C242.185 182.589 240.91 179.467 238.145 178.586C235.456 177.731 232.559 179.505 230.906 181.791C229.25 184.077 228.418 186.851 227.004 189.292C224.438 193.718 219.897 195.573 216.142 191.683C210.78 186.125 208.364 178.546 204.963 171.767C202.496 166.846 200.428 161.084 197.318 156.545C192.575 149.628 186.07 143.728 177.423 143.728C171.94 144.557 167.111 149.415 163.839 155.483C160.571 161.55 158.662 168.769 157.038 175.968C155.676 182.007 154.481 188.112 153.375 194.248C151.319 186.853 149.179 179.513 146.864 172.3C144.356 164.487 141.586 156.704 137.738 150.452C133.891 144.2 128.797 139.59 123.683 139.622C115.801 141.148 110.716 148.929 107.381 157.55C105.196 163.203 104.136 170.051 102.587 176.023C100.456 184.25 99.3386 193.2 95.2437 200.402C92.3785 205.441 87.9727 204.157 85.0038 199.627C83.3653 197.128 82.2105 194.156 80.3762 191.876C78.5419 189.595 75.6478 188.109 73.3211 189.546C70.9281 191.023 70.2111 194.764 69.8886 198.044C69.4106 202.913 68.993 207.515 68.2069 211.926C68.037 212.888 67.8469 213.838 67.6367 214.78H149.925C149.867 215.131 149.81 215.486 149.755 215.837C149.755 215.837 258.879 214.564 258.879 214.564Z" fill="#DCE6EF"/>
<path opacity="0.77" d="M225.952 203.38C225.739 207.621 221.123 215.036 216.881 214.823C212.64 214.61 210.376 206.847 210.592 202.605C210.805 198.363 215.323 177.135 219.565 177.351C223.804 177.564 226.165 199.138 225.952 203.38Z" fill="#1B6AEC"/>
<path d="M217.221 214.596C217.218 214.596 217.215 214.596 217.215 214.596C217.155 214.593 217.106 214.538 217.112 214.478L219.251 180.101C219.254 180.04 219.303 179.988 219.369 179.997C219.43 180 219.479 180.055 219.473 180.115L217.334 214.492C217.328 214.55 217.279 214.596 217.221 214.596Z" fill="#0B4870"/>
<path opacity="0.77" d="M216.244 202.496C215.279 204.618 214.542 206.844 214.098 209.165C213.874 210.34 213.73 211.615 214.263 212.689C214.844 213.861 216.134 214.544 217.424 214.757C220.578 215.275 223.731 213.343 225.58 210.737C227.428 208.131 228.229 204.943 228.963 201.836C229.542 199.388 230.109 196.903 231.201 194.623C231.667 193.644 234.406 189.868 233.11 188.889C231.339 187.498 226.213 189.01 222.93 192.598C220.223 195.547 217.897 198.867 216.244 202.496Z" fill="#1B6AEC"/>
<path d="M217.423 214.866C217.415 214.866 217.406 214.866 217.394 214.864C217.334 214.849 217.299 214.786 217.314 214.728C217.351 214.578 221.236 199.78 230.344 191.354C230.39 191.314 230.459 191.314 230.502 191.36C230.546 191.406 230.543 191.475 230.497 191.518C221.435 199.898 217.57 214.636 217.533 214.783C217.521 214.835 217.475 214.866 217.423 214.866Z" fill="#0B4870"/>
<path opacity="0.77" d="M238.539 199.003C238.214 199.587 237.603 199.985 237.048 200.296C236.365 200.682 235.637 201.018 234.931 201.347C234.027 201.767 233.094 202.202 232.23 202.743C231.602 203.138 231.044 203.584 230.574 204.062C231.314 202.381 232.181 200.912 233.2 199.599C234.542 197.871 235.919 196.996 237.298 196.996C237.33 196.996 237.362 196.996 237.393 196.998C237.819 197.01 238.151 197.117 238.378 197.312C238.847 197.713 238.827 198.484 238.539 199.003ZM240.077 208.583C239.533 208.972 238.81 209.07 238.176 209.116C237.393 209.171 236.59 209.165 235.815 209.162C234.819 209.156 233.788 209.148 232.777 209.269C232.04 209.358 231.343 209.522 230.715 209.752C232.103 208.549 233.514 207.59 234.997 206.841C236.95 205.853 238.568 205.652 239.815 206.242C239.844 206.256 239.873 206.271 239.901 206.285C240.281 206.478 240.535 206.714 240.659 206.991C240.906 207.549 240.558 208.241 240.077 208.583Z" fill="#1B6AEC"/>
<path opacity="0.77" d="M236.45 213.3C235.997 213.237 235.591 212.949 235.255 212.672C234.84 212.332 234.442 211.955 234.059 211.587C233.567 211.117 233.057 210.631 232.499 210.216C232.09 209.914 231.667 209.669 231.246 209.49C232.502 209.542 233.651 209.726 234.742 210.049C236.176 210.472 237.074 211.132 237.417 212.007C237.426 212.027 237.431 212.047 237.44 212.068C237.538 212.341 237.552 212.577 237.486 212.773C237.348 213.173 236.85 213.355 236.45 213.3Z" fill="#1B6AEC"/>
<path d="M226.128 214.953C226.07 214.947 226.016 214.904 226.016 214.84C226.016 214.748 226.186 205.626 237.18 197.98C237.232 197.946 237.301 197.957 237.335 198.009C237.37 198.061 237.359 198.13 237.307 198.164C226.407 205.744 226.237 214.751 226.237 214.84C226.24 214.901 226.191 214.953 226.128 214.953Z" fill="#0B4870"/>
<path d="M226.128 214.953C226.111 214.953 226.096 214.95 226.079 214.941C226.021 214.916 225.998 214.849 226.024 214.792C226.059 214.72 229.56 207.443 238.744 207.443C238.807 207.443 238.856 207.492 238.856 207.555C238.856 207.619 238.807 207.667 238.744 207.667C229.707 207.667 226.26 214.815 226.229 214.887C226.211 214.927 226.171 214.953 226.128 214.953Z" fill="#0B4870"/>
<path d="M236.657 212.376C236.634 212.376 236.611 212.367 236.591 212.352C232.957 209.611 231.169 209.692 231.154 209.695C231.091 209.7 231.039 209.651 231.033 209.591C231.03 209.53 231.077 209.476 231.137 209.47C231.212 209.461 233.006 209.369 236.726 212.174C236.775 212.211 236.787 212.28 236.749 212.332C236.726 212.358 236.692 212.376 236.657 212.376Z" fill="#0B4870"/>
<path d="M95.9929 201.563C94.3947 199.717 92.3704 198.127 91.7311 195.798C91.2646 194.096 91.6332 192.296 91.8146 190.542C91.996 188.789 91.9327 186.848 90.7981 185.5C89.8622 184.389 88.385 183.905 86.9653 183.6C85.5456 183.294 84.0626 183.101 82.8014 182.379C80.7539 181.204 81.1628 179.208 80.0628 177.457C78.8303 175.493 75.9593 172.985 73.5001 174.29C70.897 175.672 71.3087 179.868 73.0394 181.719C74.1884 182.949 75.6599 184.127 75.8298 185.803C76.0832 188.322 73.1978 190.591 73.9897 192.999C74.5771 194.775 76.8146 195.386 77.9233 196.895C79.0175 198.389 78.7958 200.48 78.1536 202.216C77.5086 203.953 76.495 205.557 76.0947 207.362C75.274 211.06 78.1767 213.614 81.4825 214.44C84.5205 215.198 91.0716 214.841 91.0716 214.841C93.4099 214.023 96.0016 211.97 97.2888 209.724C98.2592 208.028 98.3945 205.879 97.643 204.074C97.2542 203.147 96.661 202.332 95.9929 201.563Z" fill="#1B6AEC"/>
<path d="M88.8171 214.858C88.7595 214.858 88.7076 214.812 88.7048 214.751C87.504 195.812 76.4318 178.511 76.3195 178.338C76.2849 178.286 76.2993 178.217 76.354 178.183C76.4059 178.148 76.475 178.163 76.5095 178.217C76.6218 178.39 87.7257 195.743 88.9322 214.737C88.9351 214.797 88.8891 214.852 88.8286 214.855C88.8228 214.858 88.8199 214.858 88.8171 214.858Z" fill="#0B4870"/>
<path d="M66.4497 201.586C66.6225 201.439 66.873 201.358 67.1955 201.35C67.2185 201.35 67.2445 201.35 67.2675 201.35C68.307 201.35 69.3495 202.012 70.366 203.316C71.1377 204.31 71.7914 205.421 72.35 206.691C71.9958 206.329 71.5725 205.992 71.0974 205.695C70.4466 205.286 69.7382 204.958 69.0557 204.638C68.523 204.391 67.973 204.134 67.4575 203.843C67.0371 203.607 66.5764 203.305 66.3287 202.864C66.1099 202.473 66.0955 201.888 66.4497 201.586ZM64.7277 208.903C64.8198 208.696 65.0127 208.517 65.3007 208.37C65.3209 208.359 65.3439 208.35 65.3641 208.338C66.3057 207.892 67.5295 208.045 69.0068 208.791C70.1298 209.358 71.1953 210.084 72.2464 210.994C71.7712 210.818 71.2443 210.694 70.6885 210.628C69.9225 210.536 69.145 210.541 68.3905 210.547C67.8031 210.55 67.1955 210.556 66.6052 210.513C66.1243 210.478 65.58 210.403 65.1682 210.109C64.7996 209.85 64.5376 209.326 64.7277 208.903Z" fill="#1B6AEC"/>
<path d="M67.1236 213.28C67.0718 213.133 67.0833 212.954 67.1582 212.747C67.1639 212.732 67.1697 212.715 67.1754 212.701C67.4346 212.038 68.1142 211.54 69.1998 211.221C70.0234 210.976 70.893 210.838 71.8433 210.797C71.5237 210.933 71.204 211.117 70.8959 211.347C70.4726 211.661 70.0867 212.027 69.7153 212.384C69.4244 212.66 69.1249 212.948 68.8111 213.205C68.5577 213.412 68.2495 213.631 67.9069 213.68C67.6045 213.717 67.2302 213.579 67.1236 213.28Z" fill="#1B6AEC"/>
<path d="M75.7109 214.953C75.6504 214.953 75.5986 214.904 75.5986 214.841C75.5986 214.772 75.4632 207.97 67.2419 202.254C67.1901 202.219 67.1786 202.147 67.2131 202.098C67.2477 202.047 67.3197 202.035 67.3686 202.07C75.6936 207.858 75.8232 214.772 75.8232 214.841C75.8261 214.901 75.7742 214.953 75.7109 214.953C75.7138 214.953 75.7138 214.953 75.7109 214.953Z" fill="#0B4870"/>
<path d="M75.715 214.953C75.6718 214.953 75.6315 214.93 75.6142 214.889C75.5883 214.835 72.988 209.447 66.1748 209.447C66.1115 209.447 66.0625 209.398 66.0625 209.334C66.0625 209.271 66.1115 209.222 66.1748 209.222C73.1349 209.222 75.7899 214.74 75.8158 214.794C75.8417 214.852 75.8187 214.918 75.7611 214.944C75.7467 214.947 75.7294 214.953 75.715 214.953Z" fill="#0B4870"/>
<path d="M67.7529 213.003C67.7183 213.003 67.6867 212.989 67.6636 212.957C67.6262 212.908 67.6348 212.836 67.6867 212.799C70.5058 210.671 71.8736 210.746 71.9312 210.748C71.9917 210.754 72.0407 210.806 72.0349 210.869C72.0291 210.93 71.9773 210.982 71.914 210.973C71.8996 210.973 70.5577 210.915 67.822 212.977C67.799 212.997 67.7759 213.003 67.7529 213.003Z" fill="#0B4870"/>
<path d="M186.82 210.201H107.866C106.127 210.201 104.713 208.788 104.713 207.048V100.79C104.713 99.0506 106.127 97.6367 107.866 97.6367H131.465V98.5006H107.866C106.605 98.5006 105.577 99.5286 105.577 100.79V207.048C105.577 208.31 106.605 209.338 107.866 209.338H186.82C188.081 209.338 189.109 208.31 189.109 207.048V100.79C189.109 99.5286 188.081 98.5006 186.82 98.5006H163.227V97.6367H186.82C188.559 97.6367 189.973 99.0506 189.973 100.79V207.048C189.973 208.785 188.559 210.201 186.82 210.201Z" fill="#1B6AEC"/>
<path d="M183.525 204.615H111.16C110.547 204.615 110.049 204.117 110.049 203.503V104.335C110.049 103.721 110.547 103.223 111.16 103.223H183.525C184.139 103.223 184.637 103.721 184.637 104.335V203.503C184.637 204.117 184.139 204.615 183.525 204.615Z" fill="#F2F2F2"/>
<path d="M163.601 106.166H131.084V95.5261H140.497C140.561 91.8056 143.607 88.7964 147.342 88.7964C151.077 88.7964 154.124 91.8056 154.187 95.5261H163.601V106.166V106.166ZM131.948 105.302H162.737V96.39H153.286L153.315 95.8198C153.318 95.7622 153.323 95.7017 153.323 95.6413C153.323 92.3441 150.64 89.6603 147.342 89.6603C144.045 89.6603 141.361 92.3441 141.361 95.6413C141.361 95.7017 141.367 95.7622 141.37 95.8198L141.399 96.39H131.948V105.302Z" fill="#1B6AEC"/>
<path d="M147.343 99.6757C145.12 99.6757 143.309 97.8673 143.309 95.6413C143.309 93.4153 145.117 91.6069 147.343 91.6069C149.569 91.6069 151.377 93.4153 151.377 95.6413C151.377 97.8673 149.566 99.6757 147.343 99.6757ZM147.343 92.4737C145.595 92.4737 144.172 93.8962 144.172 95.6442C144.172 97.3921 145.595 98.8147 147.343 98.8147C149.091 98.8147 150.513 97.3921 150.513 95.6442C150.513 93.8962 149.091 92.4737 147.343 92.4737Z" fill="#1B6AEC"/>
<path d="M260.895 226.875H50.1058C46.7654 226.875 44.0586 224.168 44.0586 220.827C44.0586 217.487 46.7654 214.78 50.1058 214.78H260.895C264.235 214.78 266.942 217.487 266.942 220.827C266.942 224.168 264.235 226.875 260.895 226.875Z" fill="#D3D3D3"/>
<path d="M131.909 131.372H119.449V118.912H131.909V131.372ZM119.737 131.084H131.621V119.2H119.737V131.084Z" fill="#0B4870"/>
<path d="M126.091 128.625L121.973 125.391L122.684 124.487L126.013 127.099L133.221 120.156L134.018 120.985L126.091 128.625Z" fill="#0B4870"/>
<path d="M177.269 122.511H137.608C137.349 122.511 137.139 122.301 137.139 122.042C137.139 121.782 137.349 121.572 137.608 121.572H177.269C177.528 121.572 177.739 121.782 177.739 122.042C177.739 122.301 177.528 122.511 177.269 122.511ZM177.269 124.579H137.608C137.349 124.579 137.139 124.368 137.139 124.109C137.139 123.85 137.349 123.64 137.608 123.64H177.269C177.528 123.64 177.739 123.85 177.739 124.109C177.739 124.368 177.528 124.579 177.269 124.579ZM177.269 126.643H137.608C137.349 126.643 137.139 126.433 137.139 126.174C137.139 125.915 137.349 125.705 137.608 125.705H177.269C177.528 125.705 177.739 125.915 177.739 126.174C177.739 126.433 177.528 126.643 177.269 126.643ZM177.269 128.711H137.608C137.349 128.711 137.139 128.501 137.139 128.241C137.139 127.982 137.349 127.772 137.608 127.772H177.269C177.528 127.772 177.739 127.982 177.739 128.241C177.739 128.501 177.528 128.711 177.269 128.711Z" fill="#0B4870"/>
<path d="M131.909 150.967H119.449V138.507H131.909V150.967ZM119.737 150.68H131.621V138.795H119.737V150.68Z" fill="#0B4870"/>
<path d="M126.091 148.22L121.973 144.987L122.684 144.082L126.013 146.694L133.221 139.751L134.018 140.581L126.091 148.22Z" fill="#0B4870"/>
<path d="M177.269 142.107H137.608C137.349 142.107 137.139 141.897 137.139 141.637C137.139 141.378 137.349 141.168 137.608 141.168H177.269C177.528 141.168 177.739 141.378 177.739 141.637C177.739 141.897 177.528 142.107 177.269 142.107ZM177.269 144.174H137.608C137.349 144.174 137.139 143.964 137.139 143.705C137.139 143.446 137.349 143.236 137.608 143.236H177.269C177.528 143.236 177.739 143.446 177.739 143.705C177.739 143.964 177.528 144.174 177.269 144.174ZM177.269 146.239H137.608C137.349 146.239 137.139 146.029 137.139 145.77C137.139 145.51 137.349 145.3 137.608 145.3H177.269C177.528 145.3 177.739 145.51 177.739 145.77C177.739 146.029 177.528 146.239 177.269 146.239ZM177.269 148.307H137.608C137.349 148.307 137.139 148.096 137.139 147.837C137.139 147.578 137.349 147.368 137.608 147.368H177.269C177.528 147.368 177.739 147.578 177.739 147.837C177.739 148.096 177.528 148.307 177.269 148.307Z" fill="#0B4870"/>
<path d="M131.909 170.564H119.449V158.104H131.909V170.564ZM119.737 170.276H131.621V158.391H119.737V170.276Z" fill="#0B4870"/>
<path d="M126.091 167.817L121.973 164.583L122.684 163.679L126.013 166.29L133.221 159.348L134.018 160.177L126.091 167.817Z" fill="#0B4870"/>
<path d="M177.269 161.703H137.608C137.349 161.703 137.139 161.493 137.139 161.234C137.139 160.974 137.349 160.764 137.608 160.764H177.269C177.528 160.764 177.739 160.974 177.739 161.234C177.739 161.493 177.528 161.703 177.269 161.703ZM177.269 163.77H137.608C137.349 163.77 137.139 163.56 137.139 163.301C137.139 163.042 137.349 162.832 137.608 162.832H177.269C177.528 162.832 177.739 163.042 177.739 163.301C177.739 163.56 177.528 163.77 177.269 163.77ZM177.269 165.835H137.608C137.349 165.835 137.139 165.625 137.139 165.366C137.139 165.107 137.349 164.896 137.608 164.896H177.269C177.528 164.896 177.739 165.107 177.739 165.366C177.739 165.625 177.528 165.835 177.269 165.835ZM177.269 167.903H137.608C137.349 167.903 137.139 167.693 137.139 167.433C137.139 167.174 137.349 166.964 137.608 166.964H177.269C177.528 166.964 177.739 167.174 177.739 167.433C177.739 167.693 177.528 167.903 177.269 167.903Z" fill="#0B4870"/>
<path d="M131.909 190.159H119.449V177.699H131.909V190.159ZM119.737 189.871H131.621V177.987H119.737V189.871Z" fill="#0B4870"/>
<path d="M126.091 187.412L121.973 184.179L122.684 183.274L126.013 185.886L133.221 178.943L134.018 179.773L126.091 187.412Z" fill="#0B4870"/>
<path d="M177.269 181.299H137.608C137.349 181.299 137.139 181.088 137.139 180.829C137.139 180.57 137.349 180.36 137.608 180.36H177.269C177.528 180.36 177.739 180.57 177.739 180.829C177.739 181.088 177.528 181.299 177.269 181.299ZM177.269 183.366H137.608C137.349 183.366 137.139 183.156 137.139 182.897C137.139 182.638 137.349 182.427 137.608 182.427H177.269C177.528 182.427 177.739 182.638 177.739 182.897C177.739 183.156 177.528 183.366 177.269 183.366ZM177.269 185.431H137.608C137.349 185.431 137.139 185.221 137.139 184.962C137.139 184.702 137.349 184.492 137.608 184.492H177.269C177.528 184.492 177.739 184.702 177.739 184.962C177.739 185.221 177.528 185.431 177.269 185.431ZM177.269 187.498H137.608C137.349 187.498 137.139 187.288 137.139 187.029C137.139 186.77 137.349 186.56 137.608 186.56H177.269C177.528 186.56 177.739 186.77 177.739 187.029C177.739 187.288 177.528 187.498 177.269 187.498Z" fill="#0B4870"/>
<path d="M179.277 167.399C179.922 166.941 180.516 166.411 180.789 166.256C180.904 166.192 181.261 166.112 181.362 166.08C181.662 165.991 182.14 165.899 182.347 165.665L183.234 164.692C183.654 164.214 184.204 164.056 184.679 164.476C185.195 164.931 185.042 165.579 184.53 166.04L183.922 166.731C183.513 167.1 183.309 167.618 183.081 168.119C182.621 169.141 181.575 169.91 180.683 170.449C180.121 170.785 179.272 170.546 178.157 170.166C177.61 169.979 176.818 169.527 177.501 169.271C178.074 169.058 179.796 169.521 180.556 167.935C180.593 167.857 180.674 167.65 180.596 167.578C180.366 167.362 179.856 167.851 179.516 168.007C179.038 168.225 178.655 168.151 178.537 167.975C178.411 167.791 178.817 167.727 179.277 167.399Z" fill="#FAB9AF"/>
<path d="M203.513 132.587C203.513 132.587 202.091 149.663 196.985 155.425C193.91 158.898 186.385 164.853 184.643 166.218C184.421 166.391 184.11 166.4 183.88 166.238C183.733 166.135 183.566 166.008 183.422 165.881C183.275 165.752 183.105 165.565 182.953 165.386C182.699 165.089 182.711 164.649 182.976 164.364C184.928 162.241 192.588 153.83 193.521 151.619C194.589 149.082 196.429 134.105 198.12 131.936C199.81 129.762 203.05 129.293 203.513 132.587Z" fill="#1B6AEC"/>
<path d="M197.064 160.796L201.418 130.214L213.159 128.602L219.266 160.577L197.064 160.796Z" fill="#FAB9AF"/>
<path d="M206.141 208.186L206.13 211.633C206.127 212.335 206.222 213.032 206.412 213.706L206.712 214.769C206.956 215.641 206.303 216.505 205.396 216.502C203.049 216.494 199.035 216.499 198.001 216.502C197.831 216.502 197.667 216.387 197.652 216.22C197.566 215.215 200.471 214.538 202.663 213.692C204.33 213.047 204.241 210.049 204.036 208.298C203.959 207.636 204.512 207.074 205.174 207.129C205.721 207.175 206.144 207.636 206.141 208.186ZM222.279 207.218L223.465 211.161C223.517 211.336 223.595 211.5 223.699 211.65L224.539 212.9C225.075 213.695 224.689 214.777 223.773 215.057C223.773 215.057 222.074 215.653 220.326 216.229C218.535 216.816 216.281 216.327 216.281 215.852C216.281 214.8 217.26 215.636 218.901 214.538C219.451 214.17 220.018 213.787 220.525 213.389C221.936 212.281 220.704 209.476 219.84 207.895C219.529 207.328 219.86 206.622 220.493 206.487L220.902 206.401C221.501 206.277 222.1 206.631 222.279 207.218Z" fill="#FAB9AF"/>
<path d="M210.148 161.092L197.135 160.001C197.135 160.001 195.824 169.472 199.113 186.615C200.656 194.654 203.87 210.017 203.87 210.017C204.668 210.366 205.477 210.452 206.3 210.248C206.3 210.248 206.545 203.472 206.695 196.172C206.839 189.175 206.876 181.696 207.323 179.248C208.233 174.249 210.148 161.092 210.148 161.092Z" fill="#0B4870"/>
<path d="M207.459 161.257C206.115 168.467 203.114 179.249 208.896 189.376C214.676 199.504 220.749 210.035 220.749 210.035C221.532 210.067 222.241 209.784 222.9 209.283C222.9 209.283 221.886 204.693 220.421 199.331C218.745 193.198 216.622 185.984 217.227 182.223C218.362 175.174 219.663 165.786 219.269 161.225C218.871 156.664 208.165 157.467 207.459 161.257Z" fill="#0B4870"/>
<path d="M196.616 160.018L201.42 130.214L213.163 128.602L219.472 160.073C219.59 160.663 219.207 161.239 218.614 161.352C216.428 161.766 211.156 162.63 205.252 162.63C200.847 162.63 198.37 161.775 197.244 161.231C196.789 161.012 196.536 160.519 196.616 160.018Z" fill="#F2F2F2"/>
<path d="M219.858 171.554C220.036 170.785 220.134 169.993 220.235 169.697C220.278 169.573 220.494 169.276 220.549 169.184C220.716 168.919 221.012 168.533 221.012 168.222L221.035 166.906C221.035 166.27 221.344 165.789 221.977 165.789C222.665 165.789 222.979 166.377 222.899 167.062V167.983C222.835 168.53 223.025 169.055 223.187 169.582C223.515 170.653 223.241 171.92 222.927 172.916C222.732 173.541 221.934 173.924 220.848 174.373C220.316 174.595 219.42 174.779 219.763 174.137C220.051 173.599 221.649 172.81 221.171 171.114C221.148 171.03 221.073 170.82 220.966 170.817C220.65 170.808 220.592 171.511 220.439 171.854C220.226 172.334 219.889 172.53 219.682 172.478C219.466 172.421 219.728 172.104 219.858 171.554Z" fill="#FAB9AF"/>
<path d="M209.494 130.459C209.494 132.607 209.886 134.732 210.617 136.751C212.051 140.699 214.205 148.163 212.924 154.74C211.084 164.211 208.714 168.038 211.783 170.247C214.853 172.453 220.739 168.772 220.909 167.543C221.079 166.316 219.763 151.236 218.274 144.702C216.783 138.168 212.607 128.774 212.607 128.774L210.839 128.964C210.073 129.045 209.494 129.69 209.494 130.459Z" fill="#1B6AEC"/>
<path d="M215.011 129.414C215.011 129.414 225.239 143.164 225.219 150.861C225.208 155.5 223.503 164.943 223.1 167.12C223.048 167.396 222.823 167.609 222.541 167.638C222.363 167.658 222.152 167.673 221.962 167.673C221.769 167.673 221.516 167.644 221.283 167.612C220.897 167.557 220.615 167.22 220.623 166.829C220.684 163.946 220.868 152.572 220.102 150.294C219.224 147.682 210.7 135.236 210.533 132.489C210.363 129.745 212.485 127.248 215.011 129.414ZM204.604 129.777C204.604 129.777 202.568 134.177 203.276 140.5C203.988 146.824 205.632 166.08 199.878 168.989C198.056 169.91 193.895 165.832 193.895 164.318C193.895 162.803 195.282 157.741 196.598 153.136C197.914 148.532 201.085 130.258 201.085 130.258L204.604 129.777Z" fill="#1B6AEC"/>
<path d="M206.243 116.136C208.863 116.136 209.842 118.002 209.891 121.452C209.911 122.744 209.33 124.023 208.86 124.841C208.512 125.448 208.417 126.168 208.615 126.839L209.191 128.786C209.583 130.591 208.725 131.585 207.458 131.945C206.83 132.123 206.079 131.985 205.531 131.631C204.881 131.211 204.826 130.304 204.947 129.538L205.097 128.982C205.298 128.233 204.863 127.427 204.106 127.263C202.087 126.822 201.799 124.717 201.258 121.452C200.694 118.048 203.622 116.136 206.243 116.136Z" fill="#FAB9AF"/>
<path d="M200.141 114.621L201.644 115.079C202.197 115.246 202.784 115.252 203.34 115.09L206.341 114.221C208.158 114.221 211.161 115.246 210.781 117.869L210.447 119.724C210.314 120.464 209.695 121.02 208.944 121.083C208.875 121.339 208.641 121.518 208.376 121.518C208.051 121.518 207.789 121.256 207.789 120.93C207.789 120.092 207.202 119.381 206.387 119.197C205.385 118.972 204.316 118.917 203.196 119.22C201.111 119.781 198.911 118.488 198.704 116.337C198.689 116.202 198.684 116.064 198.684 115.923C198.681 115.053 199.398 114.417 200.141 114.621Z" fill="#0B4870"/>
<path d="M208.447 121.515C208.447 122.315 208.744 122.963 209.516 122.963C210.287 122.963 210.78 121.863 210.78 121.063C210.78 120.262 210.284 120.066 209.516 120.066C208.744 120.066 208.447 120.717 208.447 121.515Z" fill="#FAB9AF"/>
<path d="M208.764 125.028C208.764 125.028 206.806 127.717 204.373 127.355C204.373 127.355 204.88 127.596 205.001 127.988C205.001 127.988 207.313 127.818 208.764 125.028Z" fill="#E8948B"/>
<path d="M213.957 87.5234C213.957 89.3923 212.724 90.9099 211.201 90.9099H178.526C177.005 90.9099 175.77 89.3952 175.77 87.5234C175.77 85.6546 177.003 84.137 178.526 84.137H211.201C212.724 84.1399 213.957 85.6546 213.957 87.5234ZM96.9949 105.654C96.9949 107.522 95.4802 109.04 93.6085 109.04H53.4607C51.5918 109.04 50.0742 107.525 50.0742 105.654C50.0742 103.785 51.5889 102.267 53.4607 102.267H93.6113C95.4802 102.267 96.9949 103.782 96.9949 105.654ZM113.409 87.5119C113.409 89.3808 112.153 90.8984 110.607 90.8984H77.3846C75.8383 90.8984 74.5827 89.3837 74.5827 87.5119C74.5827 85.643 75.8383 84.1255 77.3846 84.1255H110.607C112.153 84.1255 113.409 85.6402 113.409 87.5119ZM249.728 102.187C249.728 104.055 248.213 105.573 246.341 105.573H206.193C204.324 105.573 202.807 104.058 202.807 102.187C202.807 100.318 204.322 98.8001 206.193 98.8001H246.344C248.213 98.803 249.728 100.318 249.728 102.187Z" fill="#A6C8FF"/>
<path d="M206.489 213.976C206.489 213.976 204.669 214.78 202.973 213.53C202.973 213.53 198.786 214.201 197.585 215.439C196.385 216.677 197.254 217.291 198.763 217.265C200.269 217.239 206.092 217.179 206.092 217.179C206.092 217.179 207.586 216.266 206.489 213.976ZM223.986 211.943C223.986 211.943 223.099 213.11 221.112 212.418C221.112 212.418 216.695 214.437 215.914 215.975C215.134 217.513 216.145 217.841 217.579 217.371C219.013 216.902 224.553 215.122 224.553 215.122C224.553 215.122 225.711 213.804 223.986 211.943Z" fill="#0B4870"/>
</svg>
