<svg width="366" height="207" viewBox="0 0 366 207" fill="none" xmlns="http://www.w3.org/2000/svg">
<path d="M0.486328 38.7194L1.66368 94.8398C1.66368 94.8398 22.9488 102.767 31.9234 104.659C40.898 106.55 61.7804 118.442 61.7804 118.442L61.4292 38.9823L0.496666 38.5751" fill="#E9EDFA"/>
<path d="M0.0516252 38.7194L61.4283 38.9771L61.1494 24.3337H42.9729C42.9729 24.3337 40.7164 15.5713 32.2529 15.5713C21.8686 15.5713 20.1387 24.7975 20.1387 24.7975L0 24.5862L0.0516252 38.7194Z" fill="#BAC6F2"/>
<path d="M17.3972 47.0437H6.54297V58.7956H17.3972V47.0437Z" fill="#BAC6F2"/>
<path d="M37.0086 46.8788H26.1543V58.6307H37.0086V46.8788Z" fill="#BAC6F2"/>
<path d="M56.3679 47.0488H45.5137V58.8007H56.3679V47.0488Z" fill="white"/>
<path d="M56.5339 69.1558H45.6797V80.9077H56.5339V69.1558Z" fill="#BAC6F2"/>
<path d="M56.6882 94.8811H45.834V106.633H56.6882V94.8811Z" fill="#BAC6F2"/>
<path d="M36.5847 68.8208H25.7305V80.5727H36.5847V68.8208Z" fill="#BAC6F2"/>
<path d="M36.5847 68.8208H25.7305V80.5727H36.5847V68.8208Z" fill="white"/>
<path d="M17.4793 69.3259H6.625V81.0778H17.4793V69.3259Z" fill="#BAC6F2"/>
<path d="M6.86779 96.6232L6.78516 93.1904L17.3244 93.4069L17.3554 100.319C17.3554 100.319 9.55296 97.7314 6.86779 96.6232Z" fill="#BAC6F2"/>
<path d="M26.3151 103.092L26.1602 94.3398L36.844 94.5615L36.6065 106.009L26.3151 103.092Z" fill="#BAC6F2"/>
<path d="M31.6744 32.828C34.9712 32.828 37.6437 30.1603 37.6437 26.8696C37.6437 23.5788 34.9712 20.9111 31.6744 20.9111C28.3776 20.9111 25.7051 23.5788 25.7051 26.8696C25.7051 30.1603 28.3776 32.828 31.6744 32.828Z" fill="white"/>
<path d="M61.25 78.1038L61.7664 118.447C61.7664 118.447 93.9264 139.806 95.9609 141.332C97.9954 142.858 114.814 150.996 122.461 151.507L123.84 70.0991L119.322 69.9238L97.226 42.5337L89.0414 42.142L61.2552 78.0832" fill="#BAC6F2"/>
<path d="M61.25 78.1038L89.0673 43.2243L92.1397 43.3377L95.6511 43.5439L97.5875 43.7449L119.322 69.9496L123.84 70.1197V68.5579L119.492 68.3827L98.6719 42.9821L98.8061 33.1579L88.7213 32.6373L88.334 42.6934L61.596 55.5432L61.25 78.1038Z" fill="#E9EDFA"/>
<path d="M83.9648 70.5372H78.9043V76.4441H83.9648V70.5372Z" fill="white"/>
<path d="M106.277 70.5836H101.217V76.4905H106.277V70.5836Z" fill="white"/>
<path d="M98.0683 70.5681H93.0078V76.475H98.0683V70.5681Z" fill="white"/>
<path d="M91.3496 70.5217H86.2891V76.4286H91.3496V70.5217Z" fill="white"/>
<path d="M83.9707 79.5676H78.9102V85.4745H83.9707V79.5676Z" fill="white"/>
<path d="M106.283 79.614H101.223V85.5209H106.283V79.614Z" fill="white"/>
<path d="M98.0781 79.6036H93.0176V85.5105H98.0781V79.6036Z" fill="white"/>
<path d="M91.3593 79.5573H86.2988V85.4641H91.3593V79.5573Z" fill="white"/>
<path d="M71.9648 106.252H66.9043V112.158H71.9648V106.252Z" fill="white"/>
<path d="M78.539 99.4583H73.4785V105.365H78.539V99.4583Z" fill="white"/>
<path d="M71.8203 99.4117H66.7598V105.319H71.8203V99.4117Z" fill="white"/>
<path d="M78.6054 106.308H73.5449V112.215H78.6054V106.308Z" fill="white"/>
<path d="M91.789 106.391H86.7285V112.298H91.789V106.391Z" fill="white"/>
<path d="M98.3574 99.5973H93.2969V105.504H98.3574V99.5973Z" fill="white"/>
<path d="M91.6386 99.551H86.5781V105.458H91.6386V99.551Z" fill="white"/>
<path d="M98.4238 106.448H93.3633V112.354H98.4238V106.448Z" fill="white"/>
<path d="M110.977 106.587H105.916V112.494H110.977V106.587Z" fill="white"/>
<path d="M117.545 99.7881H112.484V105.695H117.545V99.7881Z" fill="white"/>
<path d="M110.828 99.7417H105.768V105.649H110.828V99.7417Z" fill="white"/>
<path d="M117.613 106.643H112.553V112.55H117.613V106.643Z" fill="white"/>
<path d="M110.709 135.425H105.648V143.853H110.709V135.425Z" fill="white"/>
<path d="M117.281 128.627H112.221V134.533H117.281V128.627Z" fill="white"/>
<path d="M110.564 128.585H105.504V134.492H110.564V128.585Z" fill="white"/>
<path d="M97.3652 128.462H92.3047V134.369H97.3652V128.462Z" fill="white"/>
<path d="M97.4112 142.208L92.3559 138.925L92.3301 135.683H97.3906L97.4112 142.208Z" fill="white"/>
<path d="M90.6464 128.415H85.5859V134.322H90.6464V128.415Z" fill="white"/>
<path d="M90.6211 137.688L89.3353 136.801L87.2285 135.415L90.6108 135.425L90.6211 137.688Z" fill="white"/>
<path d="M117.35 135.482H112.289V143.873H117.35V135.482Z" fill="white"/>
<path d="M150.03 16.3445H159.567L159.423 11.7005L149.875 11.6025L150.03 16.3445Z" fill="#BAC6F2"/>
<path d="M123.41 59.9141L122.496 151.502C122.496 151.502 138.886 154.022 153.628 150.306C168.371 146.589 185.443 142.574 185.443 142.574L186.011 60.7852L176.086 55.9195L159.985 27.4675L159.587 16.3445H150.035L149.73 27.4675L132.767 55.4195L123.41 59.9141Z" fill="#E9EDFA"/>
<path d="M154.176 67.7694H147.918V75.5421H154.176V67.7694Z" fill="#BAC6F2"/>
<path d="M163.079 67.9086H156.402V75.5421H163.079V67.9086Z" fill="#BAC6F2"/>
<path d="M154.036 76.9956H147.777V84.7684H154.036V76.9956Z" fill="#BAC6F2"/>
<path d="M162.938 77.1348H156.262V84.7683H162.938V77.1348Z" fill="#BAC6F2"/>
<path d="M154.309 95.5151H148.051V103.288H154.309V95.5151Z" fill="#BAC6F2"/>
<path d="M139.563 95.4688H133.305V103.241H139.563V95.4688Z" fill="#BAC6F2"/>
<path d="M176.577 95.8141H170.318V103.587H176.577V95.8141Z" fill="#BAC6F2"/>
<path d="M176.757 130.054H170.498V137.827H176.757V130.054Z" fill="#BAC6F2"/>
<path d="M139.635 130.276H133.377V138.049H139.635V130.276Z" fill="#BAC6F2"/>
<path d="M163.212 95.6492H156.535V103.283H163.212V95.6492Z" fill="#BAC6F2"/>
<path d="M154.171 104.741H147.912V112.514H154.171V104.741Z" fill="#BAC6F2"/>
<path d="M163.073 104.881H156.396V112.514H163.073V104.881Z" fill="#BAC6F2"/>
<path d="M154.196 129.199H147.938V136.971H154.196V129.199Z" fill="#BAC6F2"/>
<path d="M163.099 129.338H156.422V136.972H163.099V129.338Z" fill="#BAC6F2"/>
<path d="M154.057 138.43H147.799V146.203H154.057V138.43Z" fill="#BAC6F2"/>
<path d="M162.96 138.569H156.283V146.203H162.96V138.569Z" fill="#BAC6F2"/>
<path d="M136.78 80.7738C139.196 80.7738 141.154 78.8192 141.154 76.4081C141.154 73.9969 139.196 72.0424 136.78 72.0424C134.364 72.0424 132.406 73.9969 132.406 76.4081C132.406 78.8192 134.364 80.7738 136.78 80.7738Z" fill="#BAC6F2"/>
<path d="M172.249 81.7428C174.664 81.7428 176.622 79.7882 176.622 77.3771C176.622 74.9659 174.664 73.0114 172.249 73.0114C169.833 73.0114 167.875 74.9659 167.875 77.3771C167.875 79.7882 169.833 81.7428 172.249 81.7428Z" fill="#BAC6F2"/>
<path d="M123.41 59.9141H132.948L132.798 55.2701L123.25 55.1721L123.41 59.9141Z" fill="#BAC6F2"/>
<path d="M176.458 60.7852H185.995L185.845 56.1411L176.303 56.0432L176.458 60.7852Z" fill="#BAC6F2"/>
<path d="M155.151 57.6669C159.304 57.6669 162.67 54.3069 162.67 50.1622C162.67 46.0174 159.304 42.6575 155.151 42.6575C150.999 42.6575 147.633 46.0174 147.633 50.1622C147.633 54.3069 150.999 57.6669 155.151 57.6669Z" fill="#BAC6F2"/>
<path d="M182.055 61.1769L182.607 100.7C182.607 100.7 184.053 143.043 184.192 142.904C187.585 139.404 240.003 135.832 246.06 135.688L244.65 53.2186L240.132 53.0434L218.026 25.6326L209.841 25.2408L182.055 61.1821" fill="#BAC6F2"/>
<path d="M182.055 61.1769L209.872 26.2975L212.944 26.416L216.456 26.6222L218.392 26.818L240.127 53.0227L244.645 53.198V51.6362L240.297 51.4609L219.477 26.0552L219.611 16.231L209.526 15.7104L209.139 25.7717L182.075 56.1153L182.055 61.1769Z" fill="#E9EDFA"/>
<path d="M204.766 53.6104H199.705V59.5172H204.766V53.6104Z" fill="white"/>
<path d="M227.082 53.6619H222.021V59.5687H227.082V53.6619Z" fill="white"/>
<path d="M218.873 53.6464H213.812V59.5533H218.873V53.6464Z" fill="white"/>
<path d="M212.154 53.6H207.094V59.5069H212.154V53.6Z" fill="white"/>
<path d="M204.775 62.6407H199.715V68.5476H204.775V62.6407Z" fill="white"/>
<path d="M227.088 62.6923H222.027V68.5992H227.088V62.6923Z" fill="white"/>
<path d="M218.883 62.6768H213.822V68.5836H218.883V62.6768Z" fill="white"/>
<path d="M212.164 62.6304H207.104V68.5372H212.164V62.6304Z" fill="white"/>
<path d="M192.889 93.5668H187.828V99.4736H192.889V93.5668Z" fill="white"/>
<path d="M199.457 86.7733H194.396V92.6802H199.457V86.7733Z" fill="white"/>
<path d="M192.738 86.7269H187.678V92.6338H192.738V86.7269Z" fill="white"/>
<path d="M199.523 93.6234H194.463V99.5303H199.523V93.6234Z" fill="white"/>
<path d="M212.707 93.7059H207.646V99.6128H212.707V93.7059Z" fill="white"/>
<path d="M219.281 86.9125H214.221V92.8194H219.281V86.9125Z" fill="white"/>
<path d="M212.562 86.8661H207.502V92.7729H212.562V86.8661Z" fill="white"/>
<path d="M219.348 93.7626H214.287V99.6695H219.348V93.7626Z" fill="white"/>
<path d="M231.894 93.9019H226.834V99.8087H231.894V93.9019Z" fill="white"/>
<path d="M238.469 87.1033H233.408V93.0102H238.469V87.1033Z" fill="white"/>
<path d="M231.75 87.0569H226.689V92.9637H231.75V87.0569Z" fill="white"/>
<path d="M238.535 93.9585H233.475V99.8654H238.535V93.9585Z" fill="white"/>
<path d="M193.027 119.472H187.967V125.379H193.027V119.472Z" fill="white"/>
<path d="M199.596 112.674H194.535V118.581H199.596V112.674Z" fill="white"/>
<path d="M192.879 112.627H187.818V118.534H192.879V112.627Z" fill="white"/>
<path d="M199.664 119.524H194.604V125.431H199.664V119.524Z" fill="white"/>
<path d="M212.846 119.612H207.785V125.518H212.846V119.612Z" fill="white"/>
<path d="M219.42 112.813H214.359V118.72H219.42V112.813Z" fill="white"/>
<path d="M212.701 112.767H207.641V118.674H212.701V112.767Z" fill="white"/>
<path d="M219.486 119.663H214.426V125.57H219.486V119.663Z" fill="white"/>
<path d="M232.035 119.802H226.975V125.709H232.035V119.802Z" fill="white"/>
<path d="M238.609 113.009H233.549V118.916H238.609V113.009Z" fill="white"/>
<path d="M231.891 112.963H226.83V118.869H231.891V112.963Z" fill="white"/>
<path d="M238.676 119.859H233.615V125.766H238.676V119.859Z" fill="white"/>
<path d="M250.559 42.3532C250.559 42.3532 263.913 21.1328 264.945 19.0711C265.978 17.0093 265.462 8.76238 265.462 8.76238H261.847C261.847 8.76238 264.945 0 273.724 0C282.502 0 285.084 4.12347 286.117 6.18521C287.15 8.24694 286.633 9.27781 286.633 9.27781H283.535V17.5248L298.51 42.2656H304.706L306.741 137.574C306.741 137.574 247.838 134.817 246.593 135.647C246.206 135.904 246.237 133.209 246.175 132.74C245.917 130.73 243.712 57.8214 244.822 42.4408C244.822 42.4563 250.6 42.348 250.559 42.3532Z" fill="#E9EDFA"/>
<path d="M288.45 72.4082H295.68V62.0995C295.68 62.0995 292.065 56.4297 288.45 62.0995V72.4082ZM253.734 73.238H260.964V62.9294C260.964 62.9294 257.349 57.2596 253.734 62.9294V73.238ZM253.734 99.8499H260.964V89.5412C260.964 89.5412 257.349 83.8714 253.734 89.5412V99.8499ZM270.997 100.159H278.226V89.8505C278.226 89.8505 274.611 84.1807 270.997 89.8505V100.159ZM288.254 100.468H295.484V90.1597C295.484 90.1597 291.869 84.49 288.254 90.1597V100.468ZM254.173 125.312H261.403V115.004C261.403 115.004 257.788 109.334 254.173 115.004V125.312ZM271.441 125.622H278.67V115.313C278.67 115.313 275.056 109.643 271.441 115.313V125.622ZM288.709 125.936H295.938V115.627C295.938 115.627 292.323 109.958 288.709 115.627V125.936Z" fill="white"/>
<path d="M290.696 51.4403C293.215 51.4403 295.256 49.4026 295.256 46.889C295.256 44.3754 293.215 42.3378 290.696 42.3378C288.178 42.3378 286.137 44.3754 286.137 46.889C286.137 49.4026 288.178 51.4403 290.696 51.4403Z" fill="#E9EDFA"/>
<path d="M258.103 50.7497C260.621 50.7497 262.662 48.712 262.662 46.1984C262.662 43.6848 260.621 41.6471 258.103 41.6471C255.584 41.6471 253.543 43.6848 253.543 46.1984C253.543 48.712 255.584 50.7497 258.103 50.7497Z" fill="#E9EDFA"/>
<path d="M274.741 73.2071C277.259 73.2071 279.301 71.1694 279.301 68.6558C279.301 66.1422 277.259 64.1045 274.741 64.1045C272.223 64.1045 270.182 66.1422 270.182 68.6558C270.182 71.1694 272.223 73.2071 274.741 73.2071Z" fill="#E9EDFA"/>
<path d="M274.399 30.8075C276.918 30.8075 278.959 28.7699 278.959 26.2562C278.959 23.7426 276.918 21.705 274.399 21.705C271.881 21.705 269.84 23.7426 269.84 26.2562C269.84 28.7699 271.881 30.8075 274.399 30.8075Z" fill="#E9EDFA"/>
<path d="M266.82 43.2398C266.842 42.0619 267.27 40.9277 268.033 40.0286C268.75 39.1396 269.648 38.4122 270.667 37.8943C271.686 37.3764 272.803 37.0797 273.946 37.0236C278.748 36.8948 280.855 40.9255 281.149 42.5749C281.593 45.0644 281.495 57.5998 281.495 57.5998H266.654L266.732 53.8732L266.82 43.2398Z" fill="white"/>
<path d="M304.963 60.2595L306.512 137.673C306.512 137.673 323.511 137.848 333.916 139.142C343.02 140.276 364.899 139.229 364.899 139.229L365.932 60.5224L304.999 60.1152" fill="#BAC6F2"/>
<path d="M304.529 60.2595L365.906 60.5172L365.627 45.8737H347.446C347.446 45.8737 345.189 37.1113 336.726 37.1113C326.341 37.1113 324.611 46.3376 324.611 46.3376L304.473 46.1263L304.529 60.2595Z" fill="#BAC6F2"/>
<path d="M321.874 68.5837H311.02V80.3356H321.874V68.5837Z" fill="white"/>
<path d="M341.487 68.4137H330.633V80.1656H341.487V68.4137Z" fill="white"/>
<path d="M360.846 68.5837H349.992V80.3356H360.846V68.5837Z" fill="white"/>
<path d="M361.01 90.6907H350.156V102.443H361.01V90.6907Z" fill="white"/>
<path d="M361.165 116.421H350.311V128.173H361.165V116.421Z" fill="white"/>
<path d="M341.503 115.947H330.648V127.699H341.503V115.947Z" fill="white"/>
<path d="M321.88 115.705H311.025V127.457H321.88V115.705Z" fill="white"/>
<path d="M341.063 90.3557H330.209V102.108H341.063V90.3557Z" fill="white"/>
<path d="M341.063 90.3557H330.209V102.108H341.063V90.3557Z" fill="white"/>
<path d="M321.958 90.8608H311.104V102.613H321.958V90.8608Z" fill="white"/>
<path d="M336.153 54.363C339.45 54.363 342.122 51.6953 342.122 48.4046C342.122 45.1138 339.45 42.4462 336.153 42.4462C332.856 42.4462 330.184 45.1138 330.184 48.4046C330.184 51.6953 332.856 54.363 336.153 54.363Z" fill="white"/>
<g clip-path="url(#clip0_2805_7489)">
<path d="M216.17 175.192C216.17 179.512 201.534 183 183.499 183C165.464 183 150.828 179.512 150.828 175.192C150.828 171.333 162.555 168.156 177.933 167.503H189.066C204.459 168.156 216.17 171.333 216.17 175.192Z" fill="#E3E2E1"/>
<path d="M183.499 88C166.726 88 153.129 101.582 153.129 118.355C153.129 135.129 183.499 175.192 183.499 175.192C183.499 175.192 213.855 135.129 213.855 118.355C213.855 101.582 200.273 88 183.499 88ZM183.499 138.454C172.396 138.454 163.401 129.459 163.401 118.355C163.401 107.252 172.396 98.257 183.499 98.257C194.602 98.257 203.598 107.252 203.598 118.355C203.598 129.459 194.602 138.454 183.499 138.454Z" fill="#1B6AEC"/>
</g>
<path d="M22.4992 171.917C22.1566 171.917 21.8281 172.053 21.5858 172.295C21.3436 172.537 21.2075 172.866 21.2075 173.208V175.792C21.2075 176.134 21.3436 176.463 21.5858 176.705C21.8281 176.947 22.1566 177.083 22.4992 177.083C22.8417 177.083 23.1703 176.947 23.4125 176.705C23.6548 176.463 23.7908 176.134 23.7908 175.792V173.208C23.7908 172.866 23.6548 172.537 23.4125 172.295C23.1703 172.053 22.8417 171.917 22.4992 171.917ZM33.4267 171.503C33.2554 169.611 32.5957 167.795 31.5122 166.233C30.4287 164.672 28.9584 163.418 27.2452 162.596C25.5319 161.773 23.6345 161.409 21.7385 161.539C19.8424 161.67 18.0127 162.29 16.4283 163.34C15.0711 164.248 13.9316 165.445 13.0919 166.845C12.2522 168.245 11.733 169.814 11.5717 171.439C11.4134 173.053 11.6165 174.682 12.1661 176.208C12.7157 177.734 13.598 179.118 14.7492 180.261L21.595 187.12C21.7151 187.241 21.8579 187.337 22.0153 187.402C22.1727 187.468 22.3416 187.502 22.5121 187.502C22.6826 187.502 22.8514 187.468 23.0088 187.402C23.1662 187.337 23.3091 187.241 23.4292 187.12L30.2492 180.261C31.4003 179.118 32.2827 177.734 32.8323 176.208C33.3819 174.682 33.5849 173.053 33.4267 171.439V171.503ZM28.4408 178.44L22.4992 184.381L16.5575 178.44C15.6819 177.564 15.0111 176.505 14.5935 175.339C14.1758 174.173 14.0217 172.93 14.1421 171.697C14.2633 170.446 14.661 169.237 15.3066 168.158C15.9522 167.079 16.8295 166.157 17.875 165.458C19.2454 164.548 20.854 164.062 22.4992 164.062C24.1444 164.062 25.753 164.548 27.1233 165.458C28.1657 166.154 29.041 167.072 29.6865 168.146C30.3319 169.22 30.7314 170.424 30.8563 171.671C30.9806 172.908 30.8284 174.157 30.4106 175.327C29.9929 176.498 29.32 177.561 28.4408 178.44V178.44ZM23.6875 168.778C23.6617 168.699 23.6224 168.624 23.5713 168.558L23.4163 168.365C23.2621 168.218 23.0741 168.112 22.869 168.056C22.664 167.999 22.4482 167.995 22.2408 168.042H22.0083L21.7758 168.158L21.5821 168.326L21.4271 168.52C21.376 168.586 21.3366 168.66 21.3108 168.739C21.2715 168.816 21.2453 168.899 21.2333 168.985C21.2119 169.1 21.2033 169.217 21.2075 169.333C21.203 169.507 21.2384 169.679 21.3108 169.837C21.3766 169.99 21.4684 170.129 21.5821 170.25C21.705 170.371 21.8496 170.468 22.0083 170.535C22.3245 170.655 22.6738 170.655 22.99 170.535C23.147 170.464 23.2911 170.368 23.4163 170.25C23.5299 170.129 23.6217 169.99 23.6875 169.837C23.7554 169.678 23.7905 169.506 23.7908 169.333C23.7972 169.252 23.7972 169.17 23.7908 169.088C23.7788 168.978 23.7436 168.873 23.6875 168.778V168.778Z" fill="#1B6AEC"/>
<path d="M51.0004 137C50.7352 137 50.4808 137.105 50.2933 137.293C50.1057 137.48 50.0004 137.735 50.0004 138V140C50.0004 140.265 50.1057 140.52 50.2933 140.707C50.4808 140.895 50.7352 141 51.0004 141C51.2656 141 51.5199 140.895 51.7075 140.707C51.895 140.52 52.0004 140.265 52.0004 140V138C52.0004 137.735 51.895 137.48 51.7075 137.293C51.5199 137.105 51.2656 137 51.0004 137ZM59.4604 136.68C59.3278 135.215 58.8171 133.809 57.9782 132.6C57.1393 131.391 56.001 130.421 54.6747 129.784C53.3483 129.147 51.8793 128.865 50.4114 128.966C48.9435 129.067 47.527 129.547 46.3004 130.36C45.2496 131.063 44.3674 131.989 43.7173 133.073C43.0672 134.157 42.6653 135.372 42.5404 136.63C42.4179 137.88 42.575 139.141 43.0005 140.322C43.426 141.504 44.1092 142.575 45.0004 143.46L50.3004 148.77C50.3933 148.864 50.5039 148.938 50.6258 148.989C50.7477 149.04 50.8784 149.066 51.0104 149.066C51.1424 149.066 51.2731 149.04 51.3949 148.989C51.5168 148.938 51.6274 148.864 51.7204 148.77L57.0004 143.46C57.8916 142.575 58.5747 141.504 59.0002 140.322C59.4257 139.141 59.5829 137.88 59.4604 136.63V136.68ZM55.6004 142.05L51.0004 146.65L46.4004 142.05C45.7225 141.372 45.2032 140.552 44.8798 139.65C44.5565 138.747 44.4372 137.784 44.5304 136.83C44.6242 135.861 44.9321 134.925 45.4319 134.09C45.9317 133.254 46.6109 132.541 47.4204 132C48.4813 131.295 49.7267 130.919 51.0004 130.919C52.2741 130.919 53.5194 131.295 54.5804 132C55.3874 132.539 56.065 133.249 56.5647 134.081C57.0644 134.913 57.3737 135.845 57.4704 136.81C57.5666 137.767 57.4488 138.734 57.1254 139.641C56.8019 140.547 56.281 141.37 55.6004 142.05V142.05ZM51.9204 134.57C51.9004 134.509 51.87 134.451 51.8304 134.4L51.7104 134.25C51.591 134.137 51.4455 134.054 51.2867 134.011C51.128 133.967 50.9609 133.964 50.8004 134H50.6204L50.4404 134.09L50.2904 134.22L50.1704 134.37C50.1308 134.421 50.1003 134.479 50.0804 134.54C50.0499 134.6 50.0296 134.664 50.0204 134.73C50.0038 134.819 49.9971 134.91 50.0004 135C49.9969 135.134 50.0243 135.268 50.0804 135.39C50.1313 135.508 50.2024 135.616 50.2904 135.71C50.3855 135.803 50.4975 135.878 50.6204 135.93C50.8652 136.023 51.1356 136.023 51.3804 135.93C51.5019 135.876 51.6135 135.801 51.7104 135.71C51.7984 135.616 51.8694 135.508 51.9204 135.39C51.9729 135.267 52.0001 135.134 52.0004 135C52.0053 134.937 52.0053 134.873 52.0004 134.81C51.9911 134.725 51.9638 134.643 51.9204 134.57V134.57Z" fill="#1B6AEC"/>
<path d="M81.5009 172.917C81.291 172.917 81.0896 173 80.9412 173.149C80.7927 173.297 80.7093 173.498 80.7093 173.708V175.292C80.7093 175.502 80.7927 175.703 80.9412 175.851C81.0896 176 81.291 176.083 81.5009 176.083C81.7109 176.083 81.9123 176 82.0607 175.851C82.2092 175.703 82.2926 175.502 82.2926 175.292V173.708C82.2926 173.498 82.2092 173.297 82.0607 173.149C81.9123 173 81.7109 172.917 81.5009 172.917ZM88.1984 172.663C88.0935 171.503 87.6892 170.39 87.0251 169.433C86.361 168.476 85.4598 167.708 84.4098 167.204C83.3597 166.7 82.1968 166.476 81.0347 166.556C79.8726 166.636 78.7512 167.017 77.7801 167.66C76.9482 168.216 76.2499 168.95 75.7352 169.808C75.2205 170.666 74.9023 171.628 74.8034 172.624C74.7065 173.613 74.8309 174.612 75.1677 175.547C75.5046 176.482 76.0454 177.331 76.7509 178.031L80.9468 182.235C81.0204 182.309 81.1079 182.368 81.2044 182.408C81.3009 182.448 81.4044 182.469 81.5089 182.469C81.6134 182.469 81.7168 182.448 81.8133 182.408C81.9098 182.368 81.9973 182.309 82.0709 182.235L86.2509 178.031C86.9565 177.331 87.4973 176.482 87.8341 175.547C88.171 174.612 88.2954 173.613 88.1984 172.624V172.663ZM85.1426 176.915L81.5009 180.556L77.8593 176.915C77.3226 176.378 76.9115 175.729 76.6555 175.014C76.3995 174.3 76.3051 173.537 76.3789 172.782C76.4531 172.015 76.6969 171.274 77.0926 170.613C77.4883 169.951 78.026 169.386 78.6668 168.958C79.5067 168.4 80.4926 168.103 81.5009 168.103C82.5093 168.103 83.4952 168.4 84.3351 168.958C84.974 169.385 85.5105 169.947 85.9061 170.606C86.3016 171.264 86.5465 172.002 86.623 172.766C86.6992 173.524 86.6059 174.29 86.3499 175.007C86.0938 175.725 85.6815 176.376 85.1426 176.915V176.915ZM82.2293 170.993C82.2135 170.944 82.1894 170.899 82.158 170.858L82.063 170.74C81.9685 170.65 81.8533 170.585 81.7276 170.55C81.602 170.516 81.4697 170.513 81.3426 170.542H81.2001L81.0576 170.613L80.9389 170.716L80.8439 170.835C80.8125 170.875 80.7884 170.921 80.7726 170.969C80.7485 171.016 80.7325 171.067 80.7251 171.12C80.712 171.19 80.7067 171.262 80.7093 171.333C80.7065 171.44 80.7282 171.545 80.7726 171.642C80.8129 171.735 80.8692 171.821 80.9389 171.895C81.0142 171.969 81.1028 172.028 81.2001 172.07C81.3939 172.143 81.608 172.143 81.8018 172.07C81.898 172.027 81.9863 171.968 82.063 171.895C82.1327 171.821 82.1889 171.735 82.2293 171.642C82.2709 171.544 82.2924 171.439 82.2926 171.333C82.2965 171.283 82.2965 171.233 82.2926 171.183C82.2852 171.116 82.2637 171.051 82.2293 170.993V170.993Z" fill="#1B6AEC"/>
<path d="M290.499 188.917C290.157 188.917 289.828 189.053 289.586 189.295C289.344 189.537 289.208 189.866 289.208 190.208V192.792C289.208 193.134 289.344 193.463 289.586 193.705C289.828 193.947 290.157 194.083 290.499 194.083C290.842 194.083 291.17 193.947 291.413 193.705C291.655 193.463 291.791 193.134 291.791 192.792V190.208C291.791 189.866 291.655 189.537 291.413 189.295C291.17 189.053 290.842 188.917 290.499 188.917ZM301.427 188.503C301.255 186.611 300.596 184.795 299.512 183.233C298.429 181.672 296.958 180.418 295.245 179.596C293.532 178.773 291.635 178.409 289.738 178.539C287.842 178.67 286.013 179.29 284.428 180.34C283.071 181.248 281.932 182.445 281.092 183.845C280.252 185.245 279.733 186.814 279.572 188.439C279.413 190.053 279.616 191.682 280.166 193.208C280.716 194.734 281.598 196.118 282.749 197.261L289.595 204.12C289.715 204.241 289.858 204.337 290.015 204.402C290.173 204.468 290.342 204.502 290.512 204.502C290.683 204.502 290.851 204.468 291.009 204.402C291.166 204.337 291.309 204.241 291.429 204.12L298.249 197.261C299.4 196.118 300.283 194.734 300.832 193.208C301.382 191.682 301.585 190.053 301.427 188.439V188.503ZM296.441 195.44L290.499 201.381L284.558 195.44C283.682 194.564 283.011 193.505 282.593 192.339C282.176 191.173 282.022 189.93 282.142 188.697C282.263 187.446 282.661 186.237 283.307 185.158C283.952 184.079 284.829 183.157 285.875 182.458C287.245 181.548 288.854 181.062 290.499 181.062C292.144 181.062 293.753 181.548 295.123 182.458C296.166 183.154 297.041 184.072 297.686 185.146C298.332 186.22 298.731 187.424 298.856 188.671C298.981 189.908 298.828 191.157 298.411 192.327C297.993 193.498 297.32 194.561 296.441 195.44V195.44ZM291.688 185.778C291.662 185.699 291.622 185.624 291.571 185.558L291.416 185.365C291.262 185.218 291.074 185.112 290.869 185.056C290.664 184.999 290.448 184.995 290.241 185.042H290.008L289.776 185.158L289.582 185.326L289.427 185.52C289.376 185.586 289.337 185.66 289.311 185.739C289.272 185.816 289.245 185.899 289.233 185.985C289.212 186.1 289.203 186.217 289.208 186.333C289.203 186.507 289.238 186.679 289.311 186.837C289.377 186.99 289.468 187.129 289.582 187.25C289.705 187.371 289.85 187.468 290.008 187.535C290.325 187.655 290.674 187.655 290.99 187.535C291.147 187.464 291.291 187.368 291.416 187.25C291.53 187.129 291.622 186.99 291.688 186.837C291.755 186.678 291.791 186.506 291.791 186.333C291.797 186.252 291.797 186.17 291.791 186.088C291.779 185.978 291.744 185.873 291.688 185.778V185.778Z" fill="#1B6AEC"/>
<path d="M319 154C318.735 154 318.481 154.105 318.293 154.293C318.106 154.48 318 154.735 318 155V157C318 157.265 318.106 157.52 318.293 157.707C318.481 157.895 318.735 158 319 158C319.266 158 319.52 157.895 319.707 157.707C319.895 157.52 320 157.265 320 157V155C320 154.735 319.895 154.48 319.707 154.293C319.52 154.105 319.266 154 319 154ZM327.46 153.68C327.328 152.215 326.817 150.809 325.978 149.6C325.139 148.391 324.001 147.421 322.675 146.784C321.348 146.147 319.879 145.865 318.411 145.966C316.944 146.067 315.527 146.547 314.3 147.36C313.25 148.063 312.367 148.989 311.717 150.073C311.067 151.157 310.665 152.372 310.54 153.63C310.418 154.88 310.575 156.141 311.001 157.322C311.426 158.504 312.109 159.575 313 160.46L318.3 165.77C318.393 165.864 318.504 165.938 318.626 165.989C318.748 166.04 318.878 166.066 319.01 166.066C319.142 166.066 319.273 166.04 319.395 165.989C319.517 165.938 319.627 165.864 319.72 165.77L325 160.46C325.892 159.575 326.575 158.504 327 157.322C327.426 156.141 327.583 154.88 327.46 153.63V153.68ZM323.6 159.05L319 163.65L314.4 159.05C313.722 158.372 313.203 157.552 312.88 156.65C312.557 155.747 312.437 154.784 312.53 153.83C312.624 152.861 312.932 151.925 313.432 151.09C313.932 150.254 314.611 149.541 315.42 149C316.481 148.295 317.727 147.919 319 147.919C320.274 147.919 321.519 148.295 322.58 149C323.387 149.539 324.065 150.249 324.565 151.081C325.064 151.913 325.374 152.845 325.47 153.81C325.567 154.767 325.449 155.734 325.125 156.641C324.802 157.547 324.281 158.37 323.6 159.05V159.05ZM319.92 151.57C319.9 151.509 319.87 151.451 319.83 151.4L319.71 151.25C319.591 151.137 319.445 151.054 319.287 151.011C319.128 150.967 318.961 150.964 318.8 151H318.62L318.44 151.09L318.29 151.22L318.17 151.37C318.131 151.421 318.1 151.479 318.08 151.54C318.05 151.6 318.03 151.664 318.02 151.73C318.004 151.819 317.997 151.91 318 152C317.997 152.134 318.024 152.268 318.08 152.39C318.131 152.508 318.202 152.616 318.29 152.71C318.386 152.803 318.498 152.878 318.62 152.93C318.865 153.023 319.136 153.023 319.38 152.93C319.502 152.876 319.613 152.801 319.71 152.71C319.798 152.616 319.869 152.508 319.92 152.39C319.973 152.267 320 152.134 320 152C320.005 151.937 320.005 151.873 320 151.81C319.991 151.725 319.964 151.643 319.92 151.57V151.57Z" fill="#1B6AEC"/>
<path d="M349.501 189.917C349.291 189.917 349.09 190 348.941 190.149C348.793 190.297 348.709 190.498 348.709 190.708V192.292C348.709 192.502 348.793 192.703 348.941 192.851C349.09 193 349.291 193.083 349.501 193.083C349.711 193.083 349.912 193 350.061 192.851C350.209 192.703 350.293 192.502 350.293 192.292V190.708C350.293 190.498 350.209 190.297 350.061 190.149C349.912 190 349.711 189.917 349.501 189.917ZM356.198 189.663C356.093 188.503 355.689 187.39 355.025 186.433C354.361 185.476 353.46 184.708 352.41 184.204C351.36 183.7 350.197 183.476 349.035 183.556C347.873 183.636 346.751 184.017 345.78 184.66C344.948 185.216 344.25 185.95 343.735 186.808C343.221 187.666 342.902 188.628 342.803 189.624C342.706 190.613 342.831 191.612 343.168 192.547C343.505 193.482 344.045 194.331 344.751 195.031L348.947 199.235C349.02 199.309 349.108 199.368 349.204 199.408C349.301 199.448 349.404 199.469 349.509 199.469C349.613 199.469 349.717 199.448 349.813 199.408C349.91 199.368 349.997 199.309 350.071 199.235L354.251 195.031C354.956 194.331 355.497 193.482 355.834 192.547C356.171 191.612 356.295 190.613 356.198 189.624V189.663ZM353.143 193.915L349.501 197.556L345.859 193.915C345.323 193.378 344.911 192.729 344.656 192.014C344.4 191.3 344.305 190.537 344.379 189.782C344.453 189.015 344.697 188.274 345.093 187.613C345.488 186.951 346.026 186.386 346.667 185.958C347.507 185.4 348.493 185.103 349.501 185.103C350.509 185.103 351.495 185.4 352.335 185.958C352.974 186.385 353.51 186.947 353.906 187.606C354.302 188.264 354.546 189.002 354.623 189.766C354.699 190.524 354.606 191.29 354.35 192.007C354.094 192.725 353.681 193.376 353.143 193.915V193.915ZM350.229 187.993C350.213 187.944 350.189 187.899 350.158 187.858L350.063 187.74C349.969 187.65 349.853 187.585 349.728 187.55C349.602 187.516 349.47 187.513 349.343 187.542H349.2L349.058 187.613L348.939 187.716L348.844 187.835C348.813 187.875 348.788 187.921 348.773 187.969C348.749 188.016 348.732 188.067 348.725 188.12C348.712 188.19 348.707 188.262 348.709 188.333C348.707 188.44 348.728 188.545 348.773 188.642C348.813 188.735 348.869 188.821 348.939 188.895C349.014 188.969 349.103 189.028 349.2 189.07C349.394 189.143 349.608 189.143 349.802 189.07C349.898 189.027 349.986 188.968 350.063 188.895C350.133 188.821 350.189 188.735 350.229 188.642C350.271 188.544 350.292 188.439 350.293 188.333C350.296 188.283 350.296 188.233 350.293 188.183C350.285 188.116 350.264 188.051 350.229 187.993V187.993Z" fill="#1B6AEC"/>
<defs>
<clipPath id="clip0_2805_7489">
<rect width="95" height="95" fill="white" transform="translate(136 88)"/>
</clipPath>
</defs>
</svg>
