<svg width="62" height="60" viewBox="0 0 62 60" fill="none" xmlns="http://www.w3.org/2000/svg">
<circle cx="18.5" cy="22.5" r="43.5" fill="#679CF2"/>
<path d="M13.875 28.875H26.875V15.875H13.875V28.875ZM17.125 19.125H23.625V25.625H17.125V19.125Z" fill="white"/>
<path d="M13.875 45.125H26.875V32.125H13.875V45.125ZM17.125 35.375H23.625V41.875H17.125V35.375Z" fill="white"/>
<path d="M30.125 15.875V28.875H43.125V15.875H30.125ZM39.875 25.625H33.375V19.125H39.875V25.625Z" fill="white"/>
<path d="M43.125 41.875H39.875V45.125H43.125V41.875Z" fill="white"/>
<path d="M33.375 32.125H30.125V35.375H33.375V32.125Z" fill="white"/>
<path d="M36.625 35.375H33.375V38.625H36.625V35.375Z" fill="white"/>
<path d="M33.375 38.625H30.125V41.875H33.375V38.625Z" fill="white"/>
<path d="M36.625 41.875H33.375V45.125H36.625V41.875Z" fill="white"/>
<path d="M39.875 38.625H36.625V41.875H39.875V38.625Z" fill="white"/>
<path d="M39.875 32.125H36.625V35.375H39.875V32.125Z" fill="white"/>
<path d="M43.125 35.375H39.875V38.625H43.125V35.375Z" fill="white"/>
</svg>
