<svg width="62" height="60" viewBox="0 0 62 60" fill="none" xmlns="http://www.w3.org/2000/svg">
<circle cx="18.5" cy="22.5" r="43.5" fill="#679CF2"/>
<path d="M28.5 14.25L15.5 19.125V29.0213C15.5 37.2275 21.0412 44.8813 28.5 46.75C35.9588 44.8813 41.5 37.2275 41.5 29.0213V19.125L28.5 14.25ZM38.25 29.0213C38.25 35.5213 34.1063 41.5338 28.5 43.37C22.8937 41.5338 18.75 35.5375 18.75 29.0213V21.3837L28.5 17.7275L38.25 21.3837V29.0213ZM28.5 22.375C24.015 22.375 20.375 26.015 20.375 30.5C20.375 34.985 24.015 38.625 28.5 38.625C32.985 38.625 36.625 34.985 36.625 30.5C36.625 26.015 32.985 22.375 28.5 22.375ZM31.1812 34.3188L27.6875 30.825V25.625H29.3125V30.1587L32.3188 33.165L31.1812 34.3188Z" fill="white"/>
</svg>
