<svg width="11" height="13" viewBox="0 0 11 13" fill="none" xmlns="http://www.w3.org/2000/svg">
<path d="M7.91634 7.00016C6.30634 7.00016 4.99967 8.30683 4.99967 9.91683C4.99967 11.5268 6.30634 12.8335 7.91634 12.8335C9.52634 12.8335 10.833 11.5268 10.833 9.91683C10.833 8.30683 9.52634 7.00016 7.91634 7.00016ZM8.87884 11.2877L7.62467 10.0335V8.16683H8.20801V9.79433L9.28717 10.8735L8.87884 11.2877ZM8.49967 1.75016H6.64467C6.39967 1.0735 5.75801 0.583496 4.99967 0.583496C4.24134 0.583496 3.59967 1.0735 3.35467 1.75016H1.49967C0.858008 1.75016 0.333008 2.27516 0.333008 2.91683V11.6668C0.333008 12.3085 0.858008 12.8335 1.49967 12.8335H5.06384C4.71967 12.501 4.43967 12.1043 4.23551 11.6668H1.49967V2.91683H2.66634V4.66683H7.33301V2.91683H8.49967V5.88016C8.91384 5.9385 9.30467 6.061 9.66634 6.23016V2.91683C9.66634 2.27516 9.14134 1.75016 8.49967 1.75016ZM4.99967 2.91683C4.67884 2.91683 4.41634 2.65433 4.41634 2.3335C4.41634 2.01266 4.67884 1.75016 4.99967 1.75016C5.32051 1.75016 5.58301 2.01266 5.58301 2.3335C5.58301 2.65433 5.32051 2.91683 4.99967 2.91683Z" fill="#FE9705"/>
</svg>
