<svg width="62" height="60" viewBox="0 0 62 60" fill="none" xmlns="http://www.w3.org/2000/svg">
<circle cx="18.5" cy="22.5" r="43.5" fill="#6A45FB"/>
<path d="M43.9846 34.0649L41.9114 28.1063C41.7084 27.5264 41.1575 27.1494 40.5051 27.1494H30.0811C29.4142 27.1494 28.8777 27.5264 28.6603 28.1063L26.6016 34.0649V41.6619C26.6016 42.4593 27.254 43.0972 28.0514 43.0972C28.8487 43.0972 29.5012 42.4448 29.5012 41.6474V40.1976H41.0995V41.6474C41.0995 42.4448 41.7519 43.0972 42.5493 43.0972C43.3467 43.0972 43.9846 42.4593 43.9991 41.6619L43.9846 34.0649ZM28.9357 31.9917L29.9361 29.0921C30.0086 28.8022 30.284 28.5992 30.603 28.5992H39.9977C40.3021 28.5992 40.5776 28.8022 40.6791 29.0921L41.6794 31.9917C41.8389 32.4557 41.491 32.9486 40.998 32.9486H29.6171C29.1242 32.9486 28.7763 32.4557 28.9357 31.9917ZM29.4867 37.298C28.6893 37.298 28.0369 36.6456 28.0369 35.8482C28.0369 35.0508 28.6893 34.3984 29.4867 34.3984C30.284 34.3984 30.9365 35.0508 30.9365 35.8482C30.9365 36.6456 30.284 37.298 29.4867 37.298ZM41.085 37.298C40.2876 37.298 39.6352 36.6456 39.6352 35.8482C39.6352 35.0508 40.2876 34.3984 41.085 34.3984C41.8824 34.3984 42.5348 35.0508 42.5348 35.8482C42.5348 36.6456 41.8824 37.298 41.085 37.298Z" fill="white"/>
<path d="M32.3976 19.1747V25.6988H33.8474V18.4498C33.8474 17.6524 33.195 17 32.3976 17H23.6988C22.9014 17 22.249 17.6524 22.249 18.4498V24.249H16.4498C15.6524 24.249 15 24.9014 15 25.6988V43.0963H16.4498V26.4237C16.4498 26.0177 16.7688 25.6988 17.1747 25.6988H22.9739C23.3798 25.6988 23.6988 25.3798 23.6988 24.9739V19.1747C23.6988 18.7688 24.0177 18.4498 24.4237 18.4498H31.6727C32.0786 18.4498 32.3976 18.7688 32.3976 19.1747Z" fill="white"/>
<path d="M22.2472 28.5986H19.3477V31.4982H22.2472V28.5986Z" fill="white"/>
<path d="M29.5012 19.8984H26.6016V22.798H29.5012V19.8984Z" fill="white"/>
<path d="M22.2472 34.3975H19.3477V37.2971H22.2472V34.3975Z" fill="white"/>
<path d="M22.2472 40.1973H19.3477V43.0969H22.2472V40.1973Z" fill="white"/>
</svg>
