<svg width="335" height="80" viewBox="0 0 335 80" fill="none" xmlns="http://www.w3.org/2000/svg">
<path fill-rule="evenodd" clip-rule="evenodd" d="M0 29.0866C0 31.4752 1.41682 33.6363 3.6073 34.5889L8.93333 36.9049C18.76 39.8185 37.52 47.5879 56.28 47.5879C74.1467 47.5879 92.9067 39.8185 111.667 34.9626C130.427 29.1355 149.187 25.2507 167.947 36.9049C185.813 47.5879 204.573 72.8387 223.333 78.6658C242.093 84.4929 260.853 69.9251 279.613 60.2133C297.48 51.4727 316.24 47.5879 326.067 45.6456L330.275 44.7306C333.033 44.1309 335 41.6901 335 38.8676V5.99999C335 2.68629 332.314 0 329 0H326.067C316.24 0 297.48 0 279.613 0C260.853 0 242.093 0 223.333 0C204.573 0 185.813 0 167.947 0C149.187 0 130.427 0 111.667 0C92.9067 0 74.1467 0 56.28 0C37.52 0 18.76 0 8.93333 0H6C2.68629 0 0 2.68629 0 6V29.0866Z" fill="#57A7F1" fill-opacity="0.13"/>
</svg>
